<svg xmlns="http://www.w3.org/2000/svg" width="133" height="133" viewBox="0 0 133 133">
  <g id="Grupo_112859" data-name="Grupo 112859" transform="translate(-982 -2192)">
    <g id="Elipse_5489" data-name="Elipse 5489" transform="translate(982 2192)" fill="#fff" stroke="#3e4bbf" stroke-width="4">
      <circle cx="66.5" cy="66.5" r="66.5" stroke="none"/>
      <circle cx="66.5" cy="66.5" r="64.5" fill="none"/>
    </g>
    <g id="roles" transform="translate(1001.507 2196.516)">
      <g id="Grupo_112850" data-name="Grupo 112850" transform="translate(63.729 26.586)">
        <path id="Trazado_162128" data-name="Trazado 162128" d="M379.878,52.492l-1.925-1.111a9.326,9.326,0,0,0,0-2.864l1.925-1.111a1.493,1.493,0,0,0,.546-2.038l-1.872-3.244a1.494,1.494,0,0,0-2.04-.546l-1.927,1.113a9.326,9.326,0,0,0-2.478-1.431V39.035a1.494,1.494,0,0,0-1.494-1.494H366.87a1.493,1.493,0,0,0-1.492,1.494v2.224A9.286,9.286,0,0,0,362.9,42.69l-1.928-1.113a1.493,1.493,0,0,0-2.038.546l-1.872,3.244a1.491,1.491,0,0,0,.546,2.038l1.924,1.111a9.434,9.434,0,0,0,0,2.864l-1.924,1.111a1.493,1.493,0,0,0-.546,2.04l1.872,3.243a1.492,1.492,0,0,0,2.038.546l1.928-1.113a9.257,9.257,0,0,0,2.478,1.433v2.224a1.492,1.492,0,0,0,1.492,1.492h3.744a1.492,1.492,0,0,0,1.494-1.492V58.641a9.3,9.3,0,0,0,2.478-1.433l1.927,1.113a1.493,1.493,0,0,0,2.04-.546l1.872-3.243A1.5,1.5,0,0,0,379.878,52.492Zm-11.136,2.392a4.935,4.935,0,1,1,4.935-4.935A4.935,4.935,0,0,1,368.742,54.884Z" transform="translate(-356.86 -37.541)" fill="#685e68"/>
        <path id="Trazado_162129" data-name="Trazado 162129" d="M362.731,62.591l-1.76-1.015a1.492,1.492,0,0,0-2.039.546l-1.872,3.243a1.492,1.492,0,0,0,.546,2.039l1.924,1.111a9.46,9.46,0,0,0,0,2.864l-1.924,1.111a1.493,1.493,0,0,0-.546,2.04l1.872,3.242a1.491,1.491,0,0,0,2.039.546l1.76-1.015a14.425,14.425,0,0,1,0-14.712Z" transform="translate(-356.859 -57.539)" fill="#554e56"/>
        <path id="Trazado_162130" data-name="Trazado 162130" d="M379.878,52.492l-1.925-1.111a9.326,9.326,0,0,0,0-2.864l1.925-1.111a1.493,1.493,0,0,0,.546-2.038l-1.872-3.244a1.494,1.494,0,0,0-2.04-.546l-1.927,1.113a9.326,9.326,0,0,0-2.478-1.431V39.035a1.494,1.494,0,0,0-1.494-1.494H366.87a1.493,1.493,0,0,0-1.492,1.494v2.224A9.286,9.286,0,0,0,362.9,42.69l-1.928-1.113a1.493,1.493,0,0,0-2.038.546l-1.872,3.244a1.491,1.491,0,0,0,.546,2.038l1.924,1.111a9.434,9.434,0,0,0,0,2.864l-1.924,1.111a1.493,1.493,0,0,0-.546,2.04l1.872,3.243a1.492,1.492,0,0,0,2.038.546l1.928-1.113a9.257,9.257,0,0,0,2.478,1.433v2.224a1.492,1.492,0,0,0,1.492,1.492h3.744a1.492,1.492,0,0,0,1.494-1.492V58.641a9.3,9.3,0,0,0,2.478-1.433l1.927,1.113a1.493,1.493,0,0,0,2.04-.546l1.872-3.243A1.5,1.5,0,0,0,379.878,52.492Z" transform="translate(-356.86 -37.541)" fill="none" stroke="#000" stroke-linecap="round" stroke-linejoin="round" stroke-miterlimit="10" stroke-width="3"/>
        <path id="Trazado_162131" data-name="Trazado 162131" d="M409.6,87.24a4.936,4.936,0,1,1-4.647-3.266c.124,0,.248,0,.37.014" transform="translate(-393.073 -76.5)" fill="none" stroke="#000" stroke-linecap="round" stroke-linejoin="round" stroke-miterlimit="10" stroke-width="3"/>
      </g>
      <path id="Trazado_162132" data-name="Trazado 162132" d="M208.925,366.015v-2.469h5.8a2.415,2.415,0,1,0,0-4.829h-5.8v-2.47a1.35,1.35,0,0,0-2.026-1.169l-8.458,4.884a1.351,1.351,0,0,0,0,2.339l8.458,4.884A1.35,1.35,0,0,0,208.925,366.015Z" transform="translate(-159.645 -277.225)" fill="#9be69d"/>
      <path id="Trazado_162133" data-name="Trazado 162133" d="M205.983,92.044V89.575h-5.8a2.415,2.415,0,1,1,0-4.829h5.8v-2.47a1.35,1.35,0,0,1,2.026-1.169l8.458,4.884a1.351,1.351,0,0,1,0,2.339l-8.458,4.884A1.35,1.35,0,0,1,205.983,92.044Z" transform="translate(-159.645 -47.355)" fill="#9be69d"/>
      <path id="Trazado_162134" data-name="Trazado 162134" d="M208.925,366.015v-2.469h5.8a2.415,2.415,0,1,0,0-4.829h-5.8v-2.47a1.35,1.35,0,0,0-2.026-1.169l-8.458,4.884a1.351,1.351,0,0,0,0,2.339l8.458,4.884A1.35,1.35,0,0,0,208.925,366.015Z" transform="translate(-159.645 -277.225)" fill="none" stroke="#000" stroke-linecap="round" stroke-linejoin="round" stroke-miterlimit="10" stroke-width="3"/>
      <path id="Trazado_162135" data-name="Trazado 162135" d="M205.983,92.044V89.575h-5.8a2.415,2.415,0,1,1,0-4.829h5.8v-2.47a1.35,1.35,0,0,1,2.026-1.169l8.458,4.884a1.351,1.351,0,0,1,0,2.339l-8.458,4.884A1.35,1.35,0,0,1,205.983,92.044Z" transform="translate(-159.645 -47.355)" fill="none" stroke="#000" stroke-linecap="round" stroke-linejoin="round" stroke-miterlimit="10" stroke-width="3"/>
      <g id="Grupo_112852" data-name="Grupo 112852" transform="translate(62.333 66.466)">
        <path id="Trazado_162136" data-name="Trazado 162136" d="M373.347,302.888v-8.676a8.918,8.918,0,0,0-8.918-8.918h-7.323a8.918,8.918,0,0,0-8.918,8.918v8.676" transform="translate(-348.188 -285.294)" fill="#fdb441"/>
        <path id="Trazado_162137" data-name="Trazado 162137" d="M364.487,285.294a8.918,8.918,0,0,0-8.859,8.917v8.677h-7.441v-8.677a8.918,8.918,0,0,1,8.917-8.918h7.383Z" transform="translate(-348.187 -285.293)" fill="#fe9738"/>
        <path id="Trazado_162138" data-name="Trazado 162138" d="M373.347,302.888v-8.676a8.918,8.918,0,0,0-8.918-8.918h-7.323a8.918,8.918,0,0,0-8.918,8.918v8.676" transform="translate(-348.188 -285.294)" fill="none" stroke="#000" stroke-linecap="round" stroke-linejoin="round" stroke-miterlimit="10" stroke-width="3"/>
        <path id="Trazado_162139" data-name="Trazado 162139" d="M373.346,348.028a2.545,2.545,0,0,1-2.566,2.473h-.828v3.267a9.177,9.177,0,0,1-9.215,9.184,9.274,9.274,0,0,1-9.156-9.322V350.5h-.892a2.5,2.5,0,0,1,0-5h.892v-6.439s1.129,2.5,5.712,4.379a33.258,33.258,0,0,0,12.66,2.06h.892a2.5,2.5,0,0,1,2.5,2.531Z" transform="translate(-348.186 -330.404)" fill="#ffdfcf"/>
        <path id="Trazado_162140" data-name="Trazado 162140" d="M362.837,362.682a.294.294,0,0,0-.118.062,9.163,9.163,0,0,1-1.983.208,9.274,9.274,0,0,1-9.156-9.322V350.5h-.892a2.5,2.5,0,0,1,0-5h.892v-6.439s1.129,2.5,5.712,4.379V355.5A7.425,7.425,0,0,0,362.837,362.682Z" transform="translate(-348.186 -330.404)" fill="#ffcebf"/>
        <path id="Trazado_162141" data-name="Trazado 162141" d="M369.954,345.5h.892a2.5,2.5,0,0,1,2.5,2.532,2.545,2.545,0,0,1-2.567,2.471h-.828v3.267a9.186,9.186,0,0,1-9.216,9.186,9.275,9.275,0,0,1-9.156-9.323V350.5h-.892a2.5,2.5,0,0,1,0-5h.892v-6.439S354.492,345.5,369.954,345.5Z" transform="translate(-348.189 -330.402)" fill="none" stroke="#000" stroke-linecap="round" stroke-linejoin="round" stroke-miterlimit="10" stroke-width="3"/>
        <g id="Grupo_112851" data-name="Grupo 112851" transform="translate(10.444 17.515)">
          <line id="Línea_258" data-name="Línea 258" y2="2.069" fill="none" stroke="#000" stroke-linecap="round" stroke-linejoin="round" stroke-miterlimit="10" stroke-width="3"/>
          <line id="Línea_259" data-name="Línea 259" y2="2.069" transform="translate(4.271)" fill="none" stroke="#000" stroke-linecap="round" stroke-linejoin="round" stroke-miterlimit="10" stroke-width="3"/>
        </g>
        <path id="Trazado_162142" data-name="Trazado 162142" d="M415.308,436.359a3.7,3.7,0,0,1-5.237,0" transform="translate(-400.11 -412.042)" fill="none" stroke="#000" stroke-linecap="round" stroke-linejoin="round" stroke-miterlimit="10" stroke-width="3"/>
      </g>
      <g id="Grupo_112857" data-name="Grupo 112857" transform="translate(7.493 24.484)">
        <g id="Grupo_112853" data-name="Grupo 112853" transform="translate(1.927 0.001)">
          <path id="Trazado_162143" data-name="Trazado 162143" d="M43.145,41V28.144a3.655,3.655,0,0,0-3.655-3.655H23.122a3.655,3.655,0,0,0-3.655,3.655V41" transform="translate(-19.467 -24.489)" fill="#685e68"/>
        </g>
        <g id="Grupo_112854" data-name="Grupo 112854" transform="translate(1.927)">
          <path id="Trazado_162144" data-name="Trazado 162144" d="M31.305,24.484a3.655,3.655,0,0,0-3.655,3.655V40.993H19.467V28.139a3.655,3.655,0,0,1,3.654-3.655Z" transform="translate(-19.467 -24.484)" fill="#554e56"/>
        </g>
        <path id="Trazado_162145" data-name="Trazado 162145" d="M35.025,96.549a2.736,2.736,0,0,1-2.737,2.738h-.977v3.426a10.2,10.2,0,0,1-7.786,9.939,9.888,9.888,0,0,1-2.232.262,10.052,10.052,0,0,1-10.086-10.052V99.287h-.9a2.785,2.785,0,0,1-2.81-2.7,2.739,2.739,0,0,1,2.738-2.77h2.206V90.846a.881.881,0,0,1,1.21-.816l.059.024a20.21,20.21,0,0,0,15.164-.02.881.881,0,0,1,1.213.816v2.962h2.2A2.736,2.736,0,0,1,35.025,96.549Z" transform="translate(-7.493 -79.425)" fill="#d78878"/>
        <path id="Trazado_162146" data-name="Trazado 162146" d="M23.525,112.651s0,0,0,0a9.888,9.888,0,0,1-2.232.262,10.052,10.052,0,0,1-10.086-10.052V99.287h-.9a2.785,2.785,0,0,1-2.81-2.7,2.739,2.739,0,0,1,2.738-2.77h2.206V90.846a.881.881,0,0,1,1.21-.816l.059.024a20.184,20.184,0,0,0,3.75,1.1V104.79A8.126,8.126,0,0,0,23.525,112.651Z" transform="translate(-7.493 -79.425)" fill="#ca6e59"/>
        <path id="Trazado_162147" data-name="Trazado 162147" d="M16.408,111.661a10,10,0,0,0,4.89,1.251,10.15,10.15,0,0,0,10.02-10.2V99.284h.975a2.737,2.737,0,0,0,0-5.474H30.088V90.848a.881.881,0,0,0-1.212-.816,20.209,20.209,0,0,1-15.163.019l-.06-.024a.881.881,0,0,0-1.21.818v2.965H10.238A2.737,2.737,0,0,0,7.5,96.58a2.783,2.783,0,0,0,2.809,2.7h.9v3.575a9.98,9.98,0,0,0,1.251,4.856" transform="translate(-7.499 -79.422)" fill="none" stroke="#000" stroke-linecap="round" stroke-linejoin="round" stroke-miterlimit="10" stroke-width="3"/>
        <g id="Grupo_112855" data-name="Grupo 112855" transform="translate(11.43 16.51)">
          <line id="Línea_260" data-name="Línea 260" y2="2.264" transform="translate(0)" fill="none" stroke="#000" stroke-linecap="round" stroke-linejoin="round" stroke-miterlimit="10" stroke-width="3"/>
          <line id="Línea_261" data-name="Línea 261" y2="2.264" transform="translate(4.674)" fill="none" stroke="#000" stroke-linecap="round" stroke-linejoin="round" stroke-miterlimit="10" stroke-width="3"/>
        </g>
        <path id="Trazado_162148" data-name="Trazado 162148" d="M75.211,176.567a4.052,4.052,0,0,0,5.731,0" transform="translate(-64.311 -152.087)" fill="none" stroke="#000" stroke-linecap="round" stroke-linejoin="round" stroke-miterlimit="10" stroke-width="3"/>
        <g id="Grupo_112856" data-name="Grupo 112856" transform="translate(1.928 0)">
          <path id="Trazado_162149" data-name="Trazado 162149" d="M19.469,39V28.142a3.655,3.655,0,0,1,3.654-3.656H39.491a3.655,3.655,0,0,1,3.656,3.656V39" transform="translate(-19.469 -24.486)" fill="none" stroke="#000" stroke-linecap="round" stroke-linejoin="round" stroke-miterlimit="10" stroke-width="3"/>
        </g>
      </g>
      <g id="Grupo_112858" data-name="Grupo 112858" transform="translate(10.343 71.502)">
        <path id="Trazado_162150" data-name="Trazado 162150" d="M48.7,318.211v23.118a1.632,1.632,0,0,1-1.632,1.632H26.828a1.632,1.632,0,0,1-1.632-1.632V329.213a2.966,2.966,0,0,1,.868-2.1l9.669-9.669a2.965,2.965,0,0,1,2.1-.868h9.242A1.632,1.632,0,0,1,48.7,318.211Z" transform="translate(-25.196 -316.579)" fill="#f5f8f9"/>
        <path id="Trazado_162151" data-name="Trazado 162151" d="M37.991,318.233v9.508a1.632,1.632,0,0,1-1.632,1.632H26.851a2.986,2.986,0,0,1,.6-.868l9.669-9.669A2.992,2.992,0,0,1,37.991,318.233Z" transform="translate(-26.585 -317.967)" fill="#dedbee"/>
        <path id="Trazado_162152" data-name="Trazado 162152" d="M37.991,318.233v9.508a1.632,1.632,0,0,1-1.632,1.632H26.851" transform="translate(-26.585 -317.967)" fill="none" stroke="#000" stroke-linecap="round" stroke-linejoin="round" stroke-miterlimit="10" stroke-width="3"/>
        <path id="Trazado_162153" data-name="Trazado 162153" d="M48.709,338.68v2.654a1.631,1.631,0,0,1-1.632,1.631H26.832a1.629,1.629,0,0,1-1.631-1.631V329.218a2.966,2.966,0,0,1,.868-2.1l9.669-9.669a2.967,2.967,0,0,1,2.1-.868h9.241a1.631,1.631,0,0,1,1.632,1.631v14.831" transform="translate(-25.2 -316.583)" fill="none" stroke="#000" stroke-linecap="round" stroke-linejoin="round" stroke-miterlimit="10" stroke-width="3"/>
      </g>
    </g>
  </g>
</svg>
