<svg xmlns="http://www.w3.org/2000/svg" width="133" height="133" viewBox="0 0 133 133">
  <g id="Grupo_112822" data-name="Grupo 112822" transform="translate(-1259.757 -138.457)">
    <g id="Elipse_5376" data-name="Elipse 5376" transform="translate(1259.757 138.457)" fill="#fff" stroke="#77b43a" stroke-width="4">
      <circle cx="66.5" cy="66.5" r="66.5" stroke="none"/>
      <circle cx="66.5" cy="66.5" r="64.5" fill="none"/>
    </g>
    <g id="unido" transform="translate(1282.759 158.457)">
      <path id="Trazado_162046" data-name="Trazado 162046" d="M203.978,199.483,184.791,180.3a3.072,3.072,0,1,1,4.345-4.345l-4.941-4.94a3.065,3.065,0,0,1-.9-2.174,3.155,3.155,0,0,1,.039-.492,3.068,3.068,0,0,1,4.916-1.933l-1.88-1.88a3.073,3.073,0,0,1-.9-2.176,2.935,2.935,0,0,1,.041-.5,3.074,3.074,0,0,1,5.208-1.67l2.153,2.153a3.072,3.072,0,1,1,4.345-4.345l12.469,12.469.035-.05a5.618,5.618,0,0,1,7.953.006l5.814,5.814a5.966,5.966,0,0,1,1.747,4.21l0,3.637a6.42,6.42,0,0,0,1.882,4.535l1.3,1.3-14.83,14.829-1.657-1.657a6.422,6.422,0,0,0-4.121-1.867A5.959,5.959,0,0,1,203.978,199.483Zm0,0" transform="translate(-152.149 -130.4)" fill="#fecbaa"/>
      <path id="Trazado_162047" data-name="Trazado 162047" d="M353.846,358.931,370.677,342.1a1.42,1.42,0,0,1,2.008,0l5.995,5.994a1.421,1.421,0,0,1,0,2.008l-16.832,16.832a1.421,1.421,0,0,1-2.008,0l-5.994-5.995A1.42,1.42,0,0,1,353.846,358.931Zm0,0" transform="translate(-293.377 -283.626)" fill="#fdd559"/>
      <path id="Trazado_162048" data-name="Trazado 162048" d="M87.59,199.493l19.187-19.187a3.072,3.072,0,1,0-4.345-4.345l4.941-4.941a3.07,3.07,0,0,0-4.053-4.6l1.88-1.88a3.072,3.072,0,0,0,.9-2.176,2.931,2.931,0,0,0-.041-.5,3.061,3.061,0,0,0-2.542-2.533,3.072,3.072,0,0,0-2.666.862L98.7,162.349A3.072,3.072,0,1,0,94.356,158l-12.47,12.469-.035-.049a5.618,5.618,0,0,0-7.953.006l-5.814,5.814a5.964,5.964,0,0,0-1.747,4.21l0,3.637a6.416,6.416,0,0,1-1.881,4.535l-1.3,1.3,14.829,14.829,1.657-1.657a6.422,6.422,0,0,1,4.121-1.867A5.966,5.966,0,0,0,87.59,199.493Zm0,0" transform="translate(-52.425 -130.408)" fill="#fecbaa"/>
      <path id="Trazado_162049" data-name="Trazado 162049" d="M32.746,358.94,15.914,342.108a1.42,1.42,0,0,0-2.008,0L7.911,348.1a1.421,1.421,0,0,0,0,2.008l16.832,16.832a1.42,1.42,0,0,0,2.008,0l5.995-5.994A1.421,1.421,0,0,0,32.746,358.94Zm0,0" transform="translate(-6.222 -283.633)" fill="#ff84a7"/>
      <path id="Trazado_162050" data-name="Trazado 162050" d="M180.528,84.615V111.75a3.072,3.072,0,1,1-6.145,0v6.987a3.07,3.07,0,0,1-6.117.386v2.66a3.072,3.072,0,0,1-.9,2.176,2.88,2.88,0,0,1-.382.325,3.073,3.073,0,0,1-4.863-2.5v-3.045a3.072,3.072,0,1,1-6.144,0V101.1l-.06.011a5.619,5.619,0,0,1-5.619-5.628V87.263a5.968,5.968,0,0,1,1.742-4.213l2.569-2.574a6.42,6.42,0,0,0,1.876-4.537V74.105h20.972v2.343a6.427,6.427,0,0,0,1.594,4.235A5.96,5.96,0,0,1,180.528,84.615Zm0,0" transform="translate(-124.759 -61.514)" fill="#fedfc5"/>
      <path id="Trazado_162051" data-name="Trazado 162051" d="M173.255,175.958a3.075,3.075,0,0,0-4.348,0l4.941-4.941a3.07,3.07,0,0,0-4.053-4.6l1.88-1.88a3.071,3.071,0,0,0,.9-2.176,2.864,2.864,0,0,0-.041-.5,3.074,3.074,0,0,0-5.207-1.671l-2.153,2.153A3.072,3.072,0,1,0,160.831,158l-12.469,12.469-.035-.049a5.6,5.6,0,0,0-5.088-1.529,8.245,8.245,0,0,0,4.329,3.274v15.462a5.627,5.627,0,0,0,6.719,5.519,5.632,5.632,0,0,0,3.26,2.861l15.705-15.706A3.071,3.071,0,0,0,173.255,175.958Zm0,0" transform="translate(-118.9 -130.408)" fill="#ffae85"/>
      <path id="Trazado_162052" data-name="Trazado 162052" d="M210.454,180.637V169.786a5.624,5.624,0,0,0-.751.631l-.035.049L197.2,158a3.075,3.075,0,0,0-4.348,0,3.075,3.075,0,0,0,0,4.348l-2.153-2.153a3.071,3.071,0,0,0-5.208,1.671,2.929,2.929,0,0,0-.04.5,3.069,3.069,0,0,0,.9,2.176l1.88,1.88a3.071,3.071,0,0,0-4.053,4.6l4.941,4.941a3.072,3.072,0,1,0-4.344,4.345l12.854,12.854a5.642,5.642,0,0,0,1.056.1,5.571,5.571,0,0,0,3.288-1.064,5.62,5.62,0,0,0,2.332-4.562V186.24q.26.024.524.024A5.63,5.63,0,0,0,210.454,180.637Zm0,0" transform="translate(-152.139 -130.402)" fill="#ffae85"/>
      <path id="Trazado_162053" data-name="Trazado 162053" d="M180.528,84.615V111.75a3.073,3.073,0,0,1-3.072,3.077c-.046,0-.095,0-.145,0a3.039,3.039,0,0,1-1.649-.577s0,0,0,0a3.071,3.071,0,0,1-1.274-2.494v6.987a3.07,3.07,0,0,1-6.117.386v2.66a3.072,3.072,0,0,1-.9,2.176,2.88,2.88,0,0,1-.382.325,3.073,3.073,0,0,1-4.863-2.5v-3.045a3.072,3.072,0,1,1-6.144,0V101.1l-.06.011a5.619,5.619,0,0,1-5.619-5.628V87.263a5.968,5.968,0,0,1,1.742-4.213l2.569-2.574a6.432,6.432,0,0,0,1.876-4.537V74.105h20.972v2.343a5.788,5.788,0,0,0,.2,1.586,6.383,6.383,0,0,0,1.391,2.649A6.009,6.009,0,0,1,180.528,84.615Zm0,0" transform="translate(-124.759 -61.514)" fill="#fedfc5"/>
      <path id="Trazado_162054" data-name="Trazado 162054" d="M209.351,84.615V111.75a3.073,3.073,0,0,1-3.072,3.077c-.046,0-.095,0-.145,0a3.039,3.039,0,0,1-1.649-.577l.052-26.148a4.009,4.009,0,0,0-.1-.725,11.819,11.819,0,0,0-11.823-9.538H185.02a6.4,6.4,0,0,0,.287-1.9V74.105h20.972v2.343a5.788,5.788,0,0,0,.2,1.586,6.383,6.383,0,0,0,1.391,2.649A6.009,6.009,0,0,1,209.351,84.615Zm0,0" transform="translate(-153.582 -61.514)" fill="#fecbaa"/>
      <path id="Trazado_162055" data-name="Trazado 162055" d="M194.924,18.818h-23.8a1.42,1.42,0,0,1-1.42-1.42V8.92a1.42,1.42,0,0,1,1.42-1.42h23.8a1.42,1.42,0,0,1,1.42,1.42V17.4A1.42,1.42,0,0,1,194.924,18.818Zm0,0" transform="translate(-140.865 -6.226)" fill="#83d9ff"/>
      <path id="Trazado_162056" data-name="Trazado 162056" d="M202.883,447.762l-.256,1.248.246-1.25a1.274,1.274,0,1,0-.492,2.5l.023,0a1.3,1.3,0,0,0,.241.023,1.275,1.275,0,0,0,.238-2.527Zm0,0" transform="translate(-167.14 -371.659)"/>
      <path id="Trazado_162057" data-name="Trazado 162057" d="M262.1,450.262l.127,1.268-.131-1.267a1.274,1.274,0,0,0,.129,2.542c.044,0,.088,0,.132-.007l.035,0a1.274,1.274,0,0,0-.292-2.532Zm0,0" transform="translate(-216.609 -373.75)"/>
      <path id="Trazado_162058" data-name="Trazado 162058" d="M232.443,451.232h-.019a1.267,1.267,0,0,0-1.321,1.217,1.281,1.281,0,0,0,1.224,1.33h.059a1.274,1.274,0,0,0,.056-2.547Zm0,0" transform="translate(-191.834 -374.56)"/>
      <path id="Trazado_162059" data-name="Trazado 162059" d="M174.289,439.87l-.016-.006a1.267,1.267,0,0,0-1.622.771,1.278,1.278,0,1,0,1.638-.765Zm0,0" transform="translate(-143.253 -365.063)"/>
      <path id="Trazado_162060" data-name="Trazado 162060" d="M291.313,444.844l.314,1.235-.318-1.234a1.274,1.274,0,1,0,.636,2.468l.034-.009a1.274,1.274,0,0,0-.666-2.46Zm0,0" transform="translate(-241.017 -369.224)"/>
      <path id="Trazado_162061" data-name="Trazado 162061" d="M319.36,435.061l.505,1.169-.509-1.168a1.274,1.274,0,1,0,1.018,2.337l.031-.014a1.274,1.274,0,0,0-1.045-2.324Zm0,0" transform="translate(-264.457 -361.047)"/>
      <path id="Trazado_162062" data-name="Trazado 162062" d="M147.757,81.239a1.275,1.275,0,1,0-.6-2.4l-.015.008a1.272,1.272,0,0,0,.611,2.392Zm0,0" transform="translate(-121.589 -65.318)"/>
      <path id="Trazado_162063" data-name="Trazado 162063" d="M63.919,165.652a1.274,1.274,0,0,0,1.721-.537l.023-.044a1.275,1.275,0,1,0-1.744.581Zm0,0" transform="translate(-52.492 -135.498)"/>
      <path id="Trazado_162064" data-name="Trazado 162064" d="M52.463,193.48a1.273,1.273,0,0,0,1.616-.8l.017-.05a1.275,1.275,0,1,0-1.632.849Zm0,0" transform="translate(-42.829 -158.531)"/>
      <path id="Trazado_162065" data-name="Trazado 162065" d="M79.488,139.914a1.273,1.273,0,0,0,1.78-.281l.017-.023a1.274,1.274,0,0,0-2.073-1.482l1.027.755-1.031-.75A1.274,1.274,0,0,0,79.488,139.914Zm0,0" transform="translate(-65.546 -114.217)"/>
      <path id="Trazado_162066" data-name="Trazado 162066" d="M122.319,97.383a1.28,1.28,0,1,0-.738-2.316l-.032.023a1.276,1.276,0,0,0,.77,2.293Zm0,0" transform="translate(-100.477 -78.709)"/>
      <path id="Trazado_162067" data-name="Trazado 162067" d="M49.7,311.286a1.275,1.275,0,1,0-.017-.056Zm0,0" transform="translate(-41.202 -257.011)"/>
      <path id="Trazado_162068" data-name="Trazado 162068" d="M99.664,117.166a1.278,1.278,0,1,0-.89-2.185l-.021.021a1.273,1.273,0,0,0,.911,2.164Zm0,0" transform="translate(-81.672 -95.134)"/>
      <path id="Trazado_162069" data-name="Trazado 162069" d="M45.888,281.3a1.275,1.275,0,0,0-2.529.315l.007.051a1.274,1.274,0,0,0,2.522-.366Zm0,0" transform="translate(-35.984 -232.584)"/>
      <path id="Trazado_162070" data-name="Trazado 162070" d="M42.827,252.714h.038a1.274,1.274,0,0,0,1.273-1.237v-.054a1.275,1.275,0,1,0-1.313,1.291Zm0,0" transform="translate(-34.524 -207.644)"/>
      <path id="Trazado_162071" data-name="Trazado 162071" d="M45.382,222.73a1.315,1.315,0,0,0,.226.02,1.276,1.276,0,0,0,1.253-1.05c0-.019.006-.037.009-.056a1.275,1.275,0,1,0-1.488,1.086Zm0,0" transform="translate(-36.799 -182.771)"/>
      <path id="Trazado_162072" data-name="Trazado 162072" d="M403.15,143.766a1.274,1.274,0,0,0,2.1-1.447l-1.059.709,1.055-.715a1.275,1.275,0,0,0-2.11,1.43Zm0,0" transform="translate(-334.453 -117.668)"/>
      <path id="Trazado_162073" data-name="Trazado 162073" d="M437.072,229.031a1.274,1.274,0,0,0-1.124,1.409l.007.055a1.275,1.275,0,0,0,1.26,1.094,1.3,1.3,0,0,0,.182-.013,1.283,1.283,0,0,0-.325-2.545Zm0,0" transform="translate(-361.867 -190.108)"/>
      <path id="Trazado_162074" data-name="Trazado 162074" d="M429.691,199.92l.005.017a1.274,1.274,0,0,0,1.222.915,1.255,1.255,0,0,0,.36-.052,1.274,1.274,0,0,0,.864-1.582l-.005-.017a1.274,1.274,0,1,0-2.445.719Zm0,0" transform="translate(-356.637 -164.594)"/>
      <path id="Trazado_162075" data-name="Trazado 162075" d="M418.671,170.81a1.281,1.281,0,0,0,1.15.715,1.273,1.273,0,0,0,1.141-1.833l-1.155.538,1.154-.541a1.274,1.274,0,0,0-2.308,1.082Zm0,0" transform="translate(-347.417 -140.249)"/>
      <path id="Trazado_162076" data-name="Trazado 162076" d="M383.571,119.53a1.284,1.284,0,1,0-.038-.04Zm0,0" transform="translate(-318.084 -97.411)"/>
      <path id="Trazado_162077" data-name="Trazado 162077" d="M438.629,260.385a1.282,1.282,0,0,0-.109,2.562l.072,0a1.275,1.275,0,0,0,1.271-1.2l0-.052A1.272,1.272,0,0,0,438.629,260.385Zm0,0" transform="translate(-363.01 -216.141)"/>
      <path id="Trazado_162078" data-name="Trazado 162078" d="M334.215,81.662l.031.017a1.269,1.269,0,0,0,1.716-.524,1.278,1.278,0,0,0-.518-1.725l-.617,1.115.613-1.118a1.274,1.274,0,1,0-1.225,2.235Zm0,0" transform="translate(-276.877 -65.801)"/>
      <path id="Trazado_162079" data-name="Trazado 162079" d="M360.381,98.631l.02.015a1.275,1.275,0,0,0,1.541-2.031l-.009-.006a1.274,1.274,0,1,0-1.552,2.022Zm0,0" transform="translate(-298.733 -79.975)"/>
      <path id="Trazado_162080" data-name="Trazado 162080" d="M86.21,63.536l-5.982-5.993a2.691,2.691,0,0,0-3.81,0l-.139.139-.393-.393A5.143,5.143,0,0,1,74.77,55.62a1.242,1.242,0,0,0-.091-.236,5.153,5.153,0,0,1-.3-1.731v-1.7a1.283,1.283,0,1,0-.008-2.265A7.185,7.185,0,0,0,72.268,44.9l-5.8-5.814A6.886,6.886,0,0,0,57.66,38.3l-.616-.619V23.1a7.236,7.236,0,0,0-1.8-4.772,5.143,5.143,0,0,1-1.277-3.394V13.867h.088a2.7,2.7,0,0,0,2.694-2.695V2.695A2.7,2.7,0,0,0,54.059,0h-23.8A2.7,2.7,0,0,0,27.56,2.695v8.477a2.7,2.7,0,0,0,2.694,2.695h.2v.559a5.113,5.113,0,0,1-1.5,3.637l-2.569,2.574a7.19,7.19,0,0,0-2.114,5.113V33.97A6.871,6.871,0,0,0,25,37.077a6.843,6.843,0,0,0-4.472,2.01l-5.8,5.814a7.191,7.191,0,0,0-2.114,5.113v3.64a5.112,5.112,0,0,1-1.5,3.637l-.388.389,0,0-.138-.139a2.691,2.691,0,0,0-3.81,0L.787,63.536a2.7,2.7,0,0,0,0,3.811L2.835,69.4a1.274,1.274,0,1,0,1.8-1.8L2.591,65.546a.148.148,0,0,1,0-.209l5.983-5.993a.143.143,0,0,1,.2,0l1.04,1.042h0l14.2,14.226,1.591,1.594a.148.148,0,0,1,0,.209l-5.982,5.993a.143.143,0,0,1-.2,0L8.247,71.212a1.274,1.274,0,1,0-1.8,1.8l11.178,11.2a2.691,2.691,0,0,0,3.81,0l5.982-5.993a2.7,2.7,0,0,0,0-3.81l-.065-.065.755-.756a5.121,5.121,0,0,1,3.3-1.495,7.211,7.211,0,0,0,4.64-2.1l5.5-5.508a4.363,4.363,0,0,0,3.154-3.324A4.345,4.345,0,0,0,50.9,57.223V54.2a4.343,4.343,0,0,0,6.144-3.961V41.29l3.92,3.939a1.274,1.274,0,0,0,1.807-1.8L59.5,40.147a4.34,4.34,0,0,1,5.159.741l5.8,5.813a4.659,4.659,0,0,1,1.369,3.312v3.64a7.646,7.646,0,0,0,2.248,5.437l.4.4-1.848,1.852-11.18,11.2-.623-.625-.019-.019-.11-.11a7.673,7.673,0,0,0-4.935-2.237,4.673,4.673,0,0,1-3.005-1.364l-4.187-4.165a1.274,1.274,0,1,0-1.8,1.807l4.185,4.162a7.211,7.211,0,0,0,4.641,2.1,5.123,5.123,0,0,1,3.3,1.494l.062.062a1.226,1.226,0,0,0,.106.106l.587.588-.065.066a2.7,2.7,0,0,0,0,3.81l5.982,5.993a2.692,2.692,0,0,0,3.811,0L86.21,67.347A2.7,2.7,0,0,0,86.21,63.536ZM75.237,50.864l-.024,0-.232-.047Zm-41,17.321a4.664,4.664,0,0,1-3,1.361A7.673,7.673,0,0,0,26.3,71.784l-.752.753-.677-.678-.026-.026L12.519,59.486l.4-.4a7.646,7.646,0,0,0,2.248-5.437v-3.64A4.656,4.656,0,0,1,16.532,46.7l5.8-5.813a4.339,4.339,0,0,1,5.166-.737L24.228,43.43a1.274,1.274,0,0,0,1.8,1.8l3.91-3.917v15.91a4.345,4.345,0,0,0,6.233,3.921,4.367,4.367,0,0,0,2.16,2.934ZM54.495,50.236a1.8,1.8,0,1,1-3.6,0V36.021a1.274,1.274,0,1,0-2.549,0v21.2a1.8,1.8,0,0,1-3.57.3V36.007a1.288,1.288,0,0,0-2.575.015v21.2a4.37,4.37,0,0,0,.027.478v2.568a1.8,1.8,0,1,1-3.6,0V35.991a1.275,1.275,0,0,0-2.549,0V57.223a1.8,1.8,0,1,1-3.6,0V33.518a1.274,1.274,0,1,0-2.549,0V37.9a1.251,1.251,0,0,0-.307.147,4.361,4.361,0,0,1-2.824-4.079V25.749a4.659,4.659,0,0,1,1.369-3.312l2.569-2.574A7.644,7.644,0,0,0,33,14.426v-.559h2.562a1.274,1.274,0,0,0,0-2.549H30.254a.146.146,0,0,1-.145-.146V2.695a.146.146,0,0,1,.145-.146h23.8a.146.146,0,0,1,.146.146v8.477a.146.146,0,0,1-.146.146H41.544a1.274,1.274,0,1,0,0,2.549h9.878v1.068a7.7,7.7,0,0,0,1.909,5.076A4.685,4.685,0,0,1,54.495,23.1Zm29.911,15.31L67.572,82.409a.136.136,0,0,1-.1.042.138.138,0,0,1-.1-.042l-5.982-5.993a.148.148,0,0,1,0-.209l.963-.965h0l9.772-9.789,6.1-6.108a.142.142,0,0,1,.2,0l5.983,5.993A.148.148,0,0,1,84.406,65.546Zm0,0"/>
      <path id="Trazado_162081" data-name="Trazado 162081" d="M195.173,32.8a1.359,1.359,0,1,0,1.357,1.359A1.36,1.36,0,0,0,195.173,32.8Zm0,0" transform="translate(-160.884 -27.231)"/>
      <path id="Trazado_162082" data-name="Trazado 162082" d="M456.771,374.688a1.359,1.359,0,1,0,1.357,1.359A1.36,1.36,0,0,0,456.771,374.688Zm0,0" transform="translate(-378.032 -311.022)"/>
      <path id="Trazado_162083" data-name="Trazado 162083" d="M111.726,444.562a1.357,1.357,0,1,0-1.357,1.359A1.36,1.36,0,0,0,111.726,444.562Zm0,0" transform="translate(-90.489 -367.896)"/>
    </g>
  </g>
</svg>
