<svg xmlns="http://www.w3.org/2000/svg" width="133" height="133" viewBox="0 0 133 133">
  <g id="Grupo_112821" data-name="Grupo 112821" transform="translate(-908.757 -138.457)">
    <g id="Elipse_5376" data-name="Elipse 5376" transform="translate(908.757 138.457)" fill="#fff" stroke="#77b43a" stroke-width="4">
      <circle cx="66.5" cy="66.5" r="66.5" stroke="none"/>
      <circle cx="66.5" cy="66.5" r="64.5" fill="none"/>
    </g>
    <g id="roles" transform="translate(931 160.457)">
      <path id="Trazado_162016" data-name="Trazado 162016" d="M57.667,27.083v-8.5H55.335a1.434,1.434,0,0,1-1.354-1.017,16.815,16.815,0,0,0-1-2.427,1.436,1.436,0,0,1,.239-1.677l1.648-1.648L48.852,5.8,47.2,7.451a1.436,1.436,0,0,1-1.677.239,16.881,16.881,0,0,0-2.427-1,1.434,1.434,0,0,1-1.017-1.354V3h-8.5V5.332a1.434,1.434,0,0,1-1.017,1.354,16.815,16.815,0,0,0-2.427,1,1.436,1.436,0,0,1-1.677-.239L26.814,5.8,20.8,11.814l1.648,1.648a1.436,1.436,0,0,1,.239,1.677,16.882,16.882,0,0,0-1,2.427,1.434,1.434,0,0,1-1.354,1.017H18v8.5h2.332A1.434,1.434,0,0,1,21.686,28.1a16.815,16.815,0,0,0,1,2.427,1.436,1.436,0,0,1-.239,1.677L20.8,33.852l6.011,6.011,1.648-1.648a1.436,1.436,0,0,1,1.677-.239,16.881,16.881,0,0,0,2.427,1,1.434,1.434,0,0,1,1.017,1.354v2.332h8.5V40.335A1.434,1.434,0,0,1,43.1,38.98a16.815,16.815,0,0,0,2.427-1,1.436,1.436,0,0,1,1.677.239l1.648,1.648,6.011-6.011L53.215,32.2a1.436,1.436,0,0,1-.239-1.677,16.882,16.882,0,0,0,1-2.427,1.434,1.434,0,0,1,1.354-1.017Z" transform="translate(6.667 0.417)" fill="#f85316"/>
      <circle id="Elipse_5483" data-name="Elipse 5483" cx="11.333" cy="11.333" r="11.333" transform="translate(33.167 11.917)" fill="#e1ebef"/>
      <path id="Trazado_162017" data-name="Trazado 162017" d="M30,13V24.333l8.5-5.667Z" transform="translate(11.667 4.583)" fill="#f9435e"/>
      <path id="Trazado_162018" data-name="Trazado 162018" d="M66.833,65.167H47v-4.25a9.917,9.917,0,0,1,19.833,0Z" transform="translate(18.75 20.417)" fill="#b4e7fe"/>
      <path id="Trazado_162019" data-name="Trazado 162019" d="M62.838,52.4A22.68,22.68,0,0,1,47,64.173v.412H66.833v-4.25A9.888,9.888,0,0,0,62.838,52.4Z" transform="translate(18.75 20.998)" fill="#acdcf2"/>
      <circle id="Elipse_5484" data-name="Elipse 5484" cx="5.667" cy="5.667" r="5.667" transform="translate(70 60.083)" fill="#fee2c5"/>
      <path id="Trazado_162020" data-name="Trazado 162020" d="M44.833,65.167H25v-4.25a9.917,9.917,0,0,1,19.833,0Z" transform="translate(9.583 20.417)" fill="#b4e7fe"/>
      <path id="Trazado_162021" data-name="Trazado 162021" d="M40.838,52.4A22.68,22.68,0,0,1,25,64.173v.412H44.833v-4.25A9.888,9.888,0,0,0,40.838,52.4Z" transform="translate(9.583 20.998)" fill="#acdcf2"/>
      <circle id="Elipse_5485" data-name="Elipse 5485" cx="5.667" cy="5.667" r="5.667" transform="translate(38.833 60.083)" fill="#fee2c5"/>
      <path id="Trazado_162022" data-name="Trazado 162022" d="M22.833,65.167H3v-4.25a9.917,9.917,0,0,1,19.833,0Z" transform="translate(0.417 20.417)" fill="#b4e7fe"/>
      <path id="Trazado_162023" data-name="Trazado 162023" d="M18.838,52.4A22.68,22.68,0,0,1,3,64.173v.412H22.833v-4.25A9.888,9.888,0,0,0,18.838,52.4Z" transform="translate(0.417 20.998)" fill="#acdcf2"/>
      <circle id="Elipse_5486" data-name="Elipse 5486" cx="5.667" cy="5.667" r="5.667" transform="translate(7.667 60.083)" fill="#fee2c5"/>
      <path id="Trazado_162024" data-name="Trazado 162024" d="M62.015,54.358a7.083,7.083,0,1,0-9.364,0A11.34,11.34,0,0,0,46,64.667v4.25a1.416,1.416,0,0,0,1.417,1.417H67.25a1.416,1.416,0,0,0,1.417-1.417v-4.25A11.34,11.34,0,0,0,62.015,54.358Zm-4.682-9.524a4.25,4.25,0,1,1-4.25,4.25A4.255,4.255,0,0,1,57.333,44.833Zm8.5,22.667h-17V64.667a8.5,8.5,0,0,1,17,0Z" transform="translate(18.333 16.667)"/>
      <path id="Trazado_162025" data-name="Trazado 162025" d="M3.417,70.333H23.25a1.416,1.416,0,0,0,1.417-1.417v-4.25a11.34,11.34,0,0,0-6.651-10.309,7.083,7.083,0,1,0-9.364,0A11.34,11.34,0,0,0,2,64.667v4.25A1.416,1.416,0,0,0,3.417,70.333Zm9.917-25.5a4.25,4.25,0,1,1-4.25,4.25A4.255,4.255,0,0,1,13.333,44.833Zm-8.5,19.833a8.5,8.5,0,1,1,17,0V67.5h-17Z" transform="translate(0 16.667)"/>
      <path id="Trazado_162026" data-name="Trazado 162026" d="M24,64.667v4.25a1.416,1.416,0,0,0,1.417,1.417H45.25a1.416,1.416,0,0,0,1.417-1.417v-4.25a11.34,11.34,0,0,0-6.651-10.309,7.083,7.083,0,1,0-9.364,0A11.34,11.34,0,0,0,24,64.667ZM35.333,44.833a4.25,4.25,0,1,1-4.25,4.25A4.255,4.255,0,0,1,35.333,44.833Zm-8.5,19.833a8.5,8.5,0,0,1,17,0V67.5h-17Z" transform="translate(9.167 16.667)"/>
      <path id="Trazado_162027" data-name="Trazado 162027" d="M35.75,8A12.75,12.75,0,1,0,48.5,20.75,12.765,12.765,0,0,0,35.75,8Zm0,22.667a9.917,9.917,0,1,1,9.917-9.917A9.928,9.928,0,0,1,35.75,30.667Z" transform="translate(8.75 2.5)"/>
      <path id="Trazado_162028" data-name="Trazado 162028" d="M58.083,28.917A1.416,1.416,0,0,0,59.5,27.5V19a1.416,1.416,0,0,0-1.417-1.417l-2.339-.038a18.108,18.108,0,0,0-1.111-2.665l1.649-1.648a1.416,1.416,0,0,0,0-2L50.272,5.22a1.415,1.415,0,0,0-2,0l-1.68,1.626a17.724,17.724,0,0,0-2.672-1.1V3.417A1.416,1.416,0,0,0,42.5,2H34a1.416,1.416,0,0,0-1.417,1.417l-.037,2.339A17.909,17.909,0,0,0,29.88,6.866L28.233,5.219a1.415,1.415,0,0,0-2,0l-6.011,6.01a1.416,1.416,0,0,0,0,2l1.626,1.682a18,18,0,0,0-1.1,2.67H18.417A1.416,1.416,0,0,0,17,19v8.5a1.416,1.416,0,0,0,1.417,1.417l2.339.038a17.981,17.981,0,0,0,1.111,2.665l-1.649,1.648a1.416,1.416,0,0,0,0,2l6.011,6.01a1.415,1.415,0,0,0,2,0l1.68-1.626a17.7,17.7,0,0,0,2.67,1.1v2.333A1.416,1.416,0,0,0,34,44.5h8.5a1.416,1.416,0,0,0,1.417-1.417l.037-2.339a17.831,17.831,0,0,0,2.665-1.111l1.649,1.648a1.415,1.415,0,0,0,2,0l6.011-6.009a1.416,1.416,0,0,0,0-2l-1.626-1.683a17.651,17.651,0,0,0,1.1-2.669Zm-5.035-.839a15.635,15.635,0,0,1-.919,2.224,2.852,2.852,0,0,0,.5,3.321l.646.646L49.27,38.275l-.647-.646a2.845,2.845,0,0,0-3.322-.5,15.273,15.273,0,0,1-2.224.919,2.855,2.855,0,0,0-1.993,2.7v.915H35.417v-.915a2.852,2.852,0,0,0-2-2.7,15.593,15.593,0,0,1-2.221-.918,2.841,2.841,0,0,0-3.321.5l-.647.646-4.006-4.006.646-.646a2.856,2.856,0,0,0,.5-3.322,15.549,15.549,0,0,1-.919-2.223,2.853,2.853,0,0,0-2.7-2h-.915V20.417h.915a2.854,2.854,0,0,0,2.7-1.995,15.7,15.7,0,0,1,.919-2.224,2.85,2.85,0,0,0-.5-3.321l-.646-.646,4.006-4.006.646.646a2.849,2.849,0,0,0,3.322.5,15.273,15.273,0,0,1,2.224-.919,2.855,2.855,0,0,0,1.993-2.7V4.833h5.667v.915a2.852,2.852,0,0,0,2,2.7,15.593,15.593,0,0,1,2.221.918,2.848,2.848,0,0,0,3.322-.5l.646-.646,4.006,4.006-.646.649a2.852,2.852,0,0,0-.5,3.321,15.377,15.377,0,0,1,.919,2.224,2.857,2.857,0,0,0,2.7,1.995h.915v5.667h-.915a2.854,2.854,0,0,0-2.7,1.995Z" transform="translate(6.25 0)"/>
      <path id="Trazado_162029" data-name="Trazado 162029" d="M39.7,17.9l-8.5-5.667A1.417,1.417,0,0,0,29,13.417V24.75a1.417,1.417,0,0,0,2.2,1.179l8.5-5.667a1.417,1.417,0,0,0,0-2.357Zm-7.87,4.2V16.063l4.529,3.02Z" transform="translate(11.25 4.167)"/>
      <path id="Trazado_162030" data-name="Trazado 162030" d="M31,38h2.833v2.833H31Z" transform="translate(12.083 15)"/>
      <path id="Trazado_162031" data-name="Trazado 162031" d="M31,34h2.833v2.833H31Z" transform="translate(12.083 13.333)"/>
      <path id="Trazado_162032" data-name="Trazado 162032" d="M13,16h2.833v2.833H13Z" transform="translate(4.583 5.833)"/>
      <path id="Trazado_162033" data-name="Trazado 162033" d="M9,16h2.833v2.833H9Z" transform="translate(2.917 5.833)"/>
      <path id="Trazado_162034" data-name="Trazado 162034" d="M9,20h2.833v2.833H9Z" transform="translate(2.917 7.5)"/>
      <path id="Trazado_162035" data-name="Trazado 162035" d="M9,24h2.833v2.833H9Z" transform="translate(2.917 9.167)"/>
      <path id="Trazado_162036" data-name="Trazado 162036" d="M9,28h2.833v2.833H9Z" transform="translate(2.917 10.833)"/>
      <path id="Trazado_162037" data-name="Trazado 162037" d="M9,32h2.833v2.833H9Z" transform="translate(2.917 12.5)"/>
      <path id="Trazado_162038" data-name="Trazado 162038" d="M9,36h2.833v2.833H9Z" transform="translate(2.917 14.167)"/>
      <path id="Trazado_162039" data-name="Trazado 162039" d="M49,16h2.833v2.833H49Z" transform="translate(19.583 5.833)"/>
      <path id="Trazado_162040" data-name="Trazado 162040" d="M53,16h2.833v2.833H53Z" transform="translate(21.25 5.833)"/>
      <path id="Trazado_162041" data-name="Trazado 162041" d="M53,20h2.833v2.833H53Z" transform="translate(21.25 7.5)"/>
      <path id="Trazado_162042" data-name="Trazado 162042" d="M53,24h2.833v2.833H53Z" transform="translate(21.25 9.167)"/>
      <path id="Trazado_162043" data-name="Trazado 162043" d="M53,28h2.833v2.833H53Z" transform="translate(21.25 10.833)"/>
      <path id="Trazado_162044" data-name="Trazado 162044" d="M53,32h2.833v2.833H53Z" transform="translate(21.25 12.5)"/>
      <path id="Trazado_162045" data-name="Trazado 162045" d="M53,36h2.833v2.833H53Z" transform="translate(21.25 14.167)"/>
    </g>
  </g>
</svg>
