<svg xmlns="http://www.w3.org/2000/svg" width="133" height="133" viewBox="0 0 133 133">
  <g id="Grupo_112849" data-name="Grupo 112849" transform="translate(-734 -2192)">
    <g id="Elipse_5488" data-name="Elipse 5488" transform="translate(734 2192)" fill="#fff" stroke="#3e4bbf" stroke-width="4">
      <circle cx="66.5" cy="66.5" r="66.5" stroke="none"/>
      <circle cx="66.5" cy="66.5" r="64.5" fill="none"/>
    </g>
    <g id="filled_outline" data-name="filled outline" transform="translate(758 2217)">
      <path id="Trazado_162114" data-name="Trazado 162114" d="M67,75a5.333,5.333,0,0,1-5.333,5.333H11v-72A5.333,5.333,0,0,1,16.333,3h56A5.333,5.333,0,0,0,67,8.333Z" transform="translate(3 0.333)" fill="#87ced9"/>
      <path id="Trazado_162115" data-name="Trazado 162115" d="M58.333,3h0a5.333,5.333,0,0,1,5.333,5.333V11H53V8.333A5.333,5.333,0,0,1,58.333,3Z" transform="translate(17 0.333)" fill="#e8594a"/>
      <path id="Trazado_162116" data-name="Trazado 162116" d="M59.18,44.929a72.543,72.543,0,0,0-17.513-.116h0c-2.236.255-4.461.6-6.667,1.067V47L24.333,43l-8.951,6.4L15,49.667l9.333,6.667,10.667-4v1.119c1.333.279,2.667.507,4,.709h0c.887.133,1.775.256,2.667.357h0A72.543,72.543,0,0,0,59.18,54.4l6.487-.836v-7.8Z" transform="translate(4.333 13.667)" fill="#73bec9"/>
      <path id="Trazado_162117" data-name="Trazado 162117" d="M3,55H59v2.667A5.333,5.333,0,0,0,64.333,63h-56A5.333,5.333,0,0,1,3,57.667Z" transform="translate(0.333 17.667)" fill="#e8594a"/>
      <path id="Trazado_162118" data-name="Trazado 162118" d="M23,12v4.267a16,16,0,0,0,9.5,14.62L35,32l2.5-1.111A16,16,0,0,0,47,16.267V12h0A20,20,0,0,1,35,8h0a20,20,0,0,1-12,4Z" transform="translate(7 2)" fill="#4398d1"/>
      <rect id="Rectángulo_41065" data-name="Rectángulo 41065" width="2.667" height="2.667" transform="translate(40.667 15.333)" fill="#5ea9db"/>
      <rect id="Rectángulo_41066" data-name="Rectángulo 41066" width="2.667" height="2.667" transform="translate(44.667 24.667)" fill="#5ea9db"/>
      <rect id="Rectángulo_41067" data-name="Rectángulo 41067" width="2.667" height="2.667" transform="translate(34 18)" fill="#5ea9db"/>
      <rect id="Rectángulo_41068" data-name="Rectángulo 41068" width="2.667" height="2.667" transform="translate(47.333 18)" fill="#5ea9db"/>
      <rect id="Rectángulo_41069" data-name="Rectángulo 41069" width="2.667" height="2.667" transform="translate(36.667 24.667)" fill="#5ea9db"/>
      <rect id="Rectángulo_41070" data-name="Rectángulo 41070" width="40" height="2.667" transform="translate(22 39.333)" fill="#73bec9"/>
      <rect id="Rectángulo_41071" data-name="Rectángulo 41071" width="14.667" height="2.667" transform="translate(22 46)" fill="#73bec9"/>
      <rect id="Rectángulo_41072" data-name="Rectángulo 41072" width="22.667" height="2.667" transform="translate(39.333 46)" fill="#73bec9"/>
      <rect id="Rectángulo_41073" data-name="Rectángulo 41073" width="9.333" height="2.667" transform="translate(22 32.667)" fill="#73bec9"/>
      <rect id="Rectángulo_41074" data-name="Rectángulo 41074" width="9.333" height="2.667" transform="translate(52.667 32.667)" fill="#73bec9"/>
      <path id="Trazado_162119" data-name="Trazado 162119" d="M71.333,49.857,54.18,52.071A72.485,72.485,0,0,1,30,51.119h0V43.548h0A72.485,72.485,0,0,1,54.18,42.6l17.153,2.213Z" transform="translate(9.333 13.333)" fill="#7a3e1a"/>
      <path id="Trazado_162120" data-name="Trazado 162120" d="M53.2,47.086A81.542,81.542,0,0,1,30,46.737V50.2a72.485,72.485,0,0,0,24.18.952l17.153-2.212v-4.2Z" transform="translate(9.333 14.247)" fill="#703918"/>
      <path id="Trazado_162121" data-name="Trazado 162121" d="M35,45,24.333,41,15,47.667l9.333,6.667,10.667-4Z" transform="translate(4.333 13)" fill="#fdbb3d"/>
      <path id="Trazado_162122" data-name="Trazado 162122" d="M15.383,45.841,15,46.108l9.333,6.667,10.667-4v-3.1a139.027,139.027,0,0,1-19.617.165Z" transform="translate(4.333 14.559)" fill="#fdaf33"/>
      <path id="Trazado_162123" data-name="Trazado 162123" d="M22.667,49.333a2.667,2.667,0,1,1,2.667-2.667A2.667,2.667,0,0,1,22.667,49.333Zm0-2.667Z" transform="translate(6 14)" fill="#f58616"/>
      <path id="Trazado_162124" data-name="Trazado 162124" d="M24.333,45H16.867L15,46.333l1.867,1.333h7.467Z" transform="translate(4.333 14.333)" fill="#f58616"/>
      <path id="Trazado_162125" data-name="Trazado 162125" d="M33,42.719v8.989c.887.133,1.776.257,2.667.359V42.36C34.776,42.461,33.887,42.583,33,42.719Z" transform="translate(10.333 13.453)" fill="#d6d6d4"/>
      <path id="Trazado_162126" data-name="Trazado 162126" d="M75.333,2h-56a6.675,6.675,0,0,0-6.667,6.667V71.333H3.333A1.333,1.333,0,0,0,2,72.667v2.667A6.675,6.675,0,0,0,8.667,82h56a6.675,6.675,0,0,0,6.667-6.667v-9.6l9.5-1.227A1.333,1.333,0,0,0,82,63.191V58.143a1.333,1.333,0,0,0-1.163-1.321l-9.5-1.221V12.667h9.333A1.333,1.333,0,0,0,82,11.333V8.667A6.675,6.675,0,0,0,75.333,2ZM14,79.333H8.667a4,4,0,0,1-4-4V74H58v1.333a6.631,6.631,0,0,0,1.333,4Zm54.667-4a4,4,0,0,1-8,0V72.667a1.333,1.333,0,0,0-1.333-1.333h-44V8.667a4,4,0,0,1,4-4H70c-.04.052-.068.112-.105.165-.076.108-.143.221-.212.335a6.765,6.765,0,0,0-.384.7c-.06.133-.116.257-.168.389a6.741,6.741,0,0,0-.248.8c-.031.125-.069.245-.093.373a6.619,6.619,0,0,0-.123,1.233V55.251l-4.983-.643a73.515,73.515,0,0,0-24.625.969,1.316,1.316,0,0,0-.829.584l-9.093-3.411a1.348,1.348,0,0,0-1.244.164l-9.333,6.667a1.333,1.333,0,0,0,0,2.171l9.333,6.667a1.333,1.333,0,0,0,.775.248,1.368,1.368,0,0,0,.469-.084l9.093-3.411a1.316,1.316,0,0,0,.829.584,73.61,73.61,0,0,0,15.157,1.577,73.737,73.737,0,0,0,9.462-.61l4.989-.641ZM43.333,57.508v6.317c-.891-.133-1.78-.291-2.667-.464V57.972Q42,57.715,43.333,57.508ZM28.667,58a2.657,2.657,0,0,0-2.3,1.333H23.495L28.863,55.5,38,58.924v3.485l-9.137,3.425L23.495,62h2.876a2.667,2.667,0,1,0,2.3-4Zm50.667,1.316v2.7L63.343,64.081a70.947,70.947,0,0,1-17.343.1V57.148a70.947,70.947,0,0,1,17.343.1Zm0-49.316h-8V8.667a4,4,0,0,1,8,0Z"/>
      <path id="Trazado_162127" data-name="Trazado 162127" d="M32.293,32.443l2.5,1.109a1.333,1.333,0,0,0,1.083,0l2.5-1.111A17.348,17.348,0,0,0,48.667,16.6V12.333A1.333,1.333,0,0,0,47.333,11a18.792,18.792,0,0,1-11.2-3.733,1.333,1.333,0,0,0-1.6,0A18.792,18.792,0,0,1,23.333,11,1.333,1.333,0,0,0,22,12.333V16.6A17.351,17.351,0,0,0,32.293,32.443ZM24.667,13.624A21.507,21.507,0,0,0,35.333,9.971,21.507,21.507,0,0,0,46,13.624V16.6A14.677,14.677,0,0,1,37.291,30l-1.957.873-1.957-.869A14.681,14.681,0,0,1,24.667,16.6Z" transform="translate(6.667 1.667)"/>
      <rect id="Rectángulo_41075" data-name="Rectángulo 41075" width="2.667" height="2.667" transform="translate(40.667 15.333)"/>
      <rect id="Rectángulo_41076" data-name="Rectángulo 41076" width="2.667" height="2.667" transform="translate(44.667 24.667)"/>
      <rect id="Rectángulo_41077" data-name="Rectángulo 41077" width="2.667" height="2.667" transform="translate(34 18)"/>
      <rect id="Rectángulo_41078" data-name="Rectángulo 41078" width="2.667" height="2.667" transform="translate(47.333 18)"/>
      <rect id="Rectángulo_41079" data-name="Rectángulo 41079" width="2.667" height="2.667" transform="translate(36.667 24.667)"/>
      <rect id="Rectángulo_41080" data-name="Rectángulo 41080" width="40" height="2.667" transform="translate(22 39.333)"/>
      <rect id="Rectángulo_41081" data-name="Rectángulo 41081" width="14.667" height="2.667" transform="translate(22 46)"/>
      <rect id="Rectángulo_41082" data-name="Rectángulo 41082" width="22.667" height="2.667" transform="translate(39.333 46)"/>
      <rect id="Rectángulo_41083" data-name="Rectángulo 41083" width="9.333" height="2.667" transform="translate(22 32.667)"/>
      <rect id="Rectángulo_41084" data-name="Rectángulo 41084" width="9.333" height="2.667" transform="translate(52.667 32.667)"/>
    </g>
  </g>
</svg>
