<svg xmlns="http://www.w3.org/2000/svg" xmlns:xlink="http://www.w3.org/1999/xlink" width="133" height="133" viewBox="0 0 133 133">
  <defs>
    <clipPath id="clip-path">
      <path id="path6012" d="M0-682.665H85v85H0Z" transform="translate(0 682.665)"/>
    </clipPath>
  </defs>
  <g id="Grupo_112807" data-name="Grupo 112807" transform="translate(-1095 -1668)">
    <g id="Trazado_160183" data-name="Trazado 160183" transform="translate(1095 1668)" fill="#fff">
      <path d="M 66.5 131 C 57.79167175292969 131 49.34490966796875 129.2949066162109 41.39430999755859 125.9320907592773 C 37.57285308837891 124.3157424926758 33.88689041137695 122.315055847168 30.4388370513916 119.9856033325195 C 27.02301788330078 117.6779098510742 23.81087303161621 115.0276336669922 20.8916187286377 112.1083831787109 C 17.97236442565918 109.1891250610352 15.3220911026001 105.9769821166992 13.01439952850342 102.561164855957 C 10.68494510650635 99.11310577392578 8.68425464630127 95.42714691162109 7.067909240722656 91.60569000244141 C 3.705090999603271 83.65509033203125 2 75.20832824707031 2 66.5 C 2 57.79167175292969 3.705090999603271 49.34490966796875 7.067909240722656 41.39430999755859 C 8.68425464630127 37.57285308837891 10.68494510650635 33.88689041137695 13.01439952850342 30.4388370513916 C 15.3220911026001 27.02301788330078 17.97236442565918 23.81087303161621 20.8916187286377 20.8916187286377 C 23.81087303161621 17.97236442565918 27.02301788330078 15.3220911026001 30.4388370513916 13.01439952850342 C 33.88689041137695 10.68494510650635 37.57285308837891 8.68425464630127 41.39430999755859 7.067909240722656 C 49.34490966796875 3.705090999603271 57.79167175292969 2 66.5 2 C 75.20832824707031 2 83.65509033203125 3.705090999603271 91.60569000244141 7.067909240722656 C 95.42714691162109 8.68425464630127 99.11310577392578 10.68494510650635 102.561164855957 13.01439952850342 C 105.9769821166992 15.3220911026001 109.1891250610352 17.97236442565918 112.1083831787109 20.8916187286377 C 115.0276336669922 23.81087303161621 117.6779098510742 27.02301788330078 119.9856033325195 30.4388370513916 C 122.315055847168 33.88689041137695 124.3157424926758 37.57285308837891 125.9320907592773 41.39430999755859 C 129.2949066162109 49.34490966796875 131 57.79167175292969 131 66.5 C 131 75.20832824707031 129.2949066162109 83.65509033203125 125.9320907592773 91.60569000244141 C 124.3157424926758 95.42714691162109 122.315055847168 99.11310577392578 119.9856033325195 102.561164855957 C 117.6779098510742 105.9769821166992 115.0276336669922 109.1891250610352 112.1083831787109 112.1083831787109 C 109.1891250610352 115.0276336669922 105.9769821166992 117.6779098510742 102.561164855957 119.9856033325195 C 99.11310577392578 122.315055847168 95.42714691162109 124.3157424926758 91.60569000244141 125.9320907592773 C 83.65509033203125 129.2949066162109 75.20832824707031 131 66.5 131 Z" stroke="none"/>
      <path d="M 66.5 4 C 58.06079864501953 4 49.87613677978516 5.651939392089844 42.17342376708984 8.909919738769531 C 38.47090148925781 10.47595977783203 34.89949798583984 12.41448211669922 31.55845642089844 14.67166137695312 C 28.24812316894531 16.9080810546875 25.13507843017578 19.47657775878906 22.30583953857422 22.30583953857422 C 19.47657775878906 25.13507843017578 16.9080810546875 28.24812316894531 14.67166137695312 31.55845642089844 C 12.41448211669922 34.89949798583984 10.47595977783203 38.47090148925781 8.909919738769531 42.17342376708984 C 5.651939392089844 49.87613677978516 4 58.06079864501953 4 66.5 C 4 74.93920135498047 5.651939392089844 83.12385559082031 8.909919738769531 90.82658386230469 C 10.47595977783203 94.52909851074219 12.41448211669922 98.10049438476562 14.67166137695312 101.4415435791016 C 16.9080810546875 104.7518768310547 19.47657775878906 107.8649215698242 22.30583953857422 110.6941604614258 C 25.13507843017578 113.5234222412109 28.24812316894531 116.0919189453125 31.55845642089844 118.3283386230469 C 34.89949798583984 120.5855178833008 38.47090148925781 122.524040222168 42.17342376708984 124.0900802612305 C 49.87613677978516 127.3480606079102 58.06079864501953 129 66.5 129 C 74.93920135498047 129 83.12385559082031 127.3480606079102 90.82658386230469 124.0900802612305 C 94.52909851074219 122.524040222168 98.10049438476562 120.5855178833008 101.4415435791016 118.3283386230469 C 104.7518768310547 116.0919189453125 107.8649215698242 113.5234222412109 110.6941604614258 110.6941604614258 C 113.5234222412109 107.8649215698242 116.0919189453125 104.7518768310547 118.3283386230469 101.4415435791016 C 120.5855178833008 98.10049438476562 122.524040222168 94.52909851074219 124.0900802612305 90.82658386230469 C 127.3480606079102 83.12385559082031 129 74.93920135498047 129 66.5 C 129 58.06079864501953 127.3480606079102 49.87613677978516 124.0900802612305 42.17342376708984 C 122.524040222168 38.47090148925781 120.5855178833008 34.89949798583984 118.3283386230469 31.55845642089844 C 116.0919189453125 28.24812316894531 113.5234222412109 25.13507843017578 110.6941604614258 22.30583953857422 C 107.8649215698242 19.47657775878906 104.7518768310547 16.9080810546875 101.4415435791016 14.67166137695312 C 98.10049438476562 12.41448211669922 94.52909851074219 10.47595977783203 90.82658386230469 8.909919738769531 C 83.12385559082031 5.651939392089844 74.93920135498047 4 66.5 4 M 66.5 0 C 103.226921081543 0 133 29.77307891845703 133 66.5 C 133 103.226921081543 103.226921081543 133 66.5 133 C 29.77307891845703 133 0 103.226921081543 0 66.5 C 0 29.77307891845703 29.77307891845703 0 66.5 0 Z" stroke="none" fill="#77b43a"/>
    </g>
    <g id="g6006" transform="translate(1123 2374.665)">
      <g id="g6008" transform="translate(0 -682.665)">
        <g id="g6010" clip-path="url(#clip-path)">
          <g id="g6016" transform="translate(7.023 1.66)">
            <path id="path6018" d="M-322.409-506h-40.269a5.584,5.584,0,0,1-5.584-5.584v-60.8a5.583,5.583,0,0,1,5.584-5.583h40.269a5.584,5.584,0,0,1,5.584,5.583v60.8A5.584,5.584,0,0,1-322.409-506" transform="translate(368.262 577.964)" fill="#fab05f"/>
          </g>
          <g id="g6020" transform="translate(7.023 1.66)">
            <path id="path6022" d="M-322.409-506h-40.269a5.584,5.584,0,0,1-5.584-5.584v-60.8a5.583,5.583,0,0,1,5.584-5.583h40.269a5.584,5.584,0,0,1,5.584,5.583v60.8A5.584,5.584,0,0,1-322.409-506Z" transform="translate(368.262 577.964)" fill="none" stroke="#000" stroke-linecap="round" stroke-linejoin="round" stroke-miterlimit="10" stroke-width="3"/>
          </g>
          <g id="g6024" transform="translate(15.158 9.489)">
            <path id="path6026" d="M-335.132,0h-43.889A3.774,3.774,0,0,0-382.8,3.774V58.747a8.686,8.686,0,0,0,2.67,6.265l6.684,6.418a8.685,8.685,0,0,0,6.015,2.421h32.293a3.774,3.774,0,0,0,3.774-3.774V3.774A3.774,3.774,0,0,0-335.132,0" transform="translate(382.795)" fill="#ffd866"/>
          </g>
          <g id="g6028" transform="translate(15.468 70.529)">
            <path id="path6030" d="M-16.59-27.931A8.684,8.684,0,0,1-18.949-31.9H-8.588a2.67,2.67,0,0,1,2.67,2.67v9.9a8.682,8.682,0,0,1-3.988-2.18Z" transform="translate(18.949 31.904)" fill="#fab05f"/>
          </g>
          <g id="g6032" transform="translate(15.158 9.489)">
            <path id="path6034" d="M0-346.506v9.467a8.685,8.685,0,0,0,2.67,6.265l6.684,6.418a8.685,8.685,0,0,0,6.015,2.421H47.663a3.774,3.774,0,0,0,3.774-3.774v-66.3a3.774,3.774,0,0,0-3.774-3.774H3.774A3.774,3.774,0,0,0,0-392.012v32.225" transform="translate(0 395.786)" fill="none" stroke="#000" stroke-linecap="round" stroke-linejoin="round" stroke-miterlimit="10" stroke-width="3"/>
          </g>
          <g id="g6036" transform="translate(15.468 70.529)">
            <path id="path6038" d="M-16.59-27.931A8.684,8.684,0,0,1-18.949-31.9H-8.588a2.67,2.67,0,0,1,2.67,2.67v9.9a8.682,8.682,0,0,1-3.988-2.18Z" transform="translate(18.949 31.904)" fill="none" stroke="#000" stroke-linecap="round" stroke-linejoin="round" stroke-miterlimit="10" stroke-width="3"/>
          </g>
          <g id="g6040" transform="translate(25.442 40.132)">
            <path id="path6042" d="M-362.719-114.372h0c-14.246,15.087-36.39,15.087-50.637,0a3.7,3.7,0,0,1,0-4.951c14.247-15.087,36.39-15.087,50.637,0h0a3.7,3.7,0,0,1,0,4.951" transform="translate(414.305 130.638)" fill="#d6effb"/>
          </g>
          <g id="g6044" transform="translate(25.442 40.132)">
            <path id="path6046" d="M-362.719-114.372h0c-14.246,15.087-36.39,15.087-50.637,0a3.7,3.7,0,0,1,0-4.951c14.247-15.087,36.39-15.087,50.637,0h0A3.7,3.7,0,0,1-362.719-114.372Z" transform="translate(414.305 130.638)" fill="none" stroke="#000" stroke-linecap="round" stroke-linejoin="round" stroke-miterlimit="10" stroke-width="3"/>
          </g>
          <g id="g6048" transform="translate(37.919 40.132)">
            <path id="path6050" d="M-193.931-96.964a13.79,13.79,0,0,1-13.79,13.79,13.79,13.79,0,0,1-13.791-13.79,13.79,13.79,0,0,1,13.791-13.79,13.79,13.79,0,0,1,13.79,13.79" transform="translate(221.511 110.754)" fill="#00b7ec"/>
          </g>
          <g id="g6052" transform="translate(37.919 40.132)">
            <path id="path6054" d="M-193.931-96.964a13.79,13.79,0,0,1-13.79,13.79,13.79,13.79,0,0,1-13.791-13.79,13.79,13.79,0,0,1,13.791-13.79A13.79,13.79,0,0,1-193.931-96.964Z" transform="translate(221.511 110.754)" fill="none" stroke="#000" stroke-linecap="round" stroke-linejoin="round" stroke-miterlimit="10" stroke-width="3"/>
          </g>
          <g id="g6056" transform="translate(44.958 47.171)">
            <path id="path6058" d="M-94.935-47.468a6.751,6.751,0,0,1-6.751,6.751,6.751,6.751,0,0,1-6.751-6.751,6.751,6.751,0,0,1,6.751-6.751,6.751,6.751,0,0,1,6.751,6.751" transform="translate(108.437 54.219)" fill="#d6effb"/>
          </g>
          <g id="g6060" transform="translate(44.958 47.171)">
            <path id="path6062" d="M-94.935-47.468a6.751,6.751,0,0,1-6.751,6.751,6.751,6.751,0,0,1-6.751-6.751,6.751,6.751,0,0,1,6.751-6.751A6.751,6.751,0,0,1-94.935-47.468Z" transform="translate(108.437 54.219)" fill="none" stroke="#000" stroke-linecap="round" stroke-linejoin="round" stroke-miterlimit="10" stroke-width="3"/>
          </g>
          <g id="g6064" transform="translate(24.971 18.926)">
            <path id="path6066" d="M0,0H29.219" transform="translate(0 0)" fill="none" stroke="#000" stroke-linecap="round" stroke-linejoin="round" stroke-miterlimit="10" stroke-width="3"/>
          </g>
          <g id="g6068" transform="translate(24.971 28.057)">
            <path id="path6070" d="M0,0H21.125" transform="translate(0 0)" fill="none" stroke="#000" stroke-linecap="round" stroke-linejoin="round" stroke-miterlimit="10" stroke-width="3"/>
          </g>
          <g id="g6072" transform="translate(24.971 37.188)">
            <path id="path6074" d="M0,0H9.036" transform="translate(0 0)" fill="none" stroke="#000" stroke-linecap="round" stroke-linejoin="round" stroke-miterlimit="10" stroke-width="3"/>
          </g>
          <g id="g6076" transform="translate(15.158 52.129)">
            <path id="path6078" d="M0,0H0" transform="translate(0 0)" fill="none" stroke="#000" stroke-linecap="round" stroke-linejoin="round" stroke-miterlimit="10" stroke-width="3"/>
          </g>
        </g>
      </g>
    </g>
  </g>
</svg>
