<svg xmlns="http://www.w3.org/2000/svg" width="133" height="133" viewBox="0 0 133 133">
  <g id="Grupo_112845" data-name="Grupo 112845" transform="translate(-238 -2192)">
    <g id="Elipse_5376" data-name="Elipse 5376" transform="translate(238 2192)" fill="#fff" stroke="#3e4bbf" stroke-width="4">
      <circle cx="66.5" cy="66.5" r="66.5" stroke="none"/>
      <circle cx="66.5" cy="66.5" r="64.5" fill="none"/>
    </g>
    <g id="estructura" transform="translate(264 2217)">
      <g id="Grupo_112844" data-name="Grupo 112844" transform="translate(2.29 2.29)">
        <g id="Grupo_112824" data-name="Grupo 112824" transform="translate(16.774 0)">
          <circle id="Elipse_5491" data-name="Elipse 5491" cx="21.935" cy="21.935" r="21.935" transform="translate(0)" fill="#e6e9ed"/>
        </g>
        <g id="Grupo_112825" data-name="Grupo 112825" transform="translate(34.916 30.968)">
          <path id="Trazado_162084" data-name="Trazado 162084" d="M34.144,27.29l2.5,11.277a21.616,21.616,0,0,1-7.587,0l2.5-11.277-.155-.206L32.854,26,34.3,27.084Z" transform="translate(-29.06 -26)" fill="#b4dd7f"/>
        </g>
        <g id="Grupo_112826" data-name="Grupo 112826" transform="translate(40 29.006)">
          <path id="Trazado_162085" data-name="Trazado 162085" d="M36.871,30.312l-.232-5.832a10.493,10.493,0,0,1,6.684,9.794v1.742A21.387,21.387,0,0,1,35.5,39.009L33,27.732l.155-.206Z" transform="translate(-33 -24.48)" fill="#fcd770"/>
        </g>
        <g id="Grupo_112827" data-name="Grupo 112827" transform="translate(27.097 29.006)">
          <path id="Trazado_162086" data-name="Trazado 162086" d="M33.323,27.732l-2.5,11.277A21.387,21.387,0,0,1,23,36.015V34.274a10.493,10.493,0,0,1,6.684-9.794l-.232,5.832,3.716-2.787Z" transform="translate(-23 -24.48)" fill="#fcd770"/>
        </g>
        <g id="Grupo_112828" data-name="Grupo 112828" transform="translate(38.71 28.387)">
          <path id="Trazado_162087" data-name="Trazado 162087" d="M36.929,24.619l.232,5.832-3.716-2.787L32,26.581,34.581,24A9.98,9.98,0,0,1,36.929,24.619Z" transform="translate(-32 -24)" fill="#ffc729"/>
        </g>
        <g id="Grupo_112829" data-name="Grupo 112829" transform="translate(33.548 28.387)">
          <path id="Trazado_162088" data-name="Trazado 162088" d="M33.161,26.581l-1.445,1.084L28,30.452l.232-5.832A9.98,9.98,0,0,1,30.581,24Z" transform="translate(-28 -24)" fill="#ffc729"/>
        </g>
        <g id="Grupo_112830" data-name="Grupo 112830" transform="translate(29.677 5.161)">
          <path id="Trazado_162089" data-name="Trazado 162089" d="M43.065,14.465a8.534,8.534,0,0,1-.89,3.781,2.536,2.536,0,0,0-1.69-.632H37.9a3.483,3.483,0,0,1-3.484-2.142,2.865,2.865,0,0,0-2.645-1.729,2.908,2.908,0,0,0-2.9,2.9v.968h-1.29a2.536,2.536,0,0,0-1.69.632A8.462,8.462,0,0,1,33.465,6a8.284,8.284,0,0,1,6.9,3.69l.116.181a4.662,4.662,0,0,1,2.581,4.181Z" transform="translate(-25 -6)" fill="#656d78"/>
        </g>
        <g id="Grupo_112831" data-name="Grupo 112831" transform="translate(0 51.613)">
          <circle id="Elipse_5492" data-name="Elipse 5492" cx="12.903" cy="12.903" r="12.903" fill="#e6e9ed"/>
        </g>
        <g id="Grupo_112832" data-name="Grupo 112832" transform="translate(25.806 51.613)">
          <circle id="Elipse_5493" data-name="Elipse 5493" cx="12.903" cy="12.903" r="12.903" transform="translate(0)" fill="#e6e9ed"/>
        </g>
        <g id="Grupo_112833" data-name="Grupo 112833" transform="translate(51.613 51.613)">
          <circle id="Elipse_5494" data-name="Elipse 5494" cx="12.903" cy="12.903" r="12.903" fill="#e6e9ed"/>
        </g>
        <g id="Grupo_112834" data-name="Grupo 112834" transform="translate(55.058 67.097)">
          <path id="Trazado_162090" data-name="Trazado 162090" d="M63.586,60.181a12.87,12.87,0,0,1-18.916,0,10.327,10.327,0,0,1,18.916,0Z" transform="translate(-44.67 -54)" fill="#ef7385"/>
        </g>
        <g id="Grupo_112835" data-name="Grupo 112835" transform="translate(29.252 67.097)">
          <path id="Trazado_162091" data-name="Trazado 162091" d="M43.586,60.181a12.87,12.87,0,0,1-18.916,0,10.327,10.327,0,0,1,18.916,0Z" transform="translate(-24.67 -54)" fill="#b4dd7f"/>
        </g>
        <g id="Grupo_112836" data-name="Grupo 112836" transform="translate(3.445 67.097)">
          <path id="Trazado_162092" data-name="Trazado 162092" d="M23.586,60.181a12.87,12.87,0,0,1-18.916,0,10.327,10.327,0,0,1,18.916,0Z" transform="translate(-4.67 -54)" fill="#ef7385"/>
        </g>
        <g id="Grupo_112837" data-name="Grupo 112837" transform="translate(59.355 56.774)">
          <circle id="Elipse_5495" data-name="Elipse 5495" cx="5.161" cy="5.161" r="5.161" fill="#f0d0b4"/>
        </g>
        <g id="Grupo_112838" data-name="Grupo 112838" transform="translate(33.548 56.774)">
          <circle id="Elipse_5496" data-name="Elipse 5496" cx="5.161" cy="5.161" r="5.161" fill="#f0d0b4"/>
        </g>
        <g id="Grupo_112839" data-name="Grupo 112839" transform="translate(7.742 56.774)">
          <circle id="Elipse_5497" data-name="Elipse 5497" cx="5.161" cy="5.161" r="5.161" fill="#f0d0b4"/>
        </g>
        <g id="Grupo_112840" data-name="Grupo 112840" transform="translate(43.871 16.774)">
          <path id="Trazado_162093" data-name="Trazado 162093" d="M39.11,15.761a2.523,2.523,0,0,1,.761,1.819,2.588,2.588,0,0,1-2.581,2.581H36V15h1.29a2.536,2.536,0,0,1,1.69.632A1.217,1.217,0,0,0,39.11,15.761Z" transform="translate(-36 -15)" fill="#f0d0b4"/>
        </g>
        <g id="Grupo_112841" data-name="Grupo 112841" transform="translate(36.129 25.755)">
          <path id="Trazado_162094" data-name="Trazado 162094" d="M34.5,21.96l.658,2.632-2.581,2.581L30,24.592l.658-2.632a3.391,3.391,0,0,0,.632.052h2.581A3.392,3.392,0,0,0,34.5,21.96Z" transform="translate(-30 -21.96)" fill="#f0d0b4"/>
        </g>
        <g id="Grupo_112842" data-name="Grupo 112842" transform="translate(33.548 12.903)">
          <path id="Trazado_162095" data-name="Trazado 162095" d="M38.323,15.871v5.161a3.872,3.872,0,0,1-3.239,3.819,3.392,3.392,0,0,1-.632.052H31.871a3.391,3.391,0,0,1-.632-.052A3.872,3.872,0,0,1,28,21.032V14.9A2.908,2.908,0,0,1,30.9,12a2.865,2.865,0,0,1,2.645,1.729,3.483,3.483,0,0,0,3.484,2.142Z" transform="translate(-28 -12)" fill="#f0d0b4"/>
        </g>
        <g id="Grupo_112843" data-name="Grupo 112843" transform="translate(29.677 16.774)">
          <path id="Trazado_162096" data-name="Trazado 162096" d="M28.871,15v5.161h-1.29A2.6,2.6,0,0,1,25,17.581a2.6,2.6,0,0,1,.89-1.948A2.536,2.536,0,0,1,27.581,15Z" transform="translate(-25 -15)" fill="#f0d0b4"/>
        </g>
      </g>
      <path id="Trazado_162097" data-name="Trazado 162097" d="M68.1,52.679V49.074a9.041,9.041,0,0,0-6.049-8.525L58.6,39.341a23.226,23.226,0,1,0-35.195,0l-3.45,1.208A9.041,9.041,0,0,0,13.9,49.074v3.605A14.189,14.189,0,1,0,28.1,72.685a14.169,14.169,0,0,0,25.806,0A14.186,14.186,0,1,0,68.1,52.679Zm-2.581-3.605v3.605A14.208,14.208,0,0,0,53.9,60.929a14.21,14.21,0,0,0-11.613-8.25V47.387a23.1,23.1,0,0,0,14.315-6.009L61.2,42.985a6.458,6.458,0,0,1,4.32,6.089ZM34.548,22.935a1.29,1.29,0,0,1,0-2.581Zm.032-5.161h-.032a3.825,3.825,0,0,0-.992.145,7.136,7.136,0,0,1,6.876-9.177,6.993,6.993,0,0,1,5.831,3.124l.307.458.3.152A3.363,3.363,0,0,1,48.742,15.5v.417a7.217,7.217,0,0,1-.3,2,3.825,3.825,0,0,0-.992-.145H44.871a2.222,2.222,0,0,1-2.3-1.368,4.176,4.176,0,0,0-7.991,1.368Zm12.871,2.581a1.29,1.29,0,0,1,0,2.581ZM37.129,18.094a1.612,1.612,0,0,1,1.61-1.61,1.591,1.591,0,0,1,1.463.947,4.775,4.775,0,0,0,4.668,2.924v3.871a2.583,2.583,0,0,1-2.581,2.581H39.71a2.583,2.583,0,0,1-2.581-2.581ZM51.323,42.077a20.488,20.488,0,0,1-5.545,2.213l-1.556-7,3.341,2.5-.257-6.3a9.273,9.273,0,0,1,4.017,7.6Zm-11.475-11.8.223-.894h1.857l.223.894L41,31.434Zm4.823,1.959.09,2.226-1.8-1.348,1.046-1.046C44.235,32.12,44.454,32.177,44.671,32.24Zm-6.681-.168,1.046,1.046-1.8,1.348.09-2.226C37.547,32.177,37.765,32.12,37.99,32.072Zm-.21,5.214-1.556,7a20.488,20.488,0,0,1-5.545-2.213v-.986a9.269,9.269,0,0,1,4.018-7.6l-.257,6.3Zm3.173-2.379L41,34.871l.048.036,2.186,9.837a19.789,19.789,0,0,1-4.467,0ZM41,3.581a20.626,20.626,0,0,1,12.87,36.76,11.879,11.879,0,0,0-9.24-10.783l-.166-.666a5.162,5.162,0,0,0,2.805-3.374h.183a3.866,3.866,0,0,0,3.191-6.055,9.8,9.8,0,0,0,.68-3.546V15.5a5.923,5.923,0,0,0-2.978-5.16,9.559,9.559,0,0,0-7.912-4.178,9.727,9.727,0,0,0-9.075,13.3,3.834,3.834,0,0,0-.68,2.183,3.876,3.876,0,0,0,3.871,3.871h.183a5.156,5.156,0,0,0,2.805,3.374l-.166.666a11.879,11.879,0,0,0-9.24,10.783A20.625,20.625,0,0,1,41,3.581Zm-20.2,39.4,4.591-1.606A23.1,23.1,0,0,0,39.71,47.387v5.292A14.208,14.208,0,0,0,28.1,60.929a14.21,14.21,0,0,0-11.613-8.25V49.074A6.458,6.458,0,0,1,20.8,42.985ZM7.326,75.325a8.982,8.982,0,0,1,15.734,0,11.548,11.548,0,0,1-15.734,0Zm4-11.1A3.871,3.871,0,1,1,15.194,68.1,3.876,3.876,0,0,1,11.323,64.226Zm13.511,9.049a11.584,11.584,0,0,0-5.3-4.306,6.452,6.452,0,1,0-8.676,0,11.59,11.59,0,0,0-5.3,4.306,11.613,11.613,0,1,1,19.28,0Zm8.3,2.05a8.982,8.982,0,0,1,15.734,0,11.548,11.548,0,0,1-15.734,0Zm4-11.1A3.871,3.871,0,1,1,41,68.1,3.876,3.876,0,0,1,37.129,64.226ZM50.64,73.275a11.584,11.584,0,0,0-5.3-4.306,6.452,6.452,0,1,0-8.676,0,11.59,11.59,0,0,0-5.3,4.306,11.613,11.613,0,1,1,19.28,0ZM66.806,55.194a11.608,11.608,0,0,1,9.64,18.081,11.584,11.584,0,0,0-5.3-4.306,6.452,6.452,0,1,0-8.676,0,11.59,11.59,0,0,0-5.3,4.306,11.608,11.608,0,0,1,9.64-18.081Zm-3.871,9.032A3.871,3.871,0,1,1,66.806,68.1,3.876,3.876,0,0,1,62.935,64.226Zm-4,11.1a8.982,8.982,0,0,1,15.734,0,11.548,11.548,0,0,1-15.734,0Z"/>
    </g>
  </g>
</svg>
