<svg xmlns="http://www.w3.org/2000/svg" width="133" height="133" viewBox="0 0 133 133">
  <g id="Grupo_112805" data-name="Grupo 112805" transform="translate(-394 -1668)">
    <g id="Elipse_5376" data-name="Elipse 5376" transform="translate(394 1668)" fill="#fff" stroke="#77b43a" stroke-width="4">
      <circle cx="66.5" cy="66.5" r="66.5" stroke="none"/>
      <circle cx="66.5" cy="66.5" r="64.5" fill="none"/>
    </g>
    <g id="marketing" transform="translate(423 1689)">
      <g id="Grupo_112803" data-name="Grupo 112803" transform="translate(2.371 2.371)">
        <g id="Grupo_112785" data-name="Grupo 112785" transform="translate(0 2.742)">
          <path id="Trazado_161958" data-name="Trazado 161958" d="M56.839,72.548v5.484a5.482,5.482,0,0,1-5.484,5.484H7.484A5.482,5.482,0,0,1,2,78.032V9.484A5.482,5.482,0,0,1,7.484,4H18.452V9.484h-9.6a1.375,1.375,0,0,0-1.371,1.371V76.661a1.375,1.375,0,0,0,1.371,1.371H49.984a1.375,1.375,0,0,0,1.371-1.371V72.548Z" transform="translate(-2 -4)" fill="#ffeaa7"/>
        </g>
        <g id="Grupo_112786" data-name="Grupo 112786" transform="translate(49.355 26.268)">
          <path id="Trazado_161959" data-name="Trazado 161959" d="M43.484,21.174V55.215H38v-32.9a13.547,13.547,0,0,0,5.484-1.152Z" transform="translate(-38 -21.16)" fill="#ffeaa7"/>
        </g>
        <g id="Grupo_112787" data-name="Grupo 112787" transform="translate(5.484 8.226)">
          <path id="Trazado_161960" data-name="Trazado 161960" d="M41.563,24.383a13.668,13.668,0,0,1-5.4-10.9,14.018,14.018,0,0,1,.274-2.756,1.837,1.837,0,0,1-.274.014H19.71A2.75,2.75,0,0,1,16.968,8h-9.6A1.375,1.375,0,0,0,6,9.371V75.177a1.375,1.375,0,0,0,1.371,1.371H48.5a1.375,1.375,0,0,0,1.371-1.371V27.194A13.584,13.584,0,0,1,41.563,24.383Z" transform="translate(-6 -8)" fill="#f0d0b4"/>
        </g>
        <g id="Grupo_112788" data-name="Grupo 112788" transform="translate(30.161 60.323)">
          <path id="Trazado_161961" data-name="Trazado 161961" d="M34.968,51.484v5.484l-9.679-3.633a1.973,1.973,0,0,1,0-3.7L34.968,46Z" transform="translate(-24 -46)" fill="#aab2bd"/>
        </g>
        <g id="Grupo_112789" data-name="Grupo 112789" transform="translate(71.29 60.323)">
          <path id="Trazado_161962" data-name="Trazado 161962" d="M63.364,47.6a5.487,5.487,0,0,1-3.88,9.364H54V46h5.484A5.518,5.518,0,0,1,63.364,47.6Z" transform="translate(-54 -46)" fill="#aab2bd"/>
        </g>
        <g id="Grupo_112790" data-name="Grupo 112790" transform="translate(41.129 65.806)">
          <path id="Trazado_161963" data-name="Trazado 161963" d="M62.161,50v5.484H32V50Z" transform="translate(-32 -50)" fill="#4fc1e9"/>
        </g>
        <g id="Grupo_112791" data-name="Grupo 112791" transform="translate(41.129 60.323)">
          <path id="Trazado_161964" data-name="Trazado 161964" d="M62.161,46v5.484H32V46H62.161Z" transform="translate(-32 -46)" fill="#b4dd7f"/>
        </g>
        <g id="Grupo_112792" data-name="Grupo 112792" transform="translate(10.968 26.048)">
          <path id="Trazado_161965" data-name="Trazado 161965" d="M36.432,24.359A16.481,16.481,0,1,0,42.9,37.452,16.391,16.391,0,0,0,36.432,24.359Z" transform="translate(-10 -21)" fill="#e6e9ed"/>
        </g>
        <g id="Grupo_112793" data-name="Grupo 112793" transform="translate(30.161 37.016)">
          <path id="Trazado_161966" data-name="Trazado 161966" d="M24,29h5.484V42.71H24Z" transform="translate(-24 -29)" fill="#fcd770"/>
        </g>
        <g id="Grupo_112794" data-name="Grupo 112794" transform="translate(24.677 34.274)">
          <path id="Trazado_161967" data-name="Trazado 161967" d="M25.484,29.742v13.71H20V27h5.484Z" transform="translate(-20 -27)" fill="#fcd770"/>
        </g>
        <g id="Grupo_112795" data-name="Grupo 112795" transform="translate(19.194 42.5)">
          <path id="Trazado_161968" data-name="Trazado 161968" d="M16,33h5.484v8.226H16Z" transform="translate(-16 -33)" fill="#fcd770"/>
        </g>
        <g id="Grupo_112796" data-name="Grupo 112796" transform="translate(16.452)">
          <path id="Trazado_161969" data-name="Trazado 161969" d="M35.935,4.742V7.484a13.613,13.613,0,0,0-2.468,5.47,1.837,1.837,0,0,1-.274.014H16.742A2.75,2.75,0,0,1,14,10.226V4.742A2.75,2.75,0,0,1,16.742,2H33.194A2.75,2.75,0,0,1,35.935,4.742Z" transform="translate(-14 -2)" fill="#b4dd7f"/>
        </g>
        <g id="Grupo_112797" data-name="Grupo 112797" transform="translate(69.919 13.71)">
          <path id="Trazado_161970" data-name="Trazado 161970" d="M61.226,12l2.742,5.484H55.742L53,12h8.226Z" transform="translate(-53 -12)" fill="#cf9e76"/>
        </g>
        <g id="Grupo_112798" data-name="Grupo 112798" transform="translate(69.919 8.226)">
          <path id="Trazado_161971" data-name="Trazado 161971" d="M63.968,8l-2.742,5.484H53L55.742,8Z" transform="translate(-53 -8)" fill="#cf9e76"/>
        </g>
        <g id="Grupo_112799" data-name="Grupo 112799" transform="translate(35.645 0)">
          <path id="Trazado_161972" data-name="Trazado 161972" d="M55.419,15.71a13.64,13.64,0,0,1-8.226,12.558A13.709,13.709,0,0,1,28,15.71a14.018,14.018,0,0,1,.274-2.756A13.713,13.713,0,0,1,55.419,15.71Z" transform="translate(-28 -2)" fill="#e6e9ed"/>
        </g>
        <g id="Grupo_112800" data-name="Grupo 112800" transform="translate(43.871 8.226)">
          <circle id="Elipse_5478" data-name="Elipse 5478" cx="5.484" cy="5.484" r="5.484" fill="#ff826e"/>
        </g>
        <g id="Grupo_112801" data-name="Grupo 112801" transform="translate(60.323 30.161)">
          <path id="Trazado_161973" data-name="Trazado 161973" d="M56.968,24a10.955,10.955,0,1,1-6.855,2.4A10.965,10.965,0,0,1,56.968,24Z" transform="translate(-46 -24)" fill="#e6e9ed"/>
        </g>
        <g id="Grupo_112802" data-name="Grupo 112802" transform="translate(65.806 35.645)">
          <path id="Trazado_161974" data-name="Trazado 161974" d="M59.748,31.5a2.229,2.229,0,0,1,0,3.976l-6.54,3.263A2.218,2.218,0,0,1,50,36.747V30.221a2.218,2.218,0,0,1,3.208-1.988Z" transform="translate(-50 -28)" fill="#ff826e"/>
        </g>
      </g>
      <g id="Grupo_112804" data-name="Grupo 112804" transform="translate(1 1)">
        <path id="Trazado_161975" data-name="Trazado 161975" d="M79.145,61.323H58.581V29.5a15.036,15.036,0,0,0,1.449-.84l4.9,6.13a12.516,12.516,0,1,0,2.148-1.705l-4.915-6.143a15.033,15.033,0,0,0,4.571-9.486h4.705l2.742,5.484H85.476l-3.427-6.855,3.427-6.855H74.185L71.443,14.71H66.738a15.062,15.062,0,0,0-24.669-10.2A4.108,4.108,0,0,0,38.016,1H21.565A4.107,4.107,0,0,0,17.7,3.742H7.855A6.863,6.863,0,0,0,1,10.6V79.145A6.863,6.863,0,0,0,7.855,86H51.726a6.863,6.863,0,0,0,6.855-6.855V75.032H79.145a6.855,6.855,0,1,0,0-13.71ZM83.258,43.5a9.6,9.6,0,1,1-9.6-9.6A9.609,9.609,0,0,1,83.258,43.5ZM75.88,20.194l-1.371-2.742h5.16l1.371,2.742Zm0-8.226h5.16L79.669,14.71h-5.16Zm-58.176,0a4.107,4.107,0,0,0,3.861,2.742H36.715c-.041.452-.07.908-.07,1.371a15.028,15.028,0,0,0,4.9,11.1l-2.091,2.743a17.984,17.984,0,1,0,2.174,1.668l2.093-2.747a14.954,14.954,0,0,0,6.629,2.25V61.323h-7.1l-9.916,3.719a3.35,3.35,0,0,0,0,6.272l9.916,3.718h7.1v2.742H9.226V11.968ZM36.645,51.726H33.9V40.758h2.742Zm-5.484,0H28.419V38.016h2.742Zm-5.484,0H22.935V46.242h2.742Zm15.737,2.742a15.062,15.062,0,0,1-23.249,0Zm1.792-2.742h-3.82V38.016H33.9V35.274H25.677V43.5H20.194v8.226h-3.82a15.081,15.081,0,1,1,26.833,0ZM34.3,68.748a.608.608,0,0,1,0-1.139l7.831-2.937v7.011ZM44.871,72.29V69.548H72.29V72.29ZM72.29,66.806H44.871V64.065H72.29ZM55.839,61.323H53.1V31.091a14.836,14.836,0,0,0,2.742-.515ZM51.726,3.742A12.352,12.352,0,0,1,63.984,14.71H58.442a6.855,6.855,0,1,0,0,2.742h5.541A12.337,12.337,0,1,1,51.726,3.742Zm3.861,13.71a4.113,4.113,0,1,1,0-2.742H50.355v2.742ZM20.194,5.113a1.372,1.372,0,0,1,1.371-1.371H38.016a1.372,1.372,0,0,1,1.371,1.371V7.437a15,15,0,0,0-2.155,4.524l-15.667.007A1.372,1.372,0,0,1,20.194,10.6ZM55.839,79.145a4.118,4.118,0,0,1-4.113,4.113H7.855a4.118,4.118,0,0,1-4.113-4.113V10.6A4.118,4.118,0,0,1,7.855,6.484h9.6V9.226H9.226a2.745,2.745,0,0,0-2.742,2.742V77.774a2.745,2.745,0,0,0,2.742,2.742H50.355A2.745,2.745,0,0,0,53.1,77.774V75.032h2.742ZM79.145,72.29H75.032V64.065h4.113a4.113,4.113,0,1,1,0,8.226Z" transform="translate(-1 -1)"/>
        <path id="Trazado_161976" data-name="Trazado 161976" d="M49,37.12a3.59,3.59,0,0,0,5.195,3.211l6.533-3.266a3.591,3.591,0,0,0,0-6.422l-6.531-3.266A3.59,3.59,0,0,0,49,30.589Zm2.742-6.531a.847.847,0,0,1,1.226-.758L59.5,33.1a.847.847,0,0,1,0,1.516l-6.531,3.266a.871.871,0,0,1-1.226-.758Z" transform="translate(16.806 8.645)"/>
        <path id="Trazado_161977" data-name="Trazado 161977" d="M9,49H25.452v2.742H9Z" transform="translate(1.968 16.806)"/>
        <path id="Trazado_161978" data-name="Trazado 161978" d="M9,53H25.452v2.742H9Z" transform="translate(1.968 18.29)"/>
        <path id="Trazado_161979" data-name="Trazado 161979" d="M9,13h2.742v2.742H9Z" transform="translate(1.968 3.452)"/>
        <path id="Trazado_161980" data-name="Trazado 161980" d="M13,13H29.452v2.742H13Z" transform="translate(3.452 3.452)"/>
        <path id="Trazado_161981" data-name="Trazado 161981" d="M9,17h2.742v2.742H9Z" transform="translate(1.968 4.935)"/>
        <path id="Trazado_161982" data-name="Trazado 161982" d="M13,17H29.452v2.742H13Z" transform="translate(3.452 4.935)"/>
      </g>
    </g>
  </g>
</svg>
