<svg xmlns="http://www.w3.org/2000/svg" width="133" height="133" viewBox="0 0 133 133">
  <g id="Grupo_112767" data-name="Grupo 112767" transform="translate(-1095 -1668)">
    <g id="Trazado_160183" data-name="Trazado 160183" transform="translate(1095 1668)" fill="#fff">
      <path d="M 66.5 131 C 57.79167175292969 131 49.34490966796875 129.2949066162109 41.39430999755859 125.9320907592773 C 37.57285308837891 124.3157424926758 33.88689041137695 122.315055847168 30.4388370513916 119.9856033325195 C 27.02301788330078 117.6779098510742 23.81087303161621 115.0276336669922 20.8916187286377 112.1083831787109 C 17.97236442565918 109.1891250610352 15.3220911026001 105.9769821166992 13.01439952850342 102.561164855957 C 10.68494510650635 99.11310577392578 8.68425464630127 95.42714691162109 7.067909240722656 91.60569000244141 C 3.705090999603271 83.65509033203125 2 75.20832824707031 2 66.5 C 2 57.79167175292969 3.705090999603271 49.34490966796875 7.067909240722656 41.39430999755859 C 8.68425464630127 37.57285308837891 10.68494510650635 33.88689041137695 13.01439952850342 30.4388370513916 C 15.3220911026001 27.02301788330078 17.97236442565918 23.81087303161621 20.8916187286377 20.8916187286377 C 23.81087303161621 17.97236442565918 27.02301788330078 15.3220911026001 30.4388370513916 13.01439952850342 C 33.88689041137695 10.68494510650635 37.57285308837891 8.68425464630127 41.39430999755859 7.067909240722656 C 49.34490966796875 3.705090999603271 57.79167175292969 2 66.5 2 C 75.20832824707031 2 83.65509033203125 3.705090999603271 91.60569000244141 7.067909240722656 C 95.42714691162109 8.68425464630127 99.11310577392578 10.68494510650635 102.561164855957 13.01439952850342 C 105.9769821166992 15.3220911026001 109.1891250610352 17.97236442565918 112.1083831787109 20.8916187286377 C 115.0276336669922 23.81087303161621 117.6779098510742 27.02301788330078 119.9856033325195 30.4388370513916 C 122.315055847168 33.88689041137695 124.3157424926758 37.57285308837891 125.9320907592773 41.39430999755859 C 129.2949066162109 49.34490966796875 131 57.79167175292969 131 66.5 C 131 75.20832824707031 129.2949066162109 83.65509033203125 125.9320907592773 91.60569000244141 C 124.3157424926758 95.42714691162109 122.315055847168 99.11310577392578 119.9856033325195 102.561164855957 C 117.6779098510742 105.9769821166992 115.0276336669922 109.1891250610352 112.1083831787109 112.1083831787109 C 109.1891250610352 115.0276336669922 105.9769821166992 117.6779098510742 102.561164855957 119.9856033325195 C 99.11310577392578 122.315055847168 95.42714691162109 124.3157424926758 91.60569000244141 125.9320907592773 C 83.65509033203125 129.2949066162109 75.20832824707031 131 66.5 131 Z" stroke="none"/>
      <path d="M 66.5 4 C 58.06079864501953 4 49.87613677978516 5.651939392089844 42.17342376708984 8.909919738769531 C 38.47090148925781 10.47595977783203 34.89949798583984 12.41448211669922 31.55845642089844 14.67166137695313 C 28.24812316894531 16.9080810546875 25.13507843017578 19.47657775878906 22.30583953857422 22.30583953857422 C 19.47657775878906 25.13507843017578 16.9080810546875 28.24812316894531 14.67166137695313 31.55845642089844 C 12.41448211669922 34.89949798583984 10.47595977783203 38.47090148925781 8.909919738769531 42.17342376708984 C 5.651939392089844 49.87613677978516 4 58.06079864501953 4 66.5 C 4 74.93920135498047 5.651939392089844 83.12385559082031 8.909919738769531 90.82658386230469 C 10.47595977783203 94.52909851074219 12.41448211669922 98.10049438476563 14.67166137695313 101.4415435791016 C 16.9080810546875 104.7518768310547 19.47657775878906 107.8649215698242 22.30583953857422 110.6941604614258 C 25.13507843017578 113.5234222412109 28.24812316894531 116.0919189453125 31.55845642089844 118.3283386230469 C 34.89949798583984 120.5855178833008 38.47090148925781 122.524040222168 42.17342376708984 124.0900802612305 C 49.87613677978516 127.3480606079102 58.06079864501953 129 66.5 129 C 74.93920135498047 129 83.12385559082031 127.3480606079102 90.82658386230469 124.0900802612305 C 94.52909851074219 122.524040222168 98.10049438476563 120.5855178833008 101.4415435791016 118.3283386230469 C 104.7518768310547 116.0919189453125 107.8649215698242 113.5234222412109 110.6941604614258 110.6941604614258 C 113.5234222412109 107.8649215698242 116.0919189453125 104.7518768310547 118.3283386230469 101.4415435791016 C 120.5855178833008 98.10049438476563 122.524040222168 94.52909851074219 124.0900802612305 90.82658386230469 C 127.3480606079102 83.12385559082031 129 74.93920135498047 129 66.5 C 129 58.06079864501953 127.3480606079102 49.87613677978516 124.0900802612305 42.17342376708984 C 122.524040222168 38.47090148925781 120.5855178833008 34.89949798583984 118.3283386230469 31.55845642089844 C 116.0919189453125 28.24812316894531 113.5234222412109 25.13507843017578 110.6941604614258 22.30583953857422 C 107.8649215698242 19.47657775878906 104.7518768310547 16.9080810546875 101.4415435791016 14.67166137695313 C 98.10049438476563 12.41448211669922 94.52909851074219 10.47595977783203 90.82658386230469 8.909919738769531 C 83.12385559082031 5.651939392089844 74.93920135498047 4 66.5 4 M 66.5 0 C 103.226921081543 0 133 29.77307891845703 133 66.5 C 133 103.226921081543 103.226921081543 133 66.5 133 C 29.77307891845703 133 0 103.226921081543 0 66.5 C 0 29.77307891845703 29.77307891845703 0 66.5 0 Z" stroke="none" fill="#77b43a"/>
    </g>
    <g id="_022-liderazgo" data-name="022-liderazgo" transform="translate(1115 1688)">
      <g id="Grupo_112575" data-name="Grupo 112575" transform="translate(0 0)">
        <path id="Trazado_160961" data-name="Trazado 160961" d="M204.3,10.645l-2.6-2.6a1.841,1.841,0,0,0-2.6,0L163.122,44.011l5.208,5.208L204.3,13.249a1.841,1.841,0,0,0,0-2.6Z" transform="translate(-133.391 -6.135)" fill="#c5d3dd"/>
        <path id="Trazado_160962" data-name="Trazado 160962" d="M174.8,187.859a10.256,10.256,0,0,0-4.894-1.231c-.3,0-.6.015-.9.04l-1.717-1.717-4.166,4.166,5.208,5.208Z" transform="translate(-133.392 -151.241)" fill="#b6c4cf"/>
        <path id="Trazado_160963" data-name="Trazado 160963" d="M300.848,71.318,278.527,49,256.116,71.409l22.32,22.32a1.841,1.841,0,0,0,2.96-.5l5.614-11.622a3.683,3.683,0,0,1,1.714-1.714l11.622-5.614a1.841,1.841,0,0,0,.5-2.96Z" transform="translate(-209.436 -40.067)" fill="#f85316"/>
        <path id="Trazado_160964" data-name="Trazado 160964" d="M0,0H31.694V5.488H0Z" transform="translate(46.673 31.344) rotate(-45)" fill="#ff642b"/>
        <path id="Trazado_160965" data-name="Trazado 160965" d="M16.077,350.16l-5.207-5.208L7.5,348.32v10.415Z" transform="translate(-6.135 -282.08)" fill="#9facba"/>
        <path id="Trazado_160966" data-name="Trazado 160966" d="M128.95,294.636H87.712L66.031,272.857l8.333-8.333L91.028,247.86l6.087,6.087,1.714,10.568,2.887,2.887Z" transform="translate(-53.996 -202.684)" fill="#ffbd86"/>
        <path id="Trazado_160967" data-name="Trazado 160967" d="M128.169,279.9a2.578,2.578,0,0,1-3.645,0l-2.459-2.459a10.968,10.968,0,0,1-3-9.9,10.249,10.249,0,0,1-7.177-2.881c-.046-.044-.092-.09-.138-.136,0,0,0,0,0,0l16.664-16.664,6.087,6.087,1.714,10.568,3.671,3.671Z" transform="translate(-91.382 -202.683)" fill="#f6a96c"/>
        <path id="Trazado_160968" data-name="Trazado 160968" d="M112.469,197.691l-15.1-15.1a4.419,4.419,0,1,1,6.249-6.249l15.1,15.1Z" transform="translate(-78.563 -143.142)" fill="#fed2a4"/>
        <path id="Trazado_160969" data-name="Trazado 160969" d="M40.774,263.139,28.8,251.161a4.419,4.419,0,1,1,6.249-6.249L47.023,256.89a4.419,4.419,0,0,1-6.249,6.249Z" transform="translate(-22.49 -199.215)" fill="#fed2a4"/>
        <path id="Trazado_160970" data-name="Trazado 160970" d="M18.17,309.107,8.8,299.733a4.419,4.419,0,0,1,6.249-6.249l9.374,9.374a4.419,4.419,0,0,1-6.249,6.249Z" transform="translate(-6.135 -238.935)" fill="#fed2a4"/>
        <path id="Trazado_160971" data-name="Trazado 160971" d="M63.378,217.171,48.8,202.59a4.419,4.419,0,1,1,6.249-6.249l14.581,14.581a4.419,4.419,0,0,1-6.249,6.249Z" transform="translate(-38.845 -159.497)" fill="#fed2a4"/>
        <g id="Grupo_112573" data-name="Grupo 112573" transform="translate(17.373 37.906)">
          <path id="Trazado_160972" data-name="Trazado 160972" d="M111.432,255.688a4.419,4.419,0,0,0,0-6.249l-7.291-7.291-3.054,3.054a10.459,10.459,0,0,0-2.462,3.928l6.558,6.558A4.419,4.419,0,0,0,111.432,255.688Z" transform="translate(-98.023 -235.92)" fill="#ffbd86"/>
          <path id="Trazado_160973" data-name="Trazado 160973" d="M142.429,215.245l-7.27-7.27c-.184.16-.366.325-.541.5l-5.728,5.728,7.291,7.291a4.419,4.419,0,0,0,6.249-6.249Z" transform="translate(-122.771 -207.975)" fill="#ffbd86"/>
          <path id="Trazado_160974" data-name="Trazado 160974" d="M102.482,286.971,95.915,280.4a10.319,10.319,0,0,0,2.4,10.735l.138.136a10.278,10.278,0,0,0,3.656,2.274,4.414,4.414,0,0,0,.369-6.578Z" transform="translate(-95.323 -267.203)" fill="#ffbd86"/>
          <path id="Trazado_160975" data-name="Trazado 160975" d="M152.413,249.634l-.775-10.532a10.9,10.9,0,0,0-3.164-6.909l-4.424-4.424a4.419,4.419,0,0,0-6.249,0l-8.783,8.783a4.5,4.5,0,0,0-.009,6.379,4.419,4.419,0,0,0,6.188-.06l5.728-5.728,1.578,1.578v5.521a2.727,2.727,0,0,1-.8,1.928l-2.442,2.442a5.076,5.076,0,0,0,0,7.178l21.36,21.359h19.3Z" transform="translate(-121.789 -223.103)" fill="#ffbd86"/>
        </g>
        <path id="Trazado_160976" data-name="Trazado 160976" d="M339.83,122.644l-.919,2.711a2,2,0,0,0,.291,1.837l1.712,2.294a2,2,0,0,1-1.627,3.194l-2.862-.037a2,2,0,0,0-1.658.844l-1.653,2.337a2,2,0,0,1-3.54-.561l-.85-2.733a2,2,0,0,0-1.315-1.315l-2.733-.85a2,2,0,0,1-.561-3.54l2.337-1.653a2,2,0,0,0,.844-1.658l-.037-2.862a2,2,0,0,1,3.194-1.627l2.294,1.712a2,2,0,0,0,1.837.291l2.711-.919A2,2,0,0,1,339.83,122.644Z" transform="translate(-264.349 -97.004)" fill="#dce736"/>
        <g id="Grupo_112574" data-name="Grupo 112574">
          <path id="Trazado_160977" data-name="Trazado 160977" d="M92.381,30.284,71.026,8.931l.848-.848a3.207,3.207,0,0,0,0-4.539l-2.6-2.6a3.2,3.2,0,0,0-4.537,0L52.375,13.3a1.367,1.367,0,0,0,1.933,1.933L66.67,2.872a.471.471,0,0,1,.669,0l2.6,2.6a.473.473,0,0,1,0,.671L36.165,39.925a5.794,5.794,0,0,0-1.975.474l-2.524-2.523L49.8,19.746a1.367,1.367,0,1,0-1.933-1.933l-18.13,18.13-3.711-3.711a5.787,5.787,0,0,0-9.755,2.908,5.786,5.786,0,0,0-8.015,8.02,5.781,5.781,0,0,0-3.645,8.853A5.783,5.783,0,0,0,1.7,61.766L2.8,62.873l-2.4,2.4a1.367,1.367,0,0,0,1.933,1.933l2.4-2.4L8.011,68.08.4,75.688a1.367,1.367,0,0,0,1.933,1.933l7.609-7.608L21.973,82.09a1.367,1.367,0,0,0,1.937-1.929l-7.446-7.479a5.772,5.772,0,0,0,4.459-6.122c.162.014.325.022.488.022A5.776,5.776,0,0,0,27.171,60.3a5.787,5.787,0,0,0,4.579-1.663l4.762-4.762.211.211v4.955a1.351,1.351,0,0,1-.4.962l-2.442,2.442a6.45,6.45,0,0,0,0,9.112l4.283,4.282A1.367,1.367,0,1,0,40.1,73.908l-4.282-4.282a3.713,3.713,0,0,1,0-5.245l2.442-2.442a4.067,4.067,0,0,0,1.2-2.895V53.523a1.368,1.368,0,0,0-.4-.967l-1.578-1.577a1.367,1.367,0,0,0-1.933,0l-5.728,5.729a3.067,3.067,0,0,1-4.274.042,2.973,2.973,0,0,1-.9-2.136,3.214,3.214,0,0,1,.93-2.291l8.782-8.782a3.056,3.056,0,0,1,4.316,0l4.424,4.424a9.536,9.536,0,0,1,2.767,6.042l.775,10.532a1.368,1.368,0,0,0,.4.866L74.547,92.918a1.367,1.367,0,1,0,1.933-1.933L49.325,63.83l-.737-10.025a12.273,12.273,0,0,0-3.56-7.775L40.6,41.606a5.767,5.767,0,0,0-1.285-.967l7.363-7.363,9.572,9.57a1.367,1.367,0,0,0,1.933-1.933l-9.572-9.57L69.093,10.864,90.447,32.218a.474.474,0,0,1-.129.762L78.693,38.595a5.074,5.074,0,0,0-2.347,2.35l-5.613,11.62a.474.474,0,0,1-.763.13L62.7,45.423a1.367,1.367,0,0,0-1.933,1.933l7.271,7.271a3.208,3.208,0,0,0,5.158-.872l5.614-11.622a2.326,2.326,0,0,1,1.076-1.077l11.624-5.614a3.208,3.208,0,0,0,.872-5.157ZM19.773,34.165a3.055,3.055,0,0,1,4.316,0l7.886,7.886L27.66,46.367l-7.886-7.886a3.055,3.055,0,0,1,0-4.316Zm-1.56,32.882A3.052,3.052,0,0,1,13,69.206L3.63,59.832a3.052,3.052,0,0,1,4.316-4.316L17.32,64.89A3.032,3.032,0,0,1,18.213,67.048Zm5.355-4.091a3.055,3.055,0,0,1-4.316,0L7.275,50.979a3.052,3.052,0,0,1,4.316-4.316L23.568,58.641A3.055,3.055,0,0,1,23.568,62.957Zm.071-12.568a5.944,5.944,0,0,0-1.58,2.876L10.92,42.126a3.052,3.052,0,1,1,4.316-4.316L25.726,48.3Z" transform="translate(-0.002 0)"/>
          <path id="Trazado_160978" data-name="Trazado 160978" d="M145.388,462.8a1.367,1.367,0,1,0-1.937,1.929l6.277,6.306a1.367,1.367,0,1,0,1.937-1.929Z" transform="translate(-116.979 -378.122)"/>
          <path id="Trazado_160979" data-name="Trazado 160979" d="M319.527,117.925l-2.337,1.653a3.366,3.366,0,0,0,.944,5.962l2.733.85a.631.631,0,0,1,.416.416l.85,2.733a3.345,3.345,0,0,0,2.688,2.325,3.429,3.429,0,0,0,.536.042,3.342,3.342,0,0,0,2.738-1.423l1.653-2.337a.64.64,0,0,1,.524-.267l2.862.037a3.366,3.366,0,0,0,2.74-5.378l-1.712-2.294a.632.632,0,0,1-.092-.581l.919-2.711a3.366,3.366,0,0,0-4.268-4.268l-2.711.919a.632.632,0,0,1-.581-.092l-2.294-1.712a3.366,3.366,0,0,0-5.378,2.74l.037,2.862A.632.632,0,0,1,319.527,117.925Zm1.579,2.232a3.365,3.365,0,0,0,1.422-2.791l-.037-2.862a.616.616,0,0,1,.345-.571.66.66,0,0,1,.294-.072.61.61,0,0,1,.371.128l2.294,1.712a3.362,3.362,0,0,0,3.094.49l2.711-.919a.632.632,0,0,1,.8.8l-.919,2.711a3.365,3.365,0,0,0,.49,3.094l1.712,2.294a.632.632,0,0,1-.514,1.01l-2.862-.037a3.358,3.358,0,0,0-2.791,1.422l-1.653,2.337a.632.632,0,0,1-1.119-.177l-.85-2.733a3.364,3.364,0,0,0-2.215-2.215l-2.733-.85a.632.632,0,0,1-.177-1.119Z" transform="translate(-258.215 -90.872)"/>
        </g>
      </g>
    </g>
  </g>
</svg>
