<svg xmlns="http://www.w3.org/2000/svg" xmlns:xlink="http://www.w3.org/1999/xlink" width="133" height="133" viewBox="0 0 133 133">
  <defs>
    <clipPath id="clip-path">
      <path id="path711" d="M0-682.665H85v85H0Z" transform="translate(0 682.665)"/>
    </clipPath>
  </defs>
  <g id="Grupo_112685" data-name="Grupo 112685" transform="translate(-394 -1668)">
    <g id="Elipse_5376" data-name="Elipse 5376" transform="translate(394 1668)" fill="#fff" stroke="#77b43a" stroke-width="4">
      <circle cx="66.5" cy="66.5" r="66.5" stroke="none"/>
      <circle cx="66.5" cy="66.5" r="64.5" fill="none"/>
    </g>
    <g id="g705" transform="translate(418.243 2374.665)">
      <g id="g707" transform="translate(0 -682.665)">
        <g id="g709" clip-path="url(#clip-path)">
          <g id="g715" transform="translate(4.555 13.945)">
            <path id="path717" d="M-469.26-234.63a33.369,33.369,0,0,1-33.369,33.369A33.369,33.369,0,0,1-536-234.63,33.369,33.369,0,0,1-502.63-268,33.369,33.369,0,0,1-469.26-234.63" transform="translate(535.999 267.999)" fill="#d8ecfe"/>
          </g>
          <g id="g719" transform="translate(4.555 13.945)">
            <path id="path721" d="M-47.347-234.63a33.373,33.373,0,0,1,30-33.2Q-19.006-268-20.712-268A33.369,33.369,0,0,0-54.081-234.63a33.369,33.369,0,0,0,33.369,33.369q1.7,0,3.367-.168a33.373,33.373,0,0,1-30-33.2" transform="translate(54.081 267.999)" fill="#c4e2ff"/>
          </g>
          <g id="g723" transform="translate(4.555 13.945)">
            <path id="path725" d="M-469.26-234.63a33.369,33.369,0,0,1-33.369,33.369A33.369,33.369,0,0,1-536-234.63,33.369,33.369,0,0,1-502.63-268,33.369,33.369,0,0,1-469.26-234.63Z" transform="translate(535.999 267.999)" fill="none" stroke="#000" stroke-linecap="round" stroke-linejoin="round" stroke-miterlimit="10" stroke-width="3"/>
          </g>
          <g id="g727" transform="translate(28.35 38.99)">
            <path id="path729" d="M-148.979-254.27l-21.188-21.188,14.974-14.975L-134-269.245Z" transform="translate(170.166 290.433)" fill="#ffe5c2"/>
          </g>
          <g id="g731" transform="translate(28.35 38.99)">
            <path id="path733" d="M-48.34-80.942l9.805-9.806-1.706-1.706L-55.215-77.479l21.188,21.188,5.169-5.169Z" transform="translate(55.215 92.453)" fill="#fed2a4"/>
          </g>
          <g id="g735" transform="translate(28.35 38.99)">
            <path id="path737" d="M-148.979-254.27l-21.188-21.188,14.974-14.975L-134-269.245Z" transform="translate(170.166 290.433)" fill="none" stroke="#000" stroke-linecap="round" stroke-linejoin="round" stroke-miterlimit="10" stroke-width="3"/>
          </g>
          <g id="g739" transform="translate(44.64 56.177)">
            <path id="path741" d="M-48.607-191.446l-6.562-6.562a1.2,1.2,0,0,1,0-1.693l18.622-18.622a1.2,1.2,0,0,1,1.693,0l6.562,6.562a1.2,1.2,0,0,1,0,1.693l-18.622,18.622a1.2,1.2,0,0,1-1.693,0" transform="translate(55.52 218.673)" fill="#fe646f"/>
          </g>
          <g id="g743" transform="translate(44.64 56.177)">
            <path id="path745" d="M-51.483-145.3a1.2,1.2,0,0,1,0-1.693L-35.5-162.98l-2.639-2.639a1.2,1.2,0,0,0-1.693,0L-58.455-147a1.2,1.2,0,0,0,0,1.693l6.562,6.562a1.2,1.2,0,0,0,1.693,0l2.639-2.639Z" transform="translate(58.805 165.97)" fill="#fd4755"/>
          </g>
          <g id="g747" transform="translate(44.64 56.177)">
            <path id="path749" d="M-139.542-112.414l7.382-7.382a1.2,1.2,0,0,0,0-1.693l-6.562-6.562a1.2,1.2,0,0,0-1.693,0l-18.622,18.622a1.2,1.2,0,0,0,0,1.693l6.562,6.562a1.2,1.2,0,0,0,1.693,0l7.131-7.131" transform="translate(159.388 128.401)" fill="none" stroke="#000" stroke-linecap="round" stroke-linejoin="round" stroke-miterlimit="10" stroke-width="3"/>
          </g>
          <g id="g751" transform="translate(12.372 26.828)">
            <path id="path753" d="M-365.209-150.481a3.647,3.647,0,0,0,.152-5.049,3.586,3.586,0,0,0-5.156-.088,3.586,3.586,0,0,0,0-5.071,3.586,3.586,0,0,0-5.071,0,3.586,3.586,0,0,0,0-5.071,3.586,3.586,0,0,0-5.071,0,3.586,3.586,0,0,0,0-5.071,3.586,3.586,0,0,0-5.071,0l-31.722,31.722,14.564,14.564,9.02-9.02a9.941,9.941,0,0,1,7.4-2.9l2.37.087a9.94,9.94,0,0,0,7.4-2.9Z" transform="translate(417.15 171.883)" fill="#d88a55"/>
          </g>
          <g id="g755" transform="translate(12.372 26.828)">
            <path id="path757" d="M-89.437-201.549l25.121-25.121a3.573,3.573,0,0,0-1.048-2.493,3.586,3.586,0,0,0-5.071,0l-31.722,31.722,14.564,14.564,6.066-6.066-7.91-7.911a3.32,3.32,0,0,1,0-4.7" transform="translate(102.157 230.213)" fill="#c57a44"/>
          </g>
          <g id="g759" transform="translate(12.372 26.828)">
            <path id="path761" d="M-302.4-213.3l8.934-8.934a3.647,3.647,0,0,0,.152-5.049,3.586,3.586,0,0,0-5.157-.088,3.586,3.586,0,0,0,0-5.071,3.586,3.586,0,0,0-5.071,0,3.586,3.586,0,0,0,0-5.071,3.586,3.586,0,0,0-5.071,0,3.586,3.586,0,0,0,0-5.071,3.586,3.586,0,0,0-5.071,0L-345.4-210.859l14.564,14.564,9.02-9.02a9.941,9.941,0,0,1,7.4-2.9l2.37.087a9.939,9.939,0,0,0,5.3-1.3" transform="translate(345.402 243.631)" fill="none" stroke="#000" stroke-linecap="round" stroke-linejoin="round" stroke-miterlimit="10" stroke-width="3"/>
          </g>
          <g id="g763" transform="translate(27.507 26.073)">
            <path id="path765" d="M-7.385-43.042.846-34.811a3.66,3.66,0,0,0,5.033.192A3.586,3.586,0,0,0,6-39.8l-8.31-8.31a3.586,3.586,0,0,0-5.071,0,3.586,3.586,0,0,0,0,5.071" transform="translate(8.435 49.163)" fill="#ffe5c2"/>
          </g>
          <g id="g767" transform="translate(27.507 26.074)">
            <path id="path769" d="M-88.965-89.179-97.2-97.41a3.585,3.585,0,0,1-.5-4.437,3.578,3.578,0,0,0-2.87,1.034,3.586,3.586,0,0,0,0,5.071l8.231,8.231a3.66,3.66,0,0,0,5.034.192,3.6,3.6,0,0,0,.638-.778,3.766,3.766,0,0,1-2.3-1.082" transform="translate(101.617 101.862)" fill="#fed2a4"/>
          </g>
          <g id="g771" transform="translate(22.436 31.144)">
            <path id="path773" d="M-43.042-7.385a3.586,3.586,0,0,0-5.071,0,3.586,3.586,0,0,0,0,5.071l9.25,9.25a3.586,3.586,0,0,0,5.031.04,3.586,3.586,0,0,0,.04-5.111Z" transform="translate(49.163 8.435)" fill="#ffe5c2"/>
          </g>
          <g id="g775" transform="translate(22.436 31.146)">
            <path id="path777" d="M-96.866-95.795l-9.25-9.25a3.584,3.584,0,0,1-.551-4.353,3.577,3.577,0,0,0-2.925,1.027h0a3.586,3.586,0,0,0,0,5.071l9.25,9.25a3.586,3.586,0,0,0,5.031.04,3.573,3.573,0,0,0,.591-.757,3.571,3.571,0,0,1-2.146-1.028" transform="translate(110.643 109.419)" fill="#fed2a4"/>
          </g>
          <g id="g779" transform="translate(17.365 36.215)">
            <path id="path781" d="M-43.043-7.385a3.586,3.586,0,0,0-5.071,0,3.586,3.586,0,0,0,0,5.071l7.594,7.594a3.586,3.586,0,0,0,5.031.039,3.586,3.586,0,0,0,.04-5.111Z" transform="translate(49.164 8.435)" fill="#ffe5c2"/>
          </g>
          <g id="g783" transform="translate(17.365 36.216)">
            <path id="path785" d="M-84.664-84.66l-7.594-7.594a3.585,3.585,0,0,1-.507-4.429,3.578,3.578,0,0,0-2.89,1.032,3.586,3.586,0,0,0,0,5.071l7.594,7.594a3.586,3.586,0,0,0,5.031.04,3.58,3.58,0,0,0,.546-.682,3.571,3.571,0,0,1-2.181-1.032" transform="translate(96.705 96.7)" fill="#fed2a4"/>
          </g>
          <g id="g787" transform="translate(13.846 42.839)">
            <path id="path789" d="M-43.042-7.385a3.586,3.586,0,0,0-5.071,0,3.586,3.586,0,0,0,0,5.071l4.044,4.044a3.586,3.586,0,0,0,5.031.04A3.586,3.586,0,0,0-39-3.34Z" transform="translate(49.163 8.435)" fill="#ffe5c2"/>
          </g>
          <g id="g791" transform="translate(13.846 42.84)">
            <path id="path793" d="M-59.868-59.748l-4.044-4.044a3.585,3.585,0,0,1-.5-4.433A3.578,3.578,0,0,0-67.333-67.2a3.586,3.586,0,0,0,0,5.071l4.044,4.044a3.586,3.586,0,0,0,5.031.039,3.592,3.592,0,0,0,.543-.677,3.571,3.571,0,0,1-2.154-1.029" transform="translate(68.383 68.246)" fill="#fed2a4"/>
          </g>
          <g id="g795" transform="translate(27.507 26.073)">
            <path id="path797" d="M-7.385-43.042.846-34.811a3.66,3.66,0,0,0,5.033.192A3.586,3.586,0,0,0,6-39.8l-8.31-8.31a3.586,3.586,0,0,0-5.071,0A3.586,3.586,0,0,0-7.385-43.042Z" transform="translate(8.435 49.163)" fill="none" stroke="#000" stroke-linecap="round" stroke-linejoin="round" stroke-miterlimit="10" stroke-width="3"/>
          </g>
          <g id="g799" transform="translate(22.436 31.144)">
            <path id="path801" d="M-43.042-7.385a3.586,3.586,0,0,0-5.071,0,3.586,3.586,0,0,0,0,5.071l9.25,9.25a3.586,3.586,0,0,0,5.031.04,3.586,3.586,0,0,0,.04-5.111Z" transform="translate(49.163 8.435)" fill="none" stroke="#000" stroke-linecap="round" stroke-linejoin="round" stroke-miterlimit="10" stroke-width="3"/>
          </g>
          <g id="g803" transform="translate(17.365 36.215)">
            <path id="path805" d="M-43.043-7.385a3.586,3.586,0,0,0-5.071,0,3.586,3.586,0,0,0,0,5.071l7.594,7.594a3.586,3.586,0,0,0,5.031.039,3.586,3.586,0,0,0,.04-5.111Z" transform="translate(49.164 8.435)" fill="none" stroke="#000" stroke-linecap="round" stroke-linejoin="round" stroke-miterlimit="10" stroke-width="3"/>
          </g>
          <g id="g807" transform="translate(13.846 42.839)">
            <path id="path809" d="M-43.042-7.385a3.586,3.586,0,0,0-5.071,0,3.586,3.586,0,0,0,0,5.071l4.044,4.044a3.586,3.586,0,0,0,5.031.04A3.586,3.586,0,0,0-39-3.34Z" transform="translate(49.163 8.435)" fill="none" stroke="#000" stroke-linecap="round" stroke-linejoin="round" stroke-miterlimit="10" stroke-width="3"/>
          </g>
          <g id="g811" transform="translate(31.886 25.578)">
            <path id="path813" d="M-58.816,0h-6.4a1.962,1.962,0,0,0-1.962,1.962v.814a4.4,4.4,0,0,0,4.4,4.4h2.942l4.5-4.5A3.586,3.586,0,0,0-58.816,0" transform="translate(67.181)" fill="#ffe5c2"/>
          </g>
          <g id="g815" transform="translate(31.886 25.578)">
            <path id="path817" d="M-58.816,0h-6.4a1.962,1.962,0,0,0-1.962,1.962v.814a4.4,4.4,0,0,0,4.4,4.4h2.942l4.5-4.5A3.586,3.586,0,0,0-58.816,0Z" transform="translate(67.181)" fill="none" stroke="#000" stroke-linecap="round" stroke-linejoin="round" stroke-miterlimit="10" stroke-width="3"/>
          </g>
          <g id="g819" transform="translate(3.631 56.177)">
            <path id="path821" d="M-191.446-145.3l-6.562,6.562a1.2,1.2,0,0,1-1.693,0l-18.622-18.622a1.2,1.2,0,0,1,0-1.693l6.562-6.562a1.2,1.2,0,0,1,1.693,0L-191.446-147a1.2,1.2,0,0,1,0,1.693" transform="translate(218.673 165.97)" fill="#97d729"/>
          </g>
          <g id="g823" transform="translate(3.631 56.177)">
            <path id="path825" d="M-50.475-60.51a1.2,1.2,0,0,1,0-1.693L-46.48-66.2l-2.568-2.568a1.2,1.2,0,0,0-1.693,0L-57.3-62.2a1.2,1.2,0,0,0,0,1.693l18.622,18.622a1.2,1.2,0,0,0,1.693,0l2.568-2.568Z" transform="translate(57.654 69.116)" fill="#8bc727"/>
          </g>
          <g id="g827" transform="translate(3.631 56.177)">
            <path id="path829" d="M-191.446-145.3l-6.562,6.562a1.2,1.2,0,0,1-1.693,0l-18.622-18.622a1.2,1.2,0,0,1,0-1.693l6.562-6.562a1.2,1.2,0,0,1,1.693,0L-191.446-147A1.2,1.2,0,0,1-191.446-145.3Z" transform="translate(218.673 165.97)" fill="none" stroke="#000" stroke-linecap="round" stroke-linejoin="round" stroke-miterlimit="10" stroke-width="3"/>
          </g>
          <g id="g831" transform="translate(52.146 1.245)">
            <path id="path833" d="M-102.739,0c-4.333,0-8.421,4.326-12.029,3.149a.829.829,0,0,0-1.028.516,26.365,26.365,0,0,0-1.554,8.94c0,10.2,5.775,17.586,14.233,21.954a.827.827,0,0,0,.758,0C-93.9,30.191-88.127,22.8-88.127,12.6a26.369,26.369,0,0,0-1.554-8.94.83.83,0,0,0-1.028-.516C-94.318,4.326-98.406,0-102.739,0" transform="translate(117.35)" fill="#fed402"/>
          </g>
          <g id="g835" transform="translate(52.146 3.213)">
            <path id="path837" d="M-50.044-57.866a26.379,26.379,0,0,1,1.311-8.23c-2.052.955-4.011,1.78-5.846,1.181a.83.83,0,0,0-1.028.516,26.364,26.364,0,0,0-1.554,8.94c0,10.2,5.775,17.586,14.232,21.954a.828.828,0,0,0,.758,0,31.392,31.392,0,0,0,4.967-3.17c-7.692-4.442-12.84-11.563-12.84-21.191" transform="translate(57.161 66.096)" fill="#fac600"/>
          </g>
          <g id="g839" transform="translate(52.146 1.245)">
            <path id="path841" d="M-102.739,0c-4.333,0-8.421,4.326-12.029,3.149a.829.829,0,0,0-1.028.516,26.365,26.365,0,0,0-1.554,8.94c0,10.2,5.775,17.586,14.233,21.954a.827.827,0,0,0,.758,0C-93.9,30.191-88.127,22.8-88.127,12.6a26.369,26.369,0,0,0-1.554-8.94.83.83,0,0,0-1.028-.516C-94.318,4.326-98.406,0-102.739,0Z" transform="translate(117.35)" fill="none" stroke="#000" stroke-linecap="round" stroke-linejoin="round" stroke-miterlimit="10" stroke-width="3"/>
          </g>
          <g id="g843" transform="translate(58.145 8.24)">
            <path id="path845" d="M-121.117-60.558a8.613,8.613,0,0,1-8.613,8.613,8.613,8.613,0,0,1-8.613-8.613,8.613,8.613,0,0,1,8.613-8.613,8.613,8.613,0,0,1,8.613,8.613" transform="translate(138.342 69.17)" fill="#97d729"/>
          </g>
          <g id="g847" transform="translate(58.145 8.24)">
            <path id="path849" d="M-42.913-60.558a8.614,8.614,0,0,1,5.561-8.054A8.591,8.591,0,0,0-40.4-69.17a8.613,8.613,0,0,0-8.613,8.613A8.613,8.613,0,0,0-40.4-51.945a8.588,8.588,0,0,0,3.052-.558,8.614,8.614,0,0,1-5.561-8.054" transform="translate(49.016 69.17)" fill="#8bc727"/>
          </g>
          <g id="g851" transform="translate(58.145 8.241)">
            <path id="path853" d="M-118.36-42.447a8.616,8.616,0,0,0-8.22-6.037,8.613,8.613,0,0,0-8.613,8.613,8.613,8.613,0,0,0,8.613,8.613,8.613,8.613,0,0,0,7.982-5.378" transform="translate(135.193 48.484)" fill="none" stroke="#000" stroke-linecap="round" stroke-linejoin="round" stroke-miterlimit="10" stroke-width="3"/>
          </g>
          <g id="g855" transform="translate(62.614 14.706)">
            <path id="path857" d="M0-8.19,3.561-4.629,8.286-9.355" transform="translate(0 9.355)" fill="none" stroke="#000" stroke-linecap="round" stroke-linejoin="round" stroke-miterlimit="10" stroke-width="3"/>
          </g>
        </g>
      </g>
    </g>
  </g>
</svg>
