<svg xmlns="http://www.w3.org/2000/svg" width="109" height="109" viewBox="0 0 109 109">
  <g id="Grupo_112769" data-name="Grupo 112769" transform="translate(-996 -3985)">
    <g id="Elipse_5380" data-name="Elipse 5380" transform="translate(996 3985)" fill="#fff" stroke="#3d46c2" stroke-width="4">
      <circle cx="54.5" cy="54.5" r="54.5" stroke="none"/>
      <circle cx="54.5" cy="54.5" r="52.5" fill="none"/>
    </g>
    <g id="_021-beneficios-2" data-name="021-beneficios-2" transform="translate(1015.215 4002.807)">
      <path id="Trazado_160950" data-name="Trazado 160950" d="M29.341,318.292V293.855H18.422a1.316,1.316,0,0,0-1.309,1.323v25.733a100.434,100.434,0,0,0,12.228-2.619Zm0,0" transform="translate(-14.754 -253.422)" fill="#b1e874"/>
      <path id="Trazado_160951" data-name="Trazado 160951" d="M21.248,295.179a1.317,1.317,0,0,1,1.309-1.323H18.422a1.316,1.316,0,0,0-1.309,1.323v25.733c1.308-.2,2.69-.43,4.135-.709Zm0,0" transform="translate(-14.754 -253.422)" fill="#b1e874"/>
      <path id="Trazado_160952" data-name="Trazado 160952" d="M117.06,231.825V198.574H106.14a1.316,1.316,0,0,0-1.308,1.323v36.246a97.382,97.382,0,0,0,12.228-4.319Zm0,0" transform="translate(-90.383 -171.273)" fill="#b1e874"/>
      <path id="Trazado_160953" data-name="Trazado 160953" d="M108.967,199.9a1.316,1.316,0,0,1,1.309-1.323H106.14a1.316,1.316,0,0,0-1.308,1.323v36.246q2.024-.568,4.135-1.258Zm0,0" transform="translate(-90.383 -171.274)" fill="#b1e874"/>
      <path id="Trazado_160954" data-name="Trazado 160954" d="M204.775,143.288V103.293H193.856a1.317,1.317,0,0,0-1.309,1.323v45.06A91.563,91.563,0,0,0,204.775,143.288Zm0,0" transform="translate(-166.008 -89.125)" fill="#b1e874"/>
      <path id="Trazado_160955" data-name="Trazado 160955" d="M196.683,104.617a1.316,1.316,0,0,1,1.309-1.323h-4.135a1.317,1.317,0,0,0-1.309,1.323v45.06q2.052-.884,4.135-1.9Zm0,0" transform="translate(-166.008 -89.125)" fill="#b1e874"/>
      <path id="Trazado_160956" data-name="Trazado 160956" d="M292.493,51.949V9.335a1.316,1.316,0,0,0-1.308-1.323h-9.611a1.316,1.316,0,0,0-1.308,1.323v51.8a87.6,87.6,0,0,0,12.228-9.189Zm0,0" transform="translate(-241.636 -6.976)" fill="#b1e874"/>
      <path id="Trazado_160957" data-name="Trazado 160957" d="M284.4,9.335a1.316,1.316,0,0,1,1.309-1.323h-4.135a1.316,1.316,0,0,0-1.309,1.323v51.8q2.072-1.292,4.135-2.743Zm0,0" transform="translate(-241.637 -6.976)" fill="#b1e874"/>
      <path id="Trazado_160958" data-name="Trazado 160958" d="M75.911,226.355H62.264a.462.462,0,0,0-.333.783l3.707,3.836a.464.464,0,0,1,.017.625C47,253.124,23.014,259.915,8.426,262.029a.65.65,0,0,0,.117,1.292C45.556,262,68.508,240.875,71.4,238.065a.462.462,0,0,1,.636-.006l3.559,3.3a.462.462,0,0,0,.776-.339V226.817a.462.462,0,0,0-.462-.462Zm0,0" transform="translate(-6.786 -195.225)" fill="#f85316"/>
      <path id="Trazado_160959" data-name="Trazado 160959" d="M13.887,262.673a.648.648,0,0,1,.555-.642c14.588-2.114,38.576-8.905,57.23-30.43a.464.464,0,0,0-.017-.625l-3.707-3.836a.462.462,0,0,1,.332-.783H62.264a.462.462,0,0,0-.332.783l3.707,3.836a.464.464,0,0,1,.017.625C47,253.125,23.014,259.917,8.426,262.03a.65.65,0,0,0,.117,1.292q2.765-.1,5.424-.342a.641.641,0,0,1-.081-.308Zm0,0" transform="translate(-6.786 -195.226)" fill="#ff642b"/>
      <path id="Trazado_160960" data-name="Trazado 160960" d="M1.683,69.629h.059A100.858,100.858,0,0,0,37.981,61.51a1.034,1.034,0,1,0-.814-1.9A98.865,98.865,0,0,1,8.8,67.052c19.82-4.3,37.608-14.276,50.8-29.5a1.489,1.489,0,0,0-.055-2.02l-2.771-2.866H68.5V44.986l-2.6-2.412a1.5,1.5,0,0,0-2.059.023A89.738,89.738,0,0,1,41.555,57.606a1.034,1.034,0,1,0,.9,1.859A93.419,93.419,0,0,0,64.89,44.456l3.165,2.936a1.5,1.5,0,0,0,2.513-1.1v-14.2a1.5,1.5,0,0,0-1.5-1.5H55.426a1.5,1.5,0,0,0-1.076,2.536l3.343,3.459q-2.854,3.255-5.854,6.065V26.919a1.034,1.034,0,1,0-2.067,0v17.6A86.889,86.889,0,0,1,39.611,52.2V2.842a.276.276,0,0,1,.275-.275H49.5a.275.275,0,0,1,.275.275V22.095a1.034,1.034,0,1,0,2.067,0V2.843A2.345,2.345,0,0,0,49.5.5h-9.61a2.345,2.345,0,0,0-2.343,2.343V13.488H27.658a2.345,2.345,0,0,0-2.342,2.343V26.477H15.43a2.345,2.345,0,0,0-2.343,2.343V39.465H3.2A2.345,2.345,0,0,0,.86,41.808V66.479a1.683,1.683,0,0,0,.823,3.151Zm25.7-53.8a.275.275,0,0,1,.275-.275h9.886V53.5a91.047,91.047,0,0,1-10.16,5.319V15.831ZM15.156,28.819a.275.275,0,0,1,.275-.275h9.886V59.709A97.265,97.265,0,0,1,15.156,63.3V28.819ZM2.927,41.808a.275.275,0,0,1,.275-.275h9.886V63.877A100.68,100.68,0,0,1,2.927,66.052Zm0,0" transform="translate(0.001 -0.5)"/>
    </g>
  </g>
</svg>
