<svg xmlns="http://www.w3.org/2000/svg" width="109" height="109" viewBox="0 0 109 109">
  <g id="Grupo_112770" data-name="Grupo 112770" transform="translate(-996 -3368)">
    <g id="Elipse_5103" data-name="Elipse 5103" transform="translate(996 3368)" fill="#fff" stroke="#3d46c2" stroke-width="4">
      <circle cx="54.5" cy="54.5" r="54.5" stroke="none"/>
      <circle cx="54.5" cy="54.5" r="52.5" fill="none"/>
    </g>
    <g id="_018-bombilla" data-name="018-bombilla" transform="translate(1010.784 3381.671)">
      <g id="Grupo_112534" data-name="Grupo 112534" transform="translate(0 0)">
        <path id="Trazado_160897" data-name="Trazado 160897" d="M220.861,460.583v2.038a4.884,4.884,0,0,1-.029.532,4.8,4.8,0,0,1-4.767,4.263h-7.353a4.8,4.8,0,0,1-4.767-4.263,4.884,4.884,0,0,1-.029-.532v-2.038a5.091,5.091,0,0,0,2.078.44h12.788A5.091,5.091,0,0,0,220.861,460.583Z" transform="translate(-172.433 -386.957)" fill="#4752e3"/>
        <g id="Grupo_112533" data-name="Grupo 112533">
          <path id="Trazado_160898" data-name="Trazado 160898" d="M249.116,10.481a1.2,1.2,0,0,1-1.2-1.2V1.2a1.2,1.2,0,1,1,2.4,0V9.282a1.2,1.2,0,0,1-1.2,1.2Z" transform="translate(-209.4 0)" fill="#ffe7c9"/>
          <path id="Trazado_160899" data-name="Trazado 160899" d="M84.451,78.687a1.2,1.2,0,0,1-.848-.351l-5.715-5.716a1.2,1.2,0,0,1,1.7-1.7L85.3,76.641a1.2,1.2,0,0,1-.848,2.047Z" transform="translate(-66.255 -59.292)" fill="#ffe7c9"/>
          <path id="Trazado_160900" data-name="Trazado 160900" d="M16.245,243.351H8.162a1.2,1.2,0,1,1,0-2.4h8.083a1.2,1.2,0,0,1,0,2.4Z" transform="translate(-6.963 -202.436)" fill="#ffe7c9"/>
          <path id="Trazado_160901" data-name="Trazado 160901" d="M78.735,383.693a1.2,1.2,0,0,1-.848-2.047l5.715-5.715a1.2,1.2,0,1,1,1.7,1.7l-5.715,5.715A1.2,1.2,0,0,1,78.735,383.693Z" transform="translate(-66.255 -315.542)" fill="#ffe7c9"/>
          <path id="Trazado_160902" data-name="Trazado 160902" d="M389.456,383.693a1.2,1.2,0,0,1-.848-.351l-5.715-5.715a1.2,1.2,0,1,1,1.7-1.7l5.715,5.715a1.2,1.2,0,0,1-.848,2.047Z" transform="translate(-322.504 -315.542)" fill="#ffe7c9"/>
          <path id="Trazado_160903" data-name="Trazado 160903" d="M447.589,243.351h-8.083a1.2,1.2,0,0,1,0-2.4h8.083a1.2,1.2,0,0,1,0,2.4Z" transform="translate(-369.355 -202.436)" fill="#ffe7c9"/>
          <path id="Trazado_160904" data-name="Trazado 160904" d="M383.74,78.687a1.2,1.2,0,0,1-.848-2.047l5.715-5.716a1.2,1.2,0,0,1,1.7,1.7l-5.715,5.716A1.2,1.2,0,0,1,383.74,78.687Z" transform="translate(-322.504 -59.292)" fill="#ffe7c9"/>
        </g>
        <path id="Trazado_160905" data-name="Trazado 160905" d="M212.389,453.333s-7.838,1.442-8.472,1.159v2.038a4.883,4.883,0,0,0,.029.532,4.8,4.8,0,0,0,4.767,4.263h2.078a4.8,4.8,0,0,1-4.52-3.191.481.481,0,0,1,.451-.646h12.062a5.089,5.089,0,0,0,2.049-.427,4.883,4.883,0,0,0,.029-.532v-2.038C220.227,454.775,212.389,453.333,212.389,453.333Z" transform="translate(-172.433 -380.866)" fill="#838cfc"/>
        <path id="Trazado_160906" data-name="Trazado 160906" d="M207.465,382.6a5.111,5.111,0,0,1-5.115,5.115H189.562a5.111,5.111,0,0,1-5.115-5.115s-.075-7.472-.09-7.667v-.006l11.6-1.6,11.466,1.6Z" transform="translate(-156 -313.654)" fill="#4752e3"/>
        <path id="Trazado_160907" data-name="Trazado 160907" d="M193.558,396.121h-4a5.111,5.111,0,0,1-5.115-5.115s-.075-7.472-.09-7.667v-.006h4v.006c.014.2.09,7.667.09,7.667a5.111,5.111,0,0,0,5.115,5.115Z" transform="translate(-156 -322.056)" fill="#838cfc"/>
        <path id="Trazado_160908" data-name="Trazado 160908" d="M301.192,418.231h-4.076a1.2,1.2,0,1,1,0-2.4h4.064l.006,1.2Z" transform="translate(-249.727 -349.36)" fill="#838cfc"/>
        <path id="Trazado_160909" data-name="Trazado 160909" d="M199.312,417.032a1.2,1.2,0,0,1-1.2,1.2H184.764l-.027-2.4h13.377A1.2,1.2,0,0,1,199.312,417.032Z" transform="translate(-156.319 -349.36)" fill="#838cfc"/>
        <path id="Trazado_160910" data-name="Trazado 160910" d="M137.244,90.487h0c-12.346-.19-22.728,10.57-22.506,22.826a22.93,22.93,0,0,0,6.488,16.041c2.364,2.431,4.41,4.679,4.637,7.943l23.065.038c.129-3.36,2.04-5.63,4.42-8.116a22.927,22.927,0,0,0,6.359-15.907,22.657,22.657,0,0,0-22.464-22.826Z" transform="translate(-97.507 -76.02)" fill="#dce736"/>
        <path id="Trazado_160911" data-name="Trazado 160911" d="M148.929,137.332v.006l-23.065-.038c-.227-3.264-2.273-5.512-4.637-7.943a22.93,22.93,0,0,1-6.488-16.041c-.222-12.256,10.16-23.016,22.506-22.826.623,0,1.24.027,1.851.077a22.946,22.946,0,0,0-13.872,38.79c2.364,2.431,4.41,4.679,4.637,7.943Z" transform="translate(-97.506 -76.023)" fill="#f3ff3c"/>
        <path id="Trazado_160912" data-name="Trazado 160912" d="M194.65,210.987A2.637,2.637,0,0,1,192.665,212l-.1,0a2.638,2.638,0,0,1-1.957-.869l-7.513-8.312a2.638,2.638,0,0,1,3.914-3.537l5.4,5.978,8.62-11.1A2.638,2.638,0,1,1,205.2,197.4Z" transform="translate(-154.369 -162.269)" fill="#f3ff3c"/>
      </g>
      <g id="Grupo_112535" data-name="Grupo 112535" transform="translate(0 0)">
        <path id="Trazado_160913" data-name="Trazado 160913" d="M249.116,10.481a1.2,1.2,0,0,0,1.2-1.2V1.2a1.2,1.2,0,0,0-2.4,0V9.282A1.2,1.2,0,0,0,249.116,10.481Z" transform="translate(-209.4 0)"/>
        <path id="Trazado_160914" data-name="Trazado 160914" d="M83.6,78.336a1.2,1.2,0,0,0,1.7-1.7l-5.715-5.716a1.2,1.2,0,0,0-1.7,1.7Z" transform="translate(-66.255 -59.292)"/>
        <path id="Trazado_160915" data-name="Trazado 160915" d="M16.245,240.953H8.162a1.2,1.2,0,1,0,0,2.4h8.083a1.2,1.2,0,0,0,0-2.4Z" transform="translate(-6.963 -202.436)"/>
        <path id="Trazado_160916" data-name="Trazado 160916" d="M83.6,375.931l-5.715,5.715a1.2,1.2,0,0,0,1.7,1.7l5.715-5.715a1.2,1.2,0,0,0-1.7-1.7Z" transform="translate(-66.255 -315.542)"/>
        <path id="Trazado_160917" data-name="Trazado 160917" d="M384.589,375.93a1.2,1.2,0,1,0-1.7,1.7l5.715,5.715a1.2,1.2,0,0,0,1.7-1.7Z" transform="translate(-322.504 -315.541)"/>
        <path id="Trazado_160918" data-name="Trazado 160918" d="M447.589,240.953h-8.083a1.2,1.2,0,0,0,0,2.4h8.083a1.2,1.2,0,0,0,0-2.4Z" transform="translate(-369.355 -202.436)"/>
        <path id="Trazado_160919" data-name="Trazado 160919" d="M388.609,70.925l-5.715,5.716a1.2,1.2,0,1,0,1.7,1.7l5.715-5.716a1.2,1.2,0,0,0-1.7-1.7Z" transform="translate(-322.504 -59.292)"/>
        <path id="Trazado_160920" data-name="Trazado 160920" d="M154.624,107.025A23.883,23.883,0,0,0,130.939,83a23.358,23.358,0,0,0-12.84,3.834,23.973,23.973,0,0,0-8.58,9.927,1.2,1.2,0,0,0,2.173,1.014,21.237,21.237,0,0,1,40.533,9.25A21.693,21.693,0,0,1,146.2,122.1c-2.24,2.339-4.147,4.575-4.637,7.707H120.63c-.618-3.252-2.836-5.533-4.829-7.581a21.675,21.675,0,0,1-6.148-15.2,22.151,22.151,0,0,1,.4-4.206,1.2,1.2,0,1,0-2.354-.456,24.54,24.54,0,0,0-.446,4.662,24.06,24.06,0,0,0,6.828,16.877c2.529,2.6,4.319,4.673,4.319,7.713,0,.011,0,.021,0,.032l.069,7.036a6.317,6.317,0,0,0,3.037,5.4V145.4a6,6,0,0,0,5.995,5.995h7.353a6,6,0,0,0,5.995-5.995v-1.318a6.317,6.317,0,0,0,3.037-5.4s-.008-7.837-.024-7.915c.227-2.779,1.912-4.754,4.068-7.006a24.081,24.081,0,0,0,6.693-16.737ZM138.452,145.4a3.6,3.6,0,0,1-3.6,3.6H127.5a3.6,3.6,0,0,1-3.6-3.6v-.462a6.331,6.331,0,0,0,.879.062h12.788a6.357,6.357,0,0,0,.879-.062Zm-.879-2.8H124.785a3.921,3.921,0,0,1-3.916-3.916v-.08h12.149a1.2,1.2,0,1,0,0-2.4H120.868v-4h20.584l.037,4h-2.877a1.2,1.2,0,1,0,0,2.4h2.877v.08A3.921,3.921,0,0,1,137.573,142.6Z" transform="translate(-91.223 -69.732)"/>
        <path id="Trazado_160921" data-name="Trazado 160921" d="M195.578,193.413a1.2,1.2,0,1,0,1.894,1.47l2.373-3.057a3.836,3.836,0,0,0-6.061-4.706l-7.743,9.972-4.444-4.917a3.837,3.837,0,0,0-5.692,5.145l7.513,8.312a3.861,3.861,0,0,0,5.876-.22l4.745-6.111a1.2,1.2,0,0,0-1.894-1.471l-4.745,6.111a1.447,1.447,0,0,1-2.2.082l-7.513-8.312a1.439,1.439,0,1,1,2.135-1.929l5.4,5.978a1.208,1.208,0,0,0,1.836-.069l8.62-11.1a1.439,1.439,0,1,1,2.273,1.765Z" transform="translate(-148.067 -155.962)"/>
      </g>
    </g>
  </g>
</svg>
