<svg xmlns="http://www.w3.org/2000/svg" width="147" height="147" viewBox="0 0 147 147">
  <g id="Grupo_112772" data-name="Grupo 112772" transform="translate(-254 -3596.93)">
    <g id="Elipse_5103" data-name="Elipse 5103" transform="translate(254 3596.93)" fill="#fff" stroke="#3d46c2" stroke-width="4">
      <circle cx="73.5" cy="73.5" r="73.5" stroke="none"/>
      <circle cx="73.5" cy="73.5" r="71.5" fill="none"/>
    </g>
    <g id="_012-instrucciones-1" data-name="012-instrucciones-1" transform="translate(281 3625.93)">
      <g id="Grupo_112502" data-name="Grupo 112502" transform="translate(0 0)">
        <g id="Grupo_112486" data-name="Grupo 112486" transform="translate(46.465 8.7)">
          <path id="Trazado_160776" data-name="Trazado 160776" d="M254.932,59.191v5.792H267.76a1.642,1.642,0,0,1,1.64,1.64v59.241h29.2a1.823,1.823,0,0,0,1.823-1.823V59.191Z" transform="translate(-254.932 -59.191)" fill="#eaf6ff"/>
        </g>
        <g id="Grupo_112488" data-name="Grupo 112488" transform="translate(46.465 1.367)">
          <path id="Trazado_160778" data-name="Trazado 160778" d="M300.419,26.474H254.932V20.782a1.823,1.823,0,0,1,1.823-1.823H298.6a1.823,1.823,0,0,1,1.823,1.823Z" transform="translate(-254.932 -18.959)" fill="#3d46c2"/>
        </g>
        <g id="Grupo_112489" data-name="Grupo 112489" transform="translate(82.486 1.367)">
          <path id="Trazado_160779" data-name="Trazado 160779" d="M460.211,18.959h-7.643a1.823,1.823,0,0,1,1.823,1.823v5.693h7.643V20.782A1.823,1.823,0,0,0,460.211,18.959Z" transform="translate(-452.568 -18.959)" fill="#3d46c2"/>
        </g>
        <path id="Trazado_160780" data-name="Trazado 160780" d="M434.73,274.839h-4.659a.547.547,0,0,1-.547-.547v-4.659a.547.547,0,0,1,.547-.547h4.659a.547.547,0,0,1,.547.547v4.659A.547.547,0,0,1,434.73,274.839Z" transform="translate(-351.238 -222.13)" fill="#fff"/>
        <g id="Grupo_112490" data-name="Grupo 112490" transform="translate(7.814 14.31)">
          <path id="Trazado_160781" data-name="Trazado 160781" d="M94.353,89.971H44.7a1.823,1.823,0,0,0-1.823,1.823v58.169l2.8-2.8a.742.742,0,0,1,1.049,0l2.956,2.956a.742.742,0,0,1,0,1.049l-6.807,6.807v3.641a1.823,1.823,0,0,0,1.823,1.823H94.353a1.823,1.823,0,0,0,1.823-1.823V91.794a1.823,1.823,0,0,0-1.823-1.823Z" transform="translate(-42.874 -89.971)" fill="#dce736"/>
        </g>
        <g id="Grupo_112491" data-name="Grupo 112491" transform="translate(51.479 14.31)">
          <path id="Trazado_160782" data-name="Trazado 160782" d="M290.257,89.971h-7.814a1.823,1.823,0,0,1,1.823,1.823v69.82a1.823,1.823,0,0,1-1.823,1.823h7.814a1.823,1.823,0,0,0,1.823-1.823V91.794A1.823,1.823,0,0,0,290.257,89.971Z" transform="translate(-282.443 -89.971)" fill="#dce736"/>
        </g>
        <g id="Grupo_112492" data-name="Grupo 112492" transform="translate(42.73 70.576)">
          <path id="Trazado_160783" data-name="Trazado 160783" d="M242.28,407.43h-6.926a.911.911,0,0,1-.911-.911v-6.926a.911.911,0,0,1,.911-.911h6.926a.911.911,0,0,1,.911.911v6.926A.911.911,0,0,1,242.28,407.43Z" transform="translate(-234.443 -398.681)" fill="#75b62f"/>
        </g>
        <g id="Grupo_112493" data-name="Grupo 112493" transform="translate(46.842 70.576)">
          <path id="Trazado_160784" data-name="Trazado 160784" d="M260.726,398.681H257a.911.911,0,0,1,.911.911v6.926a.911.911,0,0,1-.911.911h3.726a.911.911,0,0,0,.911-.911v-6.926A.911.911,0,0,0,260.726,398.681Z" transform="translate(-257 -398.681)" fill="#75b62f"/>
        </g>
        <g id="Grupo_112494" data-name="Grupo 112494" transform="translate(17.021 21.634)">
          <ellipse id="Elipse_5408" data-name="Elipse 5408" cx="3.645" cy="3.645" rx="3.645" ry="3.645" fill="#75b62f"/>
        </g>
        <g id="Grupo_112495" data-name="Grupo 112495" transform="translate(19.082 21.634)">
          <path id="Trazado_160785" data-name="Trazado 160785" d="M106.279,130.158a3.623,3.623,0,0,0-1.585.366,3.639,3.639,0,0,1,0,6.558,3.644,3.644,0,1,0,1.585-6.924Z" transform="translate(-104.694 -130.158)" fill="#75b62f"/>
        </g>
        <g id="Grupo_112496" data-name="Grupo 112496" transform="translate(8.303 42.694)">
          <circle id="Elipse_5409" data-name="Elipse 5409" cx="12.416" cy="12.416" r="12.416" transform="translate(0 17.556) rotate(-45)" fill="#f85316"/>
        </g>
        <g id="Grupo_112497" data-name="Grupo 112497" transform="translate(18.009 52.394)">
          <path id="Trazado_160786" data-name="Trazado 160786" d="M106.665,314.641a7.859,7.859,0,1,1,7.859-7.859A7.868,7.868,0,0,1,106.665,314.641Z" transform="translate(-98.806 -298.923)" fill="#fff"/>
        </g>
        <g id="Grupo_112498" data-name="Grupo 112498" transform="translate(23.039 52.394)">
          <path id="Trazado_160787" data-name="Trazado 160787" d="M129.232,298.922a7.815,7.815,0,0,0-2.829.529,7.856,7.856,0,0,1,0,14.661,7.858,7.858,0,1,0,2.829-15.189Z" transform="translate(-126.403 -298.922)" fill="#f3f0f3"/>
        </g>
        <g id="Grupo_112499" data-name="Grupo 112499" transform="translate(1.367 71.1)">
          <path id="Trazado_160788" data-name="Trazado 160788" d="M16.62,401.826l-8.237,8.237a3.014,3.014,0,0,0,4.263,4.263l8.237-8.237a.924.924,0,0,0,0-1.307l-2.956-2.956a.924.924,0,0,0-1.307,0Z" transform="translate(-7.499 -401.556)" fill="#3d46c2"/>
        </g>
        <g id="Grupo_112500" data-name="Grupo 112500" transform="translate(2.513 71.1)">
          <path id="Trazado_160789" data-name="Trazado 160789" d="M26.024,404.782l-2.956-2.956a.924.924,0,0,0-1.307,0l-1.215,1.215,1.741,1.741a.924.924,0,0,1,0,1.307l-8.237,8.237a3.02,3.02,0,0,1-.263.232,3.013,3.013,0,0,0,4-.232l8.237-8.237A.924.924,0,0,0,26.024,404.782Z" transform="translate(-13.787 -401.556)" fill="#3d46c2"/>
        </g>
        <g id="Grupo_112501" data-name="Grupo 112501">
          <path id="Trazado_160790" data-name="Trazado 160790" d="M423.938,261.586a1.916,1.916,0,0,0-1.914,1.914v4.659a1.916,1.916,0,0,0,1.914,1.914H428.6a1.916,1.916,0,0,0,1.914-1.914V263.5a1.916,1.916,0,0,0-1.914-1.914Zm3.839,5.753h-3.019V264.32h3.019Z" transform="translate(-345.105 -215.997)"/>
          <path id="Trazado_160791" data-name="Trazado 160791" d="M422.425,153.262l2.716,2.716a1.367,1.367,0,0,0,.967.4c.032,0,.064,0,.1,0a1.367,1.367,0,0,0,1-.543l4.315-5.753a1.367,1.367,0,1,0-2.187-1.64l-3.369,4.492-1.6-1.6a1.367,1.367,0,0,0-1.933,1.933Z" transform="translate(-345.105 -123.025)"/>
          <path id="Trazado_160792" data-name="Trazado 160792" d="M425.142,101.63a1.367,1.367,0,0,0,.967.4c.032,0,.065,0,.1,0a1.367,1.367,0,0,0,1-.543l4.315-5.753a1.367,1.367,0,0,0-2.187-1.64l-3.369,4.492-1.6-1.6a1.367,1.367,0,1,0-1.933,1.933Z" transform="translate(-345.106 -78.583)"/>
          <path id="Trazado_160793" data-name="Trazado 160793" d="M425.142,210.328a1.367,1.367,0,0,0,.967.4c.032,0,.065,0,.1,0a1.367,1.367,0,0,0,1-.543l4.315-5.753a1.367,1.367,0,0,0-2.187-1.64l-3.369,4.492-1.6-1.6a1.367,1.367,0,1,0-1.933,1.933Z" transform="translate(-345.106 -167.469)"/>
          <path id="Trazado_160794" data-name="Trazado 160794" d="M423.391,335.234h5.753a1.367,1.367,0,1,0,0-2.734h-5.753a1.367,1.367,0,1,0,0,2.734Z" transform="translate(-345.105 -273.986)"/>
          <path id="Trazado_160795" data-name="Trazado 160795" d="M109.278,196.682H89.615a1.367,1.367,0,0,0,0,2.734h19.663a1.367,1.367,0,1,0,0-2.734Z" transform="translate(-72.164 -162.923)"/>
          <path id="Trazado_160796" data-name="Trazado 160796" d="M88.248,242.347a1.367,1.367,0,0,0,1.367,1.367h34.028a1.367,1.367,0,1,0,0-2.734H89.615A1.367,1.367,0,0,0,88.248,242.347Z" transform="translate(-72.164 -199.147)"/>
          <path id="Trazado_160797" data-name="Trazado 160797" d="M258.577,285.278h-3.952a1.367,1.367,0,0,0,0,2.734h3.952a1.367,1.367,0,1,0,0-2.734Z" transform="translate(-207.098 -235.371)"/>
          <path id="Trazado_160798" data-name="Trazado 160798" d="M89.615,439.182a1.367,1.367,0,0,0,0,2.734h14.627a1.367,1.367,0,0,0,0-2.734Z" transform="translate(-72.164 -361.224)"/>
          <path id="Trazado_160799" data-name="Trazado 160799" d="M236.147,391.182h-6.926a2.281,2.281,0,0,0-2.278,2.278v6.926a2.281,2.281,0,0,0,2.278,2.278h6.926a2.281,2.281,0,0,0,2.278-2.278V393.46A2.281,2.281,0,0,0,236.147,391.182Zm-.456,8.749h-6.015v-6.015h6.015Z" transform="translate(-185.58 -321.972)"/>
          <path id="Trazado_160800" data-name="Trazado 160800" d="M90.9,122.658a5.012,5.012,0,1,0,5.012,5.012A5.018,5.018,0,0,0,90.9,122.658Zm0,7.291a2.278,2.278,0,1,1,2.278-2.278A2.281,2.281,0,0,1,90.9,129.949Z" transform="translate(-70.234 -102.391)"/>
          <path id="Trazado_160801" data-name="Trazado 160801" d="M100.532,309.875a9.226,9.226,0,1,0-9.226-9.226A9.236,9.236,0,0,0,100.532,309.875Zm0-15.718a6.492,6.492,0,1,1-6.492,6.492A6.5,6.5,0,0,1,100.532,294.157Z" transform="translate(-74.664 -240.396)"/>
          <path id="Trazado_160802" data-name="Trazado 160802" d="M120.791,324.234h5.468a1.367,1.367,0,1,0,0-2.734h-5.468a1.367,1.367,0,1,0,0,2.734Z" transform="translate(-97.657 -264.991)"/>
          <path id="Trazado_160803" data-name="Trazado 160803" d="M120.791,349.234h5.468a1.367,1.367,0,0,0,0-2.734h-5.468a1.367,1.367,0,1,0,0,2.734Z" transform="translate(-97.657 -285.434)"/>
          <path id="Trazado_160804" data-name="Trazado 160804" d="M243.238,145.392a1.367,1.367,0,0,0,0-2.734h-7.371a1.367,1.367,0,1,0,0,2.734Z" transform="translate(-191.759 -118.745)"/>
          <path id="Trazado_160805" data-name="Trazado 160805" d="M90.129,11.459H48.287a3.193,3.193,0,0,0-3.19,3.19V24.4h-21.4a1.367,1.367,0,0,0,0,2.734h35.6a.456.456,0,0,1,.456.456v69.82a.456.456,0,0,1-.456.456H9.637a.456.456,0,0,1-.456-.456V94.592l6.533-6.533a2.291,2.291,0,0,0,0-3.24l-.512-.512,1.937-1.937a13.77,13.77,0,0,0,22.5-10.2H51.479a1.367,1.367,0,0,0,0-2.734H39.457a13.7,13.7,0,0,0-2.11-5.34h5.338a1.367,1.367,0,0,0,0-2.734H34.957a13.772,13.772,0,0,0-22.439,6.9,1.367,1.367,0,0,0,2.648.682,11.054,11.054,0,1,1,.042,5.679,1.367,1.367,0,1,0-2.638.719A13.7,13.7,0,0,0,15.2,80.439l-1.935,1.935-.511-.511a2.291,2.291,0,0,0-3.24,0l-.337.337V27.591a.456.456,0,0,1,.456-.456h7.678a1.367,1.367,0,1,0,0-2.734H9.637a3.193,3.193,0,0,0-3.19,3.19V84.934L1.281,90.1a4.383,4.383,0,0,0,5.166,6.962v.348a3.193,3.193,0,0,0,3.19,3.19H59.293a3.193,3.193,0,0,0,3.19-3.19V88.2h11.7a1.367,1.367,0,0,0,0-2.734h-11.7V80.18H84.039a1.367,1.367,0,0,0,0-2.734H62.482V72.707H73.816a1.367,1.367,0,1,0,0-2.734H62.482V62.736h9.506a1.367,1.367,0,0,0,0-2.734H62.482V52.83h9.506a1.367,1.367,0,0,0,0-2.734H62.482V42.924h9.506a1.367,1.367,0,0,0,0-2.734H62.482V33.019h9.506a1.367,1.367,0,0,0,0-2.734H62.482V27.591a3.193,3.193,0,0,0-3.19-3.19H47.831V21.708H90.584v63.3a.456.456,0,0,1-.456.456H80.56a1.367,1.367,0,0,0,0,2.734h9.569a3.193,3.193,0,0,0,3.19-3.19V14.649a3.193,3.193,0,0,0-3.19-3.19ZM3.214,94.363a1.65,1.65,0,0,1,0-2.33l7.924-7.924,2.33,2.33L5.543,94.363a1.648,1.648,0,0,1-2.329,0Zm87.37-75.389H47.832V14.649a.456.456,0,0,1,.456-.456H90.129a.456.456,0,0,1,.456.456Z" transform="translate(0 -11.459)"/>
        </g>
      </g>
    </g>
  </g>
</svg>
