<svg xmlns="http://www.w3.org/2000/svg" width="133" height="133" viewBox="0 0 133 133">
  <g id="Grupo_112848" data-name="Grupo 112848" transform="translate(-486 -2192)">
    <g id="Elipse_5487" data-name="Elipse 5487" transform="translate(486 2192)" fill="#fff" stroke="#3e4bbf" stroke-width="4">
      <circle cx="66.5" cy="66.5" r="66.5" stroke="none"/>
      <circle cx="66.5" cy="66.5" r="64.5" fill="none"/>
    </g>
    <g id="indicador" transform="translate(503 2217)">
      <path id="Trazado_162098" data-name="Trazado 162098" d="M18,3H75.333V71H18Z" transform="translate(5.333 0.333)" fill="#a7dbfc"/>
      <path id="Trazado_162099" data-name="Trazado 162099" d="M26,24h8V45.333H26Z" transform="translate(8 7.333)" fill="#ff8088"/>
      <circle id="Elipse_5498" data-name="Elipse 5498" cx="20" cy="20" r="20" transform="translate(3.333 40.667)" fill="#eaeaea"/>
      <path id="Trazado_162100" data-name="Trazado 162100" d="M27,66A19.972,19.972,0,0,1,11.016,34.012,19.981,19.981,0,1,0,38.984,61.98,19.879,19.879,0,0,1,27,66Z" transform="translate(0.333 10.671)" fill="#cfcfcf"/>
      <path id="Trazado_162101" data-name="Trazado 162101" d="M23.567,38.1l-4.221,2.3-1.3,5.341,2.36,1.241,3.661-4.1Z" transform="translate(5.349 12.033)" fill="#98c7e6"/>
      <circle id="Elipse_5499" data-name="Elipse 5499" cx="2.667" cy="2.667" r="2.667" transform="translate(20.667 58.089)" fill="#a7dbfc"/>
      <g id="Grupo_112847" data-name="Grupo 112847" transform="translate(48.667 8.667)">
        <path id="Trazado_162102" data-name="Trazado 162102" d="M51,9.667,59,15V7Z" transform="translate(-32.333 -7)" fill="#ff8088"/>
        <path id="Trazado_162103" data-name="Trazado 162103" d="M48,21h8V46.333H48Z" transform="translate(-33.333 -2.333)" fill="#ff8088"/>
        <path id="Trazado_162104" data-name="Trazado 162104" d="M37,19h8V47H37Z" transform="translate(-37 -3)" fill="#ff8088"/>
      </g>
      <path id="Trazado_162105" data-name="Trazado 162105" d="M25.2,37.253a1.326,1.326,0,0,0-1.257.009l-4.221,2.3a1.334,1.334,0,0,0-.657.855L17.9,45.22a4,4,0,1,0,4.891,2.569L26.08,44.1a1.333,1.333,0,0,0,.331-1.027l-.5-4.781a1.343,1.343,0,0,0-.709-1.04ZM20.182,49.676h0a1.334,1.334,0,1,1-.56-1.8A1.326,1.326,0,0,1,20.182,49.676Zm.919-4c-.081-.051-.153-.113-.24-.159s-.177-.068-.264-.107l.923-3.785,1.947-1.061.231,2.205Z" transform="translate(4.333 11.7)"/>
      <path id="Trazado_162106" data-name="Trazado 162106" d="M13,53h2.667v2.667H13Z" transform="translate(3.667 17)"/>
      <path id="Trazado_162107" data-name="Trazado 162107" d="M17,53h2.667v2.667H17Z" transform="translate(5 17)"/>
      <path id="Trazado_162108" data-name="Trazado 162108" d="M21,53h2.667v2.667H21Z" transform="translate(6.333 17)"/>
      <path id="Trazado_162109" data-name="Trazado 162109" d="M80.667,2H23.333A1.333,1.333,0,0,0,22,3.333V39.4A21.32,21.32,0,1,0,40.957,72.667H80.667A1.333,1.333,0,0,0,82,71.333v-68A1.333,1.333,0,0,0,80.667,2ZM23.333,79.333A18.676,18.676,0,0,1,4.735,62H8.667V59.333H4.735A18.558,18.558,0,0,1,9.243,48.461l2.777,2.777,1.885-1.885-2.777-2.777A18.562,18.562,0,0,1,22,42.068V46h2.667V42.068a18.558,18.558,0,0,1,10.872,4.508l-2.777,2.777,1.885,1.885,2.777-2.777a18.669,18.669,0,0,1,3.243,5.317V54h.081a18.484,18.484,0,0,1,1.184,5.333H38V62h3.932A18.676,18.676,0,0,1,23.333,79.333ZM40.667,48.277a21.491,21.491,0,0,0-5.333-5.236V32.667h5.333ZM79.333,70H42.487a21.015,21.015,0,0,0,.847-16.687V31.333A1.333,1.333,0,0,0,42,30H34a1.333,1.333,0,0,0-1.333,1.333v10.18a21.135,21.135,0,0,0-8-2.112V4.667H79.333Z"/>
      <path id="Trazado_162110" data-name="Trazado 162110" d="M56.333,48a1.333,1.333,0,0,0,1.333-1.333V21.333A1.333,1.333,0,0,0,56.333,20h-8A1.333,1.333,0,0,0,47,21.333V46.667A1.333,1.333,0,0,0,48.333,48ZM49.667,22.667H55V45.333H49.667Z" transform="translate(15 6)"/>
      <path id="Trazado_162111" data-name="Trazado 162111" d="M45.333,48.667a1.333,1.333,0,0,0,1.333-1.333v-28A1.333,1.333,0,0,0,45.333,18h-8A1.333,1.333,0,0,0,36,19.333v28a1.333,1.333,0,0,0,1.333,1.333Zm-6.667-28H44V46H38.667Z" transform="translate(11.333 5.333)"/>
      <path id="Trazado_162112" data-name="Trazado 162112" d="M36,43H65.333v2.667H36Z" transform="translate(11.333 13.667)"/>
      <path id="Trazado_162113" data-name="Trazado 162113" d="M31.747,23.333a1.336,1.336,0,0,0,.716-.208l14.112-8.981,14.049,5.109a1.335,1.335,0,0,0,1.5-.42l3.412-4.263,2.808,1.872a1.333,1.333,0,0,0,2.073-1.109v-8a1.334,1.334,0,0,0-1.755-1.265l-8,2.667a1.333,1.333,0,0,0-.317,2.375l2.965,1.977L60.639,16.42,46.87,11.413a1.339,1.339,0,0,0-1.172.128L31.514,20.568,21.4,18.04l-.645,2.587,10.667,2.667a1.328,1.328,0,0,0,.323.04Zm36-14.151v3.659L64.089,10.4Z" transform="translate(6.253 1.333)"/>
    </g>
  </g>
</svg>
