<svg xmlns="http://www.w3.org/2000/svg" width="133" height="133" viewBox="0 0 133 133">
  <g id="Grupo_112806" data-name="Grupo 112806" transform="translate(-745 -1668)">
    <g id="Elipse_5376" data-name="Elipse 5376" transform="translate(745 1668)" fill="#fff" stroke="#77b43a" stroke-width="4">
      <circle cx="66.5" cy="66.5" r="66.5" stroke="none"/>
      <circle cx="66.5" cy="66.5" r="64.5" fill="none"/>
    </g>
    <g id="plan-estrategico" transform="translate(750 1676)">
      <path id="Trazado_161983" data-name="Trazado 161983" d="M55.933,214.167a14.051,14.051,0,0,0-1.073-2.527L58,208.5l-5.667-5.667-3.14,3.14a14.051,14.051,0,0,0-2.527-1.073V200h-8.5v4.9a14.051,14.051,0,0,0-2.527,1.073l-3.14-3.14L26.833,208.5l3.14,3.14a14.052,14.052,0,0,0-1.073,2.527H24v8.5h4.9a14.051,14.051,0,0,0,1.073,2.527l-3.14,3.14L32.5,234l3.14-3.14a14.051,14.051,0,0,0,2.527,1.073v4.9h8.5v-4.9a14.051,14.051,0,0,0,2.527-1.073l3.14,3.14L58,228.333l-3.14-3.14a14.051,14.051,0,0,0,1.073-2.527h4.9v-8.5Z" transform="translate(-6.583 -151.417)" fill="#75b62f"/>
      <circle id="Elipse_5479" data-name="Elipse 5479" cx="9.917" cy="9.917" r="9.917" transform="translate(25.917 57.083)" fill="#e9eef2"/>
      <circle id="Elipse_5480" data-name="Elipse 5480" cx="4.25" cy="4.25" r="4.25" transform="translate(31.583 62.75)" fill="#2978b8"/>
      <path id="Trazado_161984" data-name="Trazado 161984" d="M192.667,106.167a5.667,5.667,0,0,0,5.667-5.667V24H136v82.167Z" transform="translate(-98.75 -6.583)" fill="#e9eef2"/>
      <path id="Trazado_161985" data-name="Trazado 161985" d="M60.209,50.987a11.335,11.335,0,0,0-2.92-5.032L36.836,25.5A5.13,5.13,0,0,0,33.208,24h0a5.13,5.13,0,0,0-3.628,1.5L25.5,29.581a5.13,5.13,0,0,0,0,7.255L45.956,57.289a11.333,11.333,0,0,0,5.032,2.92l12.679,3.458Z" transform="translate(-6.583 -6.583)" fill="#fbe9d8"/>
      <path id="Trazado_161986" data-name="Trazado 161986" d="M29.581,25.5,25.5,29.581A5.13,5.13,0,0,0,24,33.208h0a5.13,5.13,0,0,0,1.5,3.628L29.667,41,41,29.667,36.836,25.5A5.13,5.13,0,0,0,33.208,24h0a5.13,5.13,0,0,0-3.628,1.5Z" transform="translate(-6.583 -6.583)" fill="#eb423f"/>
      <path id="Trazado_161987" data-name="Trazado 161987" d="M104,408h56.667v8.5a5.667,5.667,0,0,0,5.667,5.667H109.667A5.667,5.667,0,0,1,104,416.5Z" transform="translate(-72.417 -322.583)" fill="#dadcde"/>
      <rect id="Rectángulo_41054" data-name="Rectángulo 41054" width="12.75" height="25.5" transform="translate(78.333 25.917)" fill="#dadcde"/>
      <path id="Trazado_161988" data-name="Trazado 161988" d="M197.72,204.194l8.9,2.43-2.43-8.9Z" transform="translate(-149.54 -149.541)" fill="#414649"/>
      <path id="Trazado_161989" data-name="Trazado 161989" d="M56,67.333,72.288,83.621l0,0L83.625,72.292l0,0L67.333,56Z" transform="translate(-32.917 -32.917)" fill="#f85316"/>
      <rect id="Rectángulo_41055" data-name="Rectángulo 41055" width="6.01" height="24.042" transform="translate(25.917 30.167) rotate(-45)" fill="#f85316"/>
      <circle id="Elipse_5481" data-name="Elipse 5481" cx="2.833" cy="2.833" r="2.833" transform="translate(65.583 65.583)" fill="#3397e8"/>
      <rect id="Rectángulo_41056" data-name="Rectángulo 41056" width="14.167" height="11.333" transform="translate(45.75 62.75)" fill="#eb423f"/>
      <rect id="Rectángulo_41057" data-name="Rectángulo 41057" width="14.167" height="11.333" transform="translate(76.917 62.75)" fill="#3dc285"/>
      <rect id="Rectángulo_41058" data-name="Rectángulo 41058" width="14.167" height="5.667" transform="translate(61.333 79.75)" fill="#ffd33a"/>
      <rect id="Rectángulo_41059" data-name="Rectángulo 41059" width="16.028" height="4.007" transform="translate(20.25 31.583) rotate(-45)" fill="#ffd33a"/>
      <path id="Trazado_161990" data-name="Trazado 161990" d="M99.583,16H37.25a1.417,1.417,0,0,0-1.417,1.417V22.5l-4.579-4.579a6.547,6.547,0,0,0-9.259,0L17.918,22a6.547,6.547,0,0,0,0,9.259L33.83,47.167H31.583a1.417,1.417,0,0,0-1.417,1.417v3.9q-.42.164-.831.352l-2.418-2.418a1.417,1.417,0,0,0-2,0l-5.667,5.667a1.417,1.417,0,0,0,0,2L21.667,60.5q-.188.41-.352.831h-3.9A1.417,1.417,0,0,0,16,62.75v8.5a1.417,1.417,0,0,0,1.417,1.417h3.9q.164.42.352.831l-2.418,2.418a1.417,1.417,0,0,0,0,2l5.667,5.667a1.417,1.417,0,0,0,2,0l2.418-2.418q.41.188.831.352v12.4A7.091,7.091,0,0,0,37.25,101H93.917A7.091,7.091,0,0,0,101,93.917v-76.5A1.417,1.417,0,0,0,99.583,16ZM48.7,39.375l-1.538,1.538L32.879,26.625l1.538-1.538Zm6.36,15.69-4.158-1.133,3.025-3.025Zm-7.306-1.993-2.982-.813a9.934,9.934,0,0,1-3.325-1.624l9.183-9.183a9.934,9.934,0,0,1,1.624,3.324l.813,2.982Zm-25.5-21.488,9.33-9.33.83.83-9.33,9.33Zm8.621-2.955L45.163,42.917l-2.246,2.246L28.629,30.875ZM19.921,24,24,19.921a3.713,3.713,0,0,1,5.252,0l.329.329-9.33,9.33-.329-.329a3.713,3.713,0,0,1,0-5.252Zm6.7,8.879L40.913,47.167,39.375,48.7,25.087,34.417Zm9.208,36.955a2.833,2.833,0,1,1,0-5.667Zm0-8.5a5.667,5.667,0,0,0,0,11.333V75.5a8.5,8.5,0,1,1,0-17ZM29.735,78.2a1.417,1.417,0,0,0-1.68.242L25.917,80.58l-3.663-3.663,2.138-2.138a1.417,1.417,0,0,0,.242-1.68,12.641,12.641,0,0,1-.965-2.272,1.417,1.417,0,0,0-1.352-.993H18.833V64.167h3.483a1.417,1.417,0,0,0,1.352-.993,12.642,12.642,0,0,1,.965-2.272,1.417,1.417,0,0,0-.242-1.68l-2.138-2.138,3.663-3.663,2.138,2.138a1.417,1.417,0,0,0,1.68.242,12.653,12.653,0,0,1,2.272-.965A1.417,1.417,0,0,0,33,53.483V50h2.833v5.667a11.333,11.333,0,1,0,0,22.667V84H33V80.517a1.417,1.417,0,0,0-.993-1.352,12.654,12.654,0,0,1-2.272-.965ZM37.25,98.167A4.255,4.255,0,0,1,33,93.917V86.833H86.833v7.083a7.047,7.047,0,0,0,1.42,4.25ZM67,68.417a1.417,1.417,0,1,1,1.417,1.417A1.417,1.417,0,0,1,67,68.417Zm7.083,12.75V84H62.75V81.167Zm24.083,12.75a4.25,4.25,0,0,1-8.5,0v-8.5A1.417,1.417,0,0,0,88.25,84H76.917V79.75A1.417,1.417,0,0,0,75.5,78.333H69.833v-5.91a4.271,4.271,0,0,0,2.59-2.59H75.5v4.25A1.417,1.417,0,0,0,76.917,75.5H91.083A1.417,1.417,0,0,0,92.5,74.083V62.75a1.417,1.417,0,0,0-1.417-1.417H76.917A1.417,1.417,0,0,0,75.5,62.75V67H72.423a4.25,4.25,0,0,0-8.013,0H61.333V62.75a1.417,1.417,0,0,0-1.417-1.417H45.75a1.417,1.417,0,0,0-1.417,1.417V74.083A1.417,1.417,0,0,0,45.75,75.5H59.917a1.417,1.417,0,0,0,1.417-1.417v-4.25H64.41A4.271,4.271,0,0,0,67,72.423v5.91H61.333a1.417,1.417,0,0,0-1.417,1.417V84H38.667V51.994a12.774,12.774,0,0,0,5.364,3L56.71,58.45a1.411,1.411,0,0,0,.373.05H79.75a1.417,1.417,0,0,0,1.417-1.417v-4.25h9.917A1.417,1.417,0,0,0,92.5,51.417v-25.5A1.417,1.417,0,0,0,91.083,24.5H79.75a1.417,1.417,0,0,0-1.417,1.417v29.75H58.165L56.62,50H71.25a1.417,1.417,0,1,0,0-2.833h-15.4l-.773-2.833H71.25a1.417,1.417,0,1,0,0-2.833H54a12.77,12.77,0,0,0-2-2.833h5.089a1.417,1.417,0,1,0,0-2.833H51.417a1.417,1.417,0,0,0-1.326.921L38.667,25.33v-6.5h59.5ZM78.333,72.667v-8.5H89.667v8.5ZM58.5,64.167v8.5H47.167v-8.5ZM81.167,50V27.333h8.5V50Z" transform="translate(0 0)"/>
      <path id="Trazado_161991" data-name="Trazado 161991" d="M225.417,66.833h5.667a1.417,1.417,0,1,0,0-2.833h-5.667a1.417,1.417,0,0,0,0,2.833Z" transform="translate(-171.167 -39.5)"/>
      <path id="Trazado_161992" data-name="Trazado 161992" d="M209.417,98.833H229.25a1.417,1.417,0,1,0,0-2.833H209.417a1.417,1.417,0,0,0,0,2.833Z" transform="translate(-158 -65.833)"/>
      <path id="Trazado_161993" data-name="Trazado 161993" d="M289.417,66.833h5.667a1.417,1.417,0,0,0,0-2.833h-5.667a1.417,1.417,0,0,0,0,2.833Z" transform="translate(-223.833 -39.5)"/>
      <path id="Trazado_161994" data-name="Trazado 161994" d="M281.917,128h-8.5a1.417,1.417,0,0,0,0,2.833h8.5a1.417,1.417,0,0,0,0-2.833Z" transform="translate(-210.667 -92.167)"/>
    </g>
  </g>
</svg>
