<svg xmlns="http://www.w3.org/2000/svg" width="133" height="133" viewBox="0 0 133 133">
  <g id="Grupo_112846" data-name="Grupo 112846" transform="translate(-1230 -2192)">
    <g id="Elipse_5490" data-name="Elipse 5490" transform="translate(1230 2192)" fill="#fff" stroke="#3e4bbf" stroke-width="4">
      <circle cx="66.5" cy="66.5" r="66.5" stroke="none"/>
      <circle cx="66.5" cy="66.5" r="64.5" fill="none"/>
    </g>
    <g id="gestion-de-equipos" transform="translate(1253.993 2217.565)">
      <g id="Grupo_112718" data-name="Grupo 112718" transform="translate(0 0.435)">
        <g id="Grupo_112694" data-name="Grupo 112694" transform="translate(22.444 1.187)">
          <g id="Grupo_112689" data-name="Grupo 112689">
            <circle id="Elipse_5412" data-name="Elipse 5412" cx="18.061" cy="18.061" r="18.061" fill="#dce736"/>
          </g>
          <g id="Grupo_112690" data-name="Grupo 112690" transform="translate(3.565 3.565)">
            <path id="Trazado_161149" data-name="Trazado 161149" d="M189.656,30.468a18.062,18.062,0,0,1-25.27,25.27,18.061,18.061,0,1,0,25.27-25.27Z" transform="translate(-164.386 -30.468)" fill="#f3ff3c"/>
          </g>
          <g id="Grupo_112693" data-name="Grupo 112693" transform="translate(7.3 6.68)">
            <g id="Grupo_112691" data-name="Grupo 112691">
              <path id="Trazado_161150" data-name="Trazado 161150" d="M206.744,61.48l2.348-2.55a1.6,1.6,0,0,0,.209-1.882l-1.382-2.394a1.6,1.6,0,0,0-1.734-.76l-3.381.759-.108-.062-1.034-3.307a1.6,1.6,0,0,0-1.526-1.122h-2.765a1.6,1.6,0,0,0-1.526,1.122l-1.034,3.307-.108.062-3.381-.759a1.6,1.6,0,0,0-1.734.76l-1.382,2.394a1.6,1.6,0,0,0,.209,1.882l2.348,2.55V61.6l-2.348,2.55a1.6,1.6,0,0,0-.209,1.882l1.382,2.394a1.6,1.6,0,0,0,1.734.76l3.381-.759.108.062,1.034,3.307a1.6,1.6,0,0,0,1.526,1.122h2.764a1.6,1.6,0,0,0,1.526-1.122l1.034-3.308.108-.062,3.381.759a1.6,1.6,0,0,0,1.734-.76l1.382-2.394a1.6,1.6,0,0,0-.209-1.882l-2.348-2.55V61.48Zm-7.99,2.619a2.557,2.557,0,1,1,2.557-2.557A2.557,2.557,0,0,1,198.755,64.1Z" transform="translate(-187.994 -50.161)" fill="#838cfc"/>
            </g>
            <g id="Grupo_112692" data-name="Grupo 112692" transform="translate(7.007 3.694)">
              <path id="Trazado_161151" data-name="Trazado 161151" d="M244.026,81.255v-.123l2.348-2.549a1.6,1.6,0,0,0,.209-1.882L245.2,74.307a1.6,1.6,0,0,0-1.734-.76l-1.92.431a11.259,11.259,0,0,1-9.264,14.768l.846,2.707a1.6,1.6,0,0,0,1.526,1.122h2.764a1.6,1.6,0,0,0,1.526-1.122l1.034-3.308.108-.062,3.381.759a1.6,1.6,0,0,0,1.734-.76l1.382-2.394a1.6,1.6,0,0,0-.209-1.882Z" transform="translate(-232.282 -73.507)" fill="#4752e3"/>
            </g>
          </g>
        </g>
        <g id="Grupo_112710" data-name="Grupo 112710" transform="translate(17.808 30.628)">
          <g id="Grupo_112699" data-name="Grupo 112699" transform="translate(25.575)">
            <g id="Grupo_112695" data-name="Grupo 112695" transform="translate(0 12.786)">
              <path id="Trazado_161152" data-name="Trazado 161152" d="M274.2,280.586v15.171h19.819V280.586a5.754,5.754,0,0,0-5.754-5.754h-8.311A5.754,5.754,0,0,0,274.2,280.586Z" transform="translate(-274.198 -274.832)" fill="#ff642b"/>
            </g>
            <g id="Grupo_112696" data-name="Grupo 112696" transform="translate(0 12.786)">
              <path id="Trazado_161153" data-name="Trazado 161153" d="M285.065,280.585a9.54,9.54,0,0,0-1.923-5.754h-3.19a5.754,5.754,0,0,0-5.754,5.754v15.171h10.867Z" transform="translate(-274.198 -274.831)" fill="#f85316"/>
            </g>
            <g id="Grupo_112697" data-name="Grupo 112697" transform="translate(3.516)">
              <circle id="Elipse_5413" data-name="Elipse 5413" cx="6.393" cy="6.393" r="6.393" fill="#fed2a4"/>
            </g>
            <g id="Grupo_112698" data-name="Grupo 112698" transform="translate(4.266 0.75)">
              <path id="Trazado_161154" data-name="Trazado 161154" d="M309.813,198.759a6.394,6.394,0,0,1-8.649,8.649,6.393,6.393,0,1,0,8.649-8.649Z" transform="translate(-301.164 -198.759)" fill="#ffbd86"/>
            </g>
          </g>
          <g id="Grupo_112704" data-name="Grupo 112704">
            <g id="Grupo_112700" data-name="Grupo 112700" transform="translate(0 12.786)">
              <path id="Trazado_161155" data-name="Trazado 161155" d="M112.552,280.586v15.171h19.819V280.586a5.754,5.754,0,0,0-5.754-5.754h-8.311A5.754,5.754,0,0,0,112.552,280.586Z" transform="translate(-112.552 -274.832)" fill="#ff642b"/>
            </g>
            <g id="Grupo_112701" data-name="Grupo 112701" transform="translate(8.952 12.786)">
              <path id="Trazado_161156" data-name="Trazado 161156" d="M180,295.757V280.586a5.754,5.754,0,0,0-5.754-5.754h-3.19a9.54,9.54,0,0,0-1.923,5.754v15.171Z" transform="translate(-169.13 -274.832)" fill="#f85316"/>
            </g>
            <g id="Grupo_112702" data-name="Grupo 112702" transform="translate(3.516)">
              <circle id="Elipse_5414" data-name="Elipse 5414" cx="6.393" cy="6.393" r="6.393" fill="#fed2a4"/>
            </g>
            <g id="Grupo_112703" data-name="Grupo 112703" transform="translate(4.266 0.75)">
              <path id="Trazado_161157" data-name="Trazado 161157" d="M148.167,198.759a6.394,6.394,0,0,1-8.649,8.649,6.393,6.393,0,1,0,8.649-8.649Z" transform="translate(-139.518 -198.759)" fill="#ffbd86"/>
            </g>
          </g>
          <g id="Grupo_112709" data-name="Grupo 112709" transform="translate(12.788)">
            <g id="Grupo_112705" data-name="Grupo 112705" transform="translate(0 12.786)">
              <path id="Trazado_161158" data-name="Trazado 161158" d="M193.375,280.586v15.171h19.819V280.586a5.754,5.754,0,0,0-5.754-5.754h-8.311A5.754,5.754,0,0,0,193.375,280.586Z" transform="translate(-193.375 -274.832)" fill="#838cfc"/>
            </g>
            <g id="Grupo_112706" data-name="Grupo 112706" transform="translate(9.909 12.786)">
              <path id="Trazado_161159" data-name="Trazado 161159" d="M260.163,274.832h-4.156a5.754,5.754,0,0,1,5.754,5.754v15.171h4.156V280.586A5.754,5.754,0,0,0,260.163,274.832Z" transform="translate(-256.007 -274.832)" fill="#4752e3"/>
            </g>
            <g id="Grupo_112707" data-name="Grupo 112707" transform="translate(3.516)">
              <circle id="Elipse_5415" data-name="Elipse 5415" cx="6.393" cy="6.393" r="6.393" fill="#fed2a4"/>
            </g>
            <g id="Grupo_112708" data-name="Grupo 112708" transform="translate(4.266 0.75)">
              <path id="Trazado_161160" data-name="Trazado 161160" d="M228.99,198.759a6.394,6.394,0,0,1-8.649,8.649,6.393,6.393,0,1,0,8.649-8.649Z" transform="translate(-220.341 -198.759)" fill="#ffbd86"/>
            </g>
          </g>
        </g>
        <g id="Grupo_112716" data-name="Grupo 112716" transform="translate(1.187 51.158)">
          <g id="Grupo_112711" data-name="Grupo 112711" transform="translate(10.229 5.509)">
            <path id="Trazado_161161" data-name="Trazado 161161" d="M72.152,358.6h5.754v20.458H72.152Z" transform="translate(-72.152 -358.597)" fill="#838cfc"/>
          </g>
          <g id="Grupo_112712" data-name="Grupo 112712" transform="translate(15.983)">
            <path id="Trazado_161162" data-name="Trazado 161162" d="M170.048,324.9a3.836,3.836,0,0,0-5.425,0l-12.058,12.058H141.444a3.836,3.836,0,0,0,0-7.672H129.3l-2.464-2a12.529,12.529,0,0,0-15.654-.1l-2.66,2.1v20.458l23.152,1.452a12.786,12.786,0,0,0,4.573-.544L154.23,345.1a6.4,6.4,0,0,0,2.634-1.588l13.184-13.184A3.836,3.836,0,0,0,170.048,324.9Z" transform="translate(-108.519 -323.775)" fill="#fed2a4"/>
          </g>
          <g id="Grupo_112713" data-name="Grupo 112713" transform="translate(38.963)">
            <path id="Trazado_161163" data-name="Trazado 161163" d="M292.312,324.9a3.836,3.836,0,0,0-5.425,0L274.83,336.956h-2.288a46.948,46.948,0,0,1-3.845,4.35,42.936,42.936,0,0,1-14.934,9.877l.171.011a12.786,12.786,0,0,0,4.573-.544l17.986-5.555a6.394,6.394,0,0,0,2.634-1.588l13.184-13.184A3.836,3.836,0,0,0,292.312,324.9Z" transform="translate(-253.763 -323.775)" fill="#ffbd86"/>
          </g>
          <g id="Grupo_112714" data-name="Grupo 112714" transform="translate(0 2.952)">
            <path id="Trazado_161164" data-name="Trazado 161164" d="M7.5,342.434H17.729v25.573H7.5Z" transform="translate(-7.5 -342.434)" fill="#838cfc"/>
          </g>
          <g id="Grupo_112715" data-name="Grupo 112715" transform="translate(6.713 2.952)">
            <path id="Trazado_161165" data-name="Trazado 161165" d="M49.928,342.434h3.516v25.573H49.928Z" transform="translate(-49.928 -342.434)" fill="#4752e3"/>
          </g>
        </g>
        <g id="Grupo_112717" data-name="Grupo 112717" transform="translate(0 0)">
          <circle id="Elipse_5416" data-name="Elipse 5416" cx="1.279" cy="1.279" r="1.279" transform="translate(5.022 57.946)"/>
          <circle id="Elipse_5417" data-name="Elipse 5417" cx="1.279" cy="1.279" r="1.279" transform="translate(5.022 63.06)"/>
          <path id="Trazado_161166" data-name="Trazado 161166" d="M239.831,102.17a3.744,3.744,0,1,0-3.744,3.744A3.748,3.748,0,0,0,239.831,102.17Zm-3.744,1.371a1.371,1.371,0,1,1,1.37-1.371A1.372,1.372,0,0,1,236.087,103.541Z" transform="translate(-195.582 -82.922)"/>
          <path id="Trazado_161167" data-name="Trazado 161167" d="M79.538,51.877a5.023,5.023,0,0,0-7.1,0l-8.047,8.048v-3.9a1.187,1.187,0,1,0-2.373,0V62.3l-1.289,1.289H54.36A5.025,5.025,0,0,0,51.6,56.145V49.6a6.91,6.91,0,0,0-1.721-4.567h7.569A4.572,4.572,0,0,1,62.015,49.6v.878a1.187,1.187,0,1,0,2.373,0V49.6a6.951,6.951,0,0,0-5.7-6.828A7.571,7.571,0,0,0,56.4,30.544a19.3,19.3,0,0,0,3.356-10.861,19.081,19.081,0,0,0-5.8-13.767,1.187,1.187,0,0,0-1.657,1.7,16.726,16.726,0,0,1,5.083,12.068A16.914,16.914,0,0,1,53.93,29.905c-.211-.018-.423-.029-.638-.029A7.579,7.579,0,0,0,46.9,33.393a7.636,7.636,0,0,0-2.618-2.5,2.816,2.816,0,0,0,.264-.593l.733-2.345,2.4.538A2.773,2.773,0,0,0,50.7,27.163l1.382-2.394a2.773,2.773,0,0,0-.363-3.279l-1.665-1.807,1.665-1.807a2.773,2.773,0,0,0,.363-3.279L50.7,12.2a2.773,2.773,0,0,0-3.021-1.325l-2.4.538L44.545,9.07a2.773,2.773,0,0,0-2.658-1.954H39.122A2.773,2.773,0,0,0,36.464,9.07l-.733,2.345-2.4-.538A2.773,2.773,0,0,0,30.312,12.2L28.93,14.6a2.773,2.773,0,0,0,.363,3.279l1.665,1.807L29.293,21.49a2.773,2.773,0,0,0-.363,3.279l1.382,2.394a2.773,2.773,0,0,0,3.022,1.325l2.4-.538.733,2.345a2.809,2.809,0,0,0,.264.593,7.634,7.634,0,0,0-2.618,2.5,7.579,7.579,0,0,0-6.394-3.517c-.215,0-.427.011-.638.029A16.874,16.874,0,0,1,40.5,2.808a16.7,16.7,0,0,1,7.6,1.8,1.187,1.187,0,0,0,1.07-2.119A19.052,19.052,0,0,0,40.5.435,19.249,19.249,0,0,0,24.613,30.544a7.571,7.571,0,0,0-2.29,12.232,6.95,6.95,0,0,0-5.7,6.828v6.313H12.6V54.545a1.187,1.187,0,0,0-1.187-1.187H1.187A1.187,1.187,0,0,0,0,54.545V80.118A1.187,1.187,0,0,0,1.187,81.3H11.416A1.187,1.187,0,0,0,12.6,80.118V78.747H17.14l15.563.977a1.187,1.187,0,1,0,.149-2.369l-14.495-.91V57.677l2.208-1.743a11.341,11.341,0,0,1,14.17.094l2.465,2a1.186,1.186,0,0,0,.747.265H50.094a2.649,2.649,0,0,1,0,5.3H36.349a1.186,1.186,0,0,0-.839.348l-1.678,1.678a1.187,1.187,0,1,0,1.678,1.678l1.331-1.331H61.217a1.187,1.187,0,0,0,.839-.348L74.113,53.556A2.65,2.65,0,0,1,77.86,57.3L64.676,70.487A5.223,5.223,0,0,1,62.53,71.78L44.543,77.335a11.543,11.543,0,0,1-4.148.494L38.378,77.7a1.187,1.187,0,1,0-.149,2.369l2.018.127q.442.028.882.028a13.887,13.887,0,0,0,4.115-.622L63.23,74.047a7.605,7.605,0,0,0,3.124-1.882L79.539,58.981a5.029,5.029,0,0,0,0-7.1ZM53.292,32.25a5.207,5.207,0,1,1-5.206,5.207A5.212,5.212,0,0,1,53.292,32.25Zm-14.17-2.373a.41.41,0,0,1-.393-.289L37.7,26.28a1.187,1.187,0,0,0-.539-.674l-.107-.062a1.187,1.187,0,0,0-.854-.131l-3.381.759a.41.41,0,0,1-.447-.2l-1.382-2.394a.41.41,0,0,1,.054-.485l2.348-2.55a1.187,1.187,0,0,0,.314-.8v-.123a1.187,1.187,0,0,0-.314-.8l-2.348-2.55a.41.41,0,0,1-.054-.485l1.382-2.394a.411.411,0,0,1,.447-.2l3.381.759a1.186,1.186,0,0,0,.854-.131l.107-.062a1.186,1.186,0,0,0,.539-.674L38.73,9.778a.41.41,0,0,1,.393-.289h2.765a.41.41,0,0,1,.393.289l1.033,3.307a1.186,1.186,0,0,0,.538.673l.108.062a1.186,1.186,0,0,0,.854.131l3.381-.759a.41.41,0,0,1,.447.2l1.382,2.394a.41.41,0,0,1-.054.485l-2.348,2.55a1.187,1.187,0,0,0-.314.8v.123a1.187,1.187,0,0,0,.314.8L49.97,23.1a.41.41,0,0,1,.054.485l-1.382,2.394a.411.411,0,0,1-.447.2l-3.381-.759a1.185,1.185,0,0,0-.852.13l-.109.063a1.186,1.186,0,0,0-.538.673L42.28,29.587a.41.41,0,0,1-.393.289H39.123ZM40.5,32.25A5.207,5.207,0,1,1,35.3,37.456,5.212,5.212,0,0,1,40.5,32.25Zm-12.788,0a5.207,5.207,0,1,1-5.206,5.207A5.213,5.213,0,0,1,27.717,32.25ZM10.229,78.931H2.373v-23.2h7.856ZM12.6,58.289h3.381V76.374H12.6ZM23.094,51.88a13.68,13.68,0,0,0-4,2.191l-.1.079V49.6a4.572,4.572,0,0,1,4.567-4.567H31.13A6.91,6.91,0,0,0,29.408,49.6v1.641a13.648,13.648,0,0,0-6.315.636Zm13.137,2.3a13.721,13.721,0,0,0-4.448-2.4V49.6a4.572,4.572,0,0,1,4.567-4.567H44.66A4.572,4.572,0,0,1,49.227,49.6v6.312H38.368Z" transform="translate(0 -0.435)"/>
        </g>
      </g>
    </g>
  </g>
</svg>
