<svg xmlns="http://www.w3.org/2000/svg" width="133" height="133" viewBox="0 0 133 133">
  <g id="Grupo_112820" data-name="Grupo 112820" transform="translate(-557.757 -138.457)">
    <g id="Elipse_5376" data-name="Elipse 5376" transform="translate(557.757 138.457)" fill="#fff" stroke="#77b43a" stroke-width="4">
      <circle cx="66.5" cy="66.5" r="66.5" stroke="none"/>
      <circle cx="66.5" cy="66.5" r="64.5" fill="none"/>
    </g>
    <g id="aprendizaje-automatico" transform="translate(581 161.457)">
      <g id="Grupo_112818" data-name="Grupo 112818" transform="translate(2.371 2.371)">
        <g id="Grupo_112808" data-name="Grupo 112808" transform="translate(0 0)">
          <path id="Trazado_161995" data-name="Trazado 161995" d="M10.555,49.065A8.247,8.247,0,0,1,6.867,38.3a8.227,8.227,0,0,1,.014-15.026,8.072,8.072,0,0,1-.768-3.455,8.2,8.2,0,0,1,4.442-7.294,8.577,8.577,0,0,1-.329-2.3,8.226,8.226,0,1,1,16.452,0V51.355a8.226,8.226,0,1,1-16.452,0A7.97,7.97,0,0,1,10.555,49.065Z" transform="translate(-2 -2)" fill="#ecc19c"/>
        </g>
        <g id="Grupo_112809" data-name="Grupo 112809" transform="translate(24.677 0)">
          <path id="Trazado_161996" data-name="Trazado 161996" d="M20,51.355V10.226a8.226,8.226,0,0,1,16.452,0,7.97,7.97,0,0,1-.329,2.29A8.247,8.247,0,0,1,39.81,23.277,8.227,8.227,0,0,1,39.8,38.3a8.072,8.072,0,0,1,.768,3.455,8.2,8.2,0,0,1-4.442,7.294,8.577,8.577,0,0,1,.329,2.3,8.226,8.226,0,1,1-16.452,0Z" transform="translate(-20 -2)" fill="#ecc19c"/>
        </g>
        <g id="Grupo_112810" data-name="Grupo 112810" transform="translate(60.323 8.226)">
          <path id="Trazado_161997" data-name="Trazado 161997" d="M51.484,8v8.226H46V8Z" transform="translate(-46 -8)" fill="#b4dd7f"/>
        </g>
        <g id="Grupo_112811" data-name="Grupo 112811" transform="translate(76.774 0)">
          <path id="Trazado_161998" data-name="Trazado 161998" d="M63.484,2V18.452H58V2Z" transform="translate(-58 -2)" fill="#b4dd7f"/>
        </g>
        <g id="Grupo_112812" data-name="Grupo 112812" transform="translate(71.29 2.742)">
          <path id="Trazado_161999" data-name="Trazado 161999" d="M59.484,4V17.71H54V4Z" transform="translate(-54 -4)" fill="#b4dd7f"/>
        </g>
        <g id="Grupo_112813" data-name="Grupo 112813" transform="translate(65.806 5.484)">
          <path id="Trazado_162000" data-name="Trazado 162000" d="M55.484,6V16.968H50V6Z" transform="translate(-50 -6)" fill="#b4dd7f"/>
        </g>
        <g id="Grupo_112814" data-name="Grupo 112814" transform="translate(60.323 60.323)">
          <path id="Trazado_162001" data-name="Trazado 162001" d="M67.935,54.226V59.71l-2.029.74c-.055.123-.1.26-.151.384l.9,1.947-3.88,3.88-1.947-.9c-.123.055-.26.1-.384.151l-.74,2.029H54.226l-.74-2.029c-.123-.055-.26-.1-.384-.151l-1.947.9-3.88-3.88.9-1.947c-.055-.123-.1-.26-.151-.384L46,59.71V54.226l2.029-.74c.055-.123.1-.26.151-.384l-.9-1.947,3.88-3.88,1.947.9c.123-.055.26-.1.384-.151L54.226,46H59.71l.74,2.029c.123.055.26.1.384.151l1.947-.9,3.88,3.88-.9,1.947c.055.123.1.26.151.384Zm-5.484,2.742a5.484,5.484,0,1,0-5.484,5.484A5.482,5.482,0,0,0,62.452,56.968Z" transform="translate(-46 -46)" fill="#fcd770"/>
        </g>
        <g id="Grupo_112815" data-name="Grupo 112815" transform="translate(67.177 46.613)">
          <path id="Trazado_162002" data-name="Trazado 162002" d="M59.226,36v1.371a4.113,4.113,0,0,1-8.226,0V36h8.226Z" transform="translate(-51 -36)" fill="#ccd1d9"/>
        </g>
        <g id="Grupo_112816" data-name="Grupo 112816" transform="translate(60.325 21.933)">
          <path id="Trazado_162003" data-name="Trazado 162003" d="M61.08,41.595v1.083H52.854V41.65a4.312,4.312,0,0,0-.356-1.714,3.721,3.721,0,0,0-1.426-1.727,10.965,10.965,0,1,1,11.818-.014A4.013,4.013,0,0,0,61.08,41.595Z" transform="translate(-46.002 -17.998)" fill="#ffeaa7"/>
        </g>
        <g id="Grupo_112817" data-name="Grupo 112817" transform="translate(68.548 30.161)">
          <circle id="Elipse_5482" data-name="Elipse 5482" cx="2.742" cy="2.742" r="2.742" fill="#fcd770"/>
        </g>
      </g>
      <g id="Grupo_112819" data-name="Grupo 112819" transform="translate(1 1)">
        <path id="Trazado_162004" data-name="Trazado 162004" d="M53,32.532h1.471a4.118,4.118,0,0,0,4.113-4.113V21.565a1.372,1.372,0,0,1,1.371-1.371H86V1H77.774V3.742H72.29V6.484H66.806V9.226H61.323v8.226H59.952a4.118,4.118,0,0,0-4.113,4.113v6.855a1.372,1.372,0,0,1-1.371,1.371H52.987a9.6,9.6,0,0,0-4.436-6.774,9.547,9.547,0,0,0-3.832-10.8,9.728,9.728,0,0,0,.152-1.623,9.6,9.6,0,0,0-17.823-4.94A9.6,9.6,0,0,0,9.226,10.6a9.449,9.449,0,0,0,.143,1.629A9.588,9.588,0,0,0,5.537,23.012a9.578,9.578,0,0,0,.01,16.294A9.547,9.547,0,0,0,9.378,50.1a9.741,9.741,0,0,0-.152,1.623A9.582,9.582,0,0,0,25.677,58.42v4.273a1.372,1.372,0,0,1-1.371,1.371H5.113a4.113,4.113,0,0,0,0,8.226H30.025a1.365,1.365,0,0,1,.971.4l1.135,1.135a4.083,4.083,0,0,0,2.909,1.205H61.323v2.332l1.811.657-.816,1.745L67.555,85l1.745-.817L69.958,86h7.4l.658-1.811,1.745.817L85,79.769l-.816-1.745L86,77.364V69.958L84.189,69.3,85,67.556l-5.237-5.237-1.745.817-.658-1.814h-7.4L69.3,63.134l-1.745-.817-5.237,5.237.816,1.745-1.812.659V72.29H35.04a1.365,1.365,0,0,1-.971-.4l-1.135-1.135a4.089,4.089,0,0,0-2.909-1.205H5.113a1.371,1.371,0,0,1,0-2.742H24.306a4.118,4.118,0,0,0,4.113-4.113V58.42a9.56,9.56,0,0,0,6.855,2.9H53.1A4.118,4.118,0,0,0,57.21,57.21V48.984a1.372,1.372,0,0,1,1.371-1.371h9.557a2.851,2.851,0,0,1,.04.343v2.4a5.484,5.484,0,0,0,10.968,0V47.9a2.64,2.64,0,0,1,1.182-2.248A12.333,12.333,0,0,0,81.879,26.07a12.338,12.338,0,0,0-20.453,7.588,12.258,12.258,0,0,0,4.523,11.213H58.581a4.118,4.118,0,0,0-4.113,4.113V57.21A1.372,1.372,0,0,1,53.1,58.581H41.977a9.56,9.56,0,0,0,2.894-6.855,9.449,9.449,0,0,0-.143-1.629A9.588,9.588,0,0,0,48.56,39.31,9.622,9.622,0,0,0,53,32.532ZM80.516,3.742h2.742v13.71H80.516ZM77.774,6.484V17.452H75.032V6.484ZM72.29,9.226v8.226H69.548V9.226Zm-8.226,2.742h2.742v5.484H64.065Zm0,59.913,1.128-.411.613-.291.58-1.4-.77-1.647,2.518-2.52,1.645.768,1.481-.61.621-1.708h3.563l.41,1.128.278.606,1.413.584,1.645-.768,2.518,2.52-.77,1.647.613,1.477,1.707.622v3.562l-1.128.411-.613.291-.58,1.4.77,1.647-2.518,2.52-1.642-.768-1.482.61-.622,1.708H71.879l-.41-1.128-.28-.607-1.413-.583-1.642.768-2.518-2.52.77-1.647-.613-1.477-1.708-.622Zm9.6-18.784a2.745,2.745,0,0,1-2.742-2.742H76.4A2.745,2.745,0,0,1,73.661,53.1ZM72.29,35.274a1.371,1.371,0,1,1,1.371,1.371A1.372,1.372,0,0,1,72.29,35.274ZM64.147,34a9.63,9.63,0,0,1,8.39-8.263,9.944,9.944,0,0,1,1.137-.066,9.484,9.484,0,0,1,6.378,2.438,9.592,9.592,0,0,1-1.208,15.233,5.349,5.349,0,0,0-2.424,4.266H75.032V39.135a4.113,4.113,0,1,0-2.742,0v8.478H70.9a5.346,5.346,0,0,0-2.4-4.254A9.557,9.557,0,0,1,64.147,34ZM18.823,58.581a6.863,6.863,0,0,1-6.855-6.855c0-.133.021-.265.027-.4a9.55,9.55,0,0,0,2.715.4V48.984a6.833,6.833,0,0,1-6.63-8.571,9.566,9.566,0,0,0,12.114-9.251H17.452A6.855,6.855,0,1,1,6.731,25.516,9.592,9.592,0,0,0,14.71,29.79V27.048a6.853,6.853,0,0,1-3.15-12.939l1-.52-.314-1.079A6.853,6.853,0,1,1,25.677,10.6V51.726A6.863,6.863,0,0,1,18.823,58.581ZM47.368,36.807a9.6,9.6,0,0,0-7.98-4.275v2.742a6.853,6.853,0,0,1,3.15,12.939l-1,.52.314,1.08a6.853,6.853,0,1,1-13.433,1.913V10.6a6.855,6.855,0,1,1,13.71,0c0,.133-.021.265-.027.4a9.551,9.551,0,0,0-2.715-.4v2.742a6.833,6.833,0,0,1,6.63,8.571A9.566,9.566,0,0,0,33.9,31.161h2.742a6.855,6.855,0,1,1,10.722,5.646Z" transform="translate(-1 -1)"/>
        <path id="Trazado_162005" data-name="Trazado 162005" d="M8,16.113h2.742a1.372,1.372,0,0,1,1.371-1.371V12A4.118,4.118,0,0,0,8,16.113Z" transform="translate(1.597 3.081)"/>
        <path id="Trazado_162006" data-name="Trazado 162006" d="M29,30.742a1.372,1.372,0,0,1,1.371,1.371h2.742A4.118,4.118,0,0,0,29,28Z" transform="translate(9.387 9.016)"/>
        <path id="Trazado_162007" data-name="Trazado 162007" d="M24,29v2.742a1.372,1.372,0,0,1,1.371,1.371h2.742A4.118,4.118,0,0,0,24,29Z" transform="translate(7.532 9.387)"/>
        <path id="Trazado_162008" data-name="Trazado 162008" d="M14,39.371v2.742A4.118,4.118,0,0,0,18.113,38H15.371A1.372,1.372,0,0,1,14,39.371Z" transform="translate(3.823 12.726)"/>
        <path id="Trazado_162009" data-name="Trazado 162009" d="M16.113,33.371A1.372,1.372,0,0,1,14.742,32H12a4.118,4.118,0,0,0,4.113,4.113Z" transform="translate(3.081 10.5)"/>
        <path id="Trazado_162010" data-name="Trazado 162010" d="M26.371,13.113h2.742A4.118,4.118,0,0,0,25,9v2.742A1.372,1.372,0,0,1,26.371,13.113Z" transform="translate(7.903 1.968)"/>
        <path id="Trazado_162011" data-name="Trazado 162011" d="M24.371,17.113h2.742A4.118,4.118,0,0,0,23,13v2.742A1.372,1.372,0,0,1,24.371,17.113Z" transform="translate(7.161 3.452)"/>
        <path id="Trazado_162012" data-name="Trazado 162012" d="M16.113,19.371A1.372,1.372,0,0,1,14.742,18H12a4.118,4.118,0,0,0,4.113,4.113Z" transform="translate(3.081 5.306)"/>
        <path id="Trazado_162013" data-name="Trazado 162013" d="M24.742,37H22a4.118,4.118,0,0,0,4.113,4.113V38.371A1.372,1.372,0,0,1,24.742,37Z" transform="translate(6.79 12.355)"/>
        <path id="Trazado_162014" data-name="Trazado 162014" d="M16.113,10.113V7.371A1.372,1.372,0,0,1,14.742,6H12A4.118,4.118,0,0,0,16.113,10.113Z" transform="translate(3.081 0.855)"/>
        <path id="Trazado_162015" data-name="Trazado 162015" d="M55.855,62.71A6.855,6.855,0,1,0,49,55.855,6.863,6.863,0,0,0,55.855,62.71Zm0-10.968a4.113,4.113,0,1,1-4.113,4.113A4.118,4.118,0,0,1,55.855,51.742Z" transform="translate(16.806 16.806)"/>
      </g>
    </g>
  </g>
</svg>
