<svg xmlns="http://www.w3.org/2000/svg" width="147" height="147" viewBox="0 0 147 147">
  <g id="Grupo_112771" data-name="Grupo 112771" transform="translate(-249 -4582.931)">
    <g id="Elipse_5107" data-name="Elipse 5107" transform="translate(249 4582.931)" fill="#fff" stroke="#3d46c2" stroke-width="4">
      <circle cx="73.5" cy="73.5" r="73.5" stroke="none"/>
      <circle cx="73.5" cy="73.5" r="71.5" fill="none"/>
    </g>
    <g id="_011-supermercado" data-name="011-supermercado" transform="translate(279 4612.931)">
      <g id="Grupo_112485" data-name="Grupo 112485" transform="translate(0)">
        <g id="Grupo_112484" data-name="Grupo 112484" transform="translate(1.285 1.285)">
          <path id="Trazado_160757" data-name="Trazado 160757" d="M37.5,105.485h74.851v66.091H37.5Z" transform="translate(-32.361 -88.702)" fill="#ecf5ff"/>
          <path id="Trazado_160758" data-name="Trazado 160758" d="M444.5,105.485h5.139v66.091H444.5Z" transform="translate(-369.649 -88.702)" fill="#dceafc"/>
          <path id="Trazado_160759" data-name="Trazado 160759" d="M9.213,85.7h81.7a1.715,1.715,0,0,1,1.713,1.716v1.716a1.715,1.715,0,0,1-1.713,1.716H9.213A1.715,1.715,0,0,1,7.5,89.137V87.42A1.715,1.715,0,0,1,9.213,85.7Z" transform="translate(-7.5 -72.309)" fill="#f85316"/>
          <path id="Trazado_160760" data-name="Trazado 160760" d="M469.639,85.7H464.5a1.715,1.715,0,0,1,1.713,1.716v1.716a1.715,1.715,0,0,1-1.713,1.716h5.139a1.715,1.715,0,0,0,1.713-1.716V87.42A1.715,1.715,0,0,0,469.639,85.7Z" transform="translate(-386.223 -72.309)" fill="#d4717f"/>
          <path id="Trazado_160761" data-name="Trazado 160761" d="M92.628,242.182H7.5l5.139-8.017H87.49Z" transform="translate(-7.5 -195.341)" fill="#e3a3ac"/>
          <path id="Trazado_160762" data-name="Trazado 160762" d="M449.639,234.165H444.5l5.139,8.017h5.138Z" transform="translate(-369.649 -195.341)" fill="#f85316"/>
          <path id="Trazado_160763" data-name="Trazado 160763" d="M188.072,310.968h23.27v28h-23.27Z" transform="translate(-157.143 -258.989)" fill="#bdd8fc"/>
          <path id="Trazado_160764" data-name="Trazado 160764" d="M293.927,310.968h5.139v28h-5.139Z" transform="translate(-244.867 -258.989)" fill="#3d46c2"/>
          <g id="Grupo_112483" data-name="Grupo 112483" transform="translate(26.594)">
            <ellipse id="Elipse_5407" data-name="Elipse 5407" cx="15.97" cy="15.97" rx="15.97" ry="15.97" fill="#dce736"/>
            <path id="Trazado_160765" data-name="Trazado 160765" d="M243.569,7.5A16.08,16.08,0,0,0,241,7.707a15.971,15.971,0,0,1,0,31.526A15.97,15.97,0,1,0,243.569,7.5Z" transform="translate(-227.599 -7.5)" fill="#75b62f"/>
            <g id="Grupo_112482" data-name="Grupo 112482" transform="translate(8.571 10.492)">
              <path id="Trazado_160766" data-name="Trazado 160766" d="M226.042,82.664H214.363a1.588,1.588,0,0,1-1.539-1.855l1.38-11.224a.967.967,0,0,1,.947-.83h10.1a.967.967,0,0,1,.947.83l1.38,11.224A1.588,1.588,0,0,1,226.042,82.664Z" transform="translate(-212.804 -68.756)" fill="#f85316"/>
            </g>
          </g>
          <path id="Trazado_160767" data-name="Trazado 160767" d="M7.5,280.968H92.628v6.52a1.2,1.2,0,0,1-1.2,1.2H8.7a1.2,1.2,0,0,1-1.2-1.2Z" transform="translate(-7.5 -234.127)" fill="#f85316"/>
          <path id="Trazado_160768" data-name="Trazado 160768" d="M468.7,280.968v6.52a1.2,1.2,0,0,1-1.2,1.2h5.139a1.2,1.2,0,0,0,1.2-1.2v-6.52Z" transform="translate(-388.709 -234.127)" fill="#d4717f"/>
          <path id="Trazado_160769" data-name="Trazado 160769" d="M368.243,379.1H355.127a1.2,1.2,0,0,1-1.2-1.2V369.29a1.2,1.2,0,0,1,1.2-1.2h13.116a1.2,1.2,0,0,1,1.2,1.2V377.9A1.2,1.2,0,0,1,368.243,379.1Z" transform="translate(-294.59 -306.327)" fill="#bdd8fc"/>
          <path id="Trazado_160770" data-name="Trazado 160770" d="M412.639,368.091H407.5a1.2,1.2,0,0,1,1.2,1.2V377.9a1.2,1.2,0,0,1-1.2,1.2h5.139a1.2,1.2,0,0,0,1.2-1.2V369.29A1.2,1.2,0,0,0,412.639,368.091Z" transform="translate(-338.986 -306.327)" fill="#3d46c2"/>
          <path id="Trazado_160771" data-name="Trazado 160771" d="M81.815,379.1H68.7a1.2,1.2,0,0,1-1.2-1.2V369.29a1.2,1.2,0,0,1,1.2-1.2H81.815a1.2,1.2,0,0,1,1.2,1.2V377.9A1.2,1.2,0,0,1,81.815,379.1Z" transform="translate(-57.223 -306.327)" fill="#bdd8fc"/>
          <path id="Trazado_160772" data-name="Trazado 160772" d="M9.213,474.437h81.7a1.715,1.715,0,0,1,1.713,1.716v1.716a1.715,1.715,0,0,1-1.713,1.716H9.213A1.715,1.715,0,0,1,7.5,477.87v-1.716A1.715,1.715,0,0,1,9.213,474.437Z" transform="translate(-7.5 -394.458)" fill="#dce736"/>
          <path id="Trazado_160773" data-name="Trazado 160773" d="M469.639,474.437H464.5a1.715,1.715,0,0,1,1.713,1.716v1.716a1.715,1.715,0,0,1-1.713,1.716h5.139a1.715,1.715,0,0,0,1.713-1.716v-1.716A1.715,1.715,0,0,0,469.639,474.437Z" transform="translate(-386.223 -394.458)" fill="#75b62f"/>
          <path id="Trazado_160774" data-name="Trazado 160774" d="M126.211,368.091h-5.139a1.2,1.2,0,0,1,1.2,1.2V377.9a1.2,1.2,0,0,1-1.2,1.2h5.139a1.2,1.2,0,0,0,1.2-1.2V369.29A1.2,1.2,0,0,0,126.211,368.091Z" transform="translate(-101.619 -306.327)" fill="#3d46c2"/>
        </g>
        <path id="Trazado_160775" data-name="Trazado 160775" d="M84.7,21.114a3,3,0,0,0,3-3V16.4a3,3,0,0,0-3-3H60.668A17.266,17.266,0,0,0,36.924,1.446,1.285,1.285,0,0,0,37.956,3.8a14.7,14.7,0,1,1-4.5,3.082,1.285,1.285,0,0,0-1.819-1.815,17.144,17.144,0,0,0-4.609,8.328H3a3,3,0,0,0-3,3v1.716a3,3,0,0,0,3,3H5.139V39.733L.2,47.432a1.352,1.352,0,0,0-.2.693v6.52a2.487,2.487,0,0,0,2.484,2.484H5.139V79.979H3a3,3,0,0,0-3,3V84.7a3,3,0,0,0,3,3H84.7a3,3,0,0,0,3-3V82.98a3,3,0,0,0-3-3H82.559V57.129h2.655A2.487,2.487,0,0,0,87.7,54.645v-6.52a1.217,1.217,0,0,0-.2-.693l-4.935-7.7V21.114ZM45.133,34.461A17.292,17.292,0,0,0,60.668,21.114h2.451v17.71H45.133ZM27.03,21.114A17.292,17.292,0,0,0,42.564,34.461v4.363H24.579V21.114ZM3,18.545a.43.43,0,0,1-.428-.432V16.4A.431.431,0,0,1,3,15.964H26.642q-.047.641-.047,1.291t.048,1.29H3ZM22.01,21.114v17.71H7.708V21.114ZM84.7,82.549a.43.43,0,0,1,.428.432V84.7a.43.43,0,0,1-.428.432H3a.43.43,0,0,1-.428-.432V82.98A.43.43,0,0,1,3,82.549ZM7.708,79.979V57.129H30.929V79.979H7.708Zm25.791,0V57.129h9.066V79.979H33.5ZM55.484,64.7a1.284,1.284,0,0,0,1.285-1.285V57.129H79.99V79.979H56.768V69.41a1.285,1.285,0,0,0-2.569,0V79.979H45.133V57.129H54.2v6.287A1.284,1.284,0,0,0,55.484,64.7ZM85.128,54.559H2.569V49.41H85.128Zm-1.065-7.718H3.634l3.492-5.447H80.572ZM65.688,38.824V21.114h14.3v17.71h-14.3ZM61.055,18.545q.048-.639.048-1.29t-.048-1.291H84.7a.431.431,0,0,1,.428.433v1.716a.43.43,0,0,1-.428.432H61.055ZM25.876,61.764H12.761a2.487,2.487,0,0,0-2.484,2.484V72.86a2.487,2.487,0,0,0,2.484,2.484H25.876A2.487,2.487,0,0,0,28.36,72.86V64.247A2.487,2.487,0,0,0,25.876,61.764Zm-.086,11.011H12.846V64.333H25.791ZM38.009,26.969H49.688a2.824,2.824,0,0,0,2.146-.993,2.91,2.91,0,0,0,.666-2.321L51.123,12.45A2.244,2.244,0,0,0,48.9,10.492H47.817V8.858a3.969,3.969,0,1,0-7.937,0v1.634H38.8a2.244,2.244,0,0,0-2.222,1.957L35.2,23.655a2.909,2.909,0,0,0,.666,2.321A2.824,2.824,0,0,0,38.009,26.969Zm4.44-18.111a1.4,1.4,0,1,1,2.8,0v1.634h-2.8Zm-4.71,15.17c0-.024,1.346-10.935,1.349-10.966h.792v1.485a1.285,1.285,0,1,0,2.569,0V13.062h2.8v1.485a1.285,1.285,0,1,0,2.569,0V13.062h.792c0,.033,1.344,10.935,1.349,10.966a.288.288,0,0,1-.27.372H38.009A.289.289,0,0,1,37.739,24.028ZM61.821,75.344H74.937A2.486,2.486,0,0,0,77.42,72.86V64.247a2.487,2.487,0,0,0-2.484-2.484H61.821a2.487,2.487,0,0,0-2.484,2.484V72.86A2.487,2.487,0,0,0,61.821,75.344Zm.086-11.011H74.851v8.442H61.907Z" transform="translate(0)" fill="#1e1d21"/>
      </g>
    </g>
  </g>
</svg>
