<svg xmlns="http://www.w3.org/2000/svg" width="190" height="110" viewBox="0 0 190 110">
  <g id="Grupo_108394" data-name="Grupo 108394" transform="translate(-180 -5713)">
    <rect id="Rect치ngulo_36775" data-name="Rect치ngulo 36775" width="190" height="110" transform="translate(180 5713)" fill="none"/>
    <rect id="Rect치ngulo_36776" data-name="Rect치ngulo 36776" width="161" height="75" rx="37.5" transform="translate(195 5731)" fill="#dce736" opacity="0.2"/>
    <g id="Information_Book" data-name="Information Book" transform="translate(220.667 5717.044)">
      <path id="Trazado_156600" data-name="Trazado 156600" d="M53.116,74.862a114.514,114.514,0,0,1,23.728-1.319,110.062,110.062,0,0,1,22.9,3.014.943.943,0,0,0,1.153-.948V14.393a.965.965,0,0,0-.821-.976,95.649,95.649,0,0,0-15.029-.828,96.909,96.909,0,0,0-31.933,6.262,96.909,96.909,0,0,0-31.933-6.262,95.649,95.649,0,0,0-15.029.828.965.965,0,0,0-.821.976V75.609a.943.943,0,0,0,1.153.948,110.06,110.06,0,0,1,22.9-3.014,114.515,114.515,0,0,1,23.728,1.319Z" transform="translate(0.792 4.44)" fill="#75b62f"/>
      <path id="Trazado_156601" data-name="Trazado 156601" d="M51.611,71.278a113.925,113.925,0,0,1,22.981-1.243,109.369,109.369,0,0,1,22.18,2.84.906.906,0,0,0,1.116-.894V14.288a.917.917,0,0,0-.795-.919,95.447,95.447,0,0,0-45.483,5.121A95.447,95.447,0,0,0,6.128,13.368a.917.917,0,0,0-.795.919V71.982a.906.906,0,0,0,1.116.894,109.37,109.37,0,0,1,22.18-2.84,113.926,113.926,0,0,1,22.981,1.243Z" transform="translate(0.792 4.44)" fill="#96e83c"/>
      <path id="Trazado_156602" data-name="Trazado 156602" d="M50.567,74.96a60.577,60.577,0,0,0-40.86-5.215.936.936,0,0,1-1.154-.912V12.422a.932.932,0,0,1,.813-.935,65.1,65.1,0,0,1,41.2,8.289,65.1,65.1,0,0,1,41.2-8.289.932.932,0,0,1,.813.935V68.833a.936.936,0,0,1-1.154.912,60.577,60.577,0,0,0-40.86,5.215Z" transform="translate(3.341 3.152)" fill="#d2d2d2"/>
      <path id="Trazado_156603" data-name="Trazado 156603" d="M48.878,70.9a59.22,59.22,0,0,0-22.323-6.1A59.913,59.913,0,0,0,9.66,66.014a.894.894,0,0,1-1.107-.854V12.327a.88.88,0,0,1,.78-.876,64.334,64.334,0,0,1,16.145-.009,63.489,63.489,0,0,1,23.4,7.772,63.489,63.489,0,0,1,23.4-7.772,64.334,64.334,0,0,1,16.145.009.88.88,0,0,1,.78.876V65.159a.894.894,0,0,1-1.107.854A59.913,59.913,0,0,0,71.2,64.8a59.219,59.219,0,0,0-22.323,6.1Z" transform="translate(3.341 3.153)" fill="#f6f4e6"/>
      <path id="Trazado_156604" data-name="Trazado 156604" d="M81.022,60.841A1.572,1.572,0,0,1,79.283,62.4a35.645,35.645,0,0,0-16.61,1.881,34.714,34.714,0,0,0-13.851,9.5c-.771.86-1.362,1.631-1.792,2.2-.43-.573-1.021-1.344-1.792-2.2a34.714,34.714,0,0,0-13.851-9.5A35.645,35.645,0,0,0,14.777,62.4a1.572,1.572,0,0,1-1.738-1.559v-1.72c-.036-16.843-.018-28.132,0-43,.018-2.043.018-4.139.018-6.325a1.446,1.446,0,0,1,.018-.287A1.539,1.539,0,0,1,14.4,8.233,38.335,38.335,0,0,1,45.239,18.339c.358.323.681.627.968.932.323.3.591.591.824.842.125-.125.251-.269.394-.412.394-.412.878-.878,1.4-1.362A38.224,38.224,0,0,1,74.051,7.982h.3a37.911,37.911,0,0,1,5.3.251A1.553,1.553,0,0,1,81,9.792c.036,18.886.054,31.232.018,51.05Z" transform="translate(6.877 0.792)" fill="#d2d2d2"/>
      <path id="Trazado_156605" data-name="Trazado 156605" d="M77.464,57.894a1.478,1.478,0,0,1-1.633,1.469A34.261,34.261,0,0,0,60.085,61.13,32.953,32.953,0,0,0,45.251,72.2,32.766,32.766,0,0,0,30.435,61.13a34.3,34.3,0,0,0-15.746-1.767,1.484,1.484,0,0,1-1.65-1.469c-.035-16.441-.018-27.46,0-41.977V9.691a1.018,1.018,0,0,1,.035-.227,1.506,1.506,0,0,1,1.3-1.242,38.161,38.161,0,0,1,17.519,2.046,37.767,37.767,0,0,1,12.692,7.818c.351.315.667.612.948.909.316.3.579.577.808.822.123-.122.246-.262.386-.4.386-.4.86-.857,1.369-1.329A37.522,37.522,0,0,1,72.812,7.977h.3c1.159.035,2.194.122,3.072.227a1.48,1.48,0,0,1,1.281,1.487c.018,17.823.053,29.489,0,48.2Z" transform="translate(6.877 0.796)" fill="#f6f4e6"/>
      <circle id="Elipse_5037" data-name="Elipse 5037" cx="17.022" cy="17.022" r="17.022" transform="translate(36.885 59.878)" fill="#f85316"/>
      <path id="Trazado_156606" data-name="Trazado 156606" d="M53.157,53.513c0,9.4-4.233,17.022-13.635,17.022a17.022,17.022,0,0,1,0-34.045C48.924,36.491,53.157,44.112,53.157,53.513Z" transform="translate(14.385 23.387)" fill="#ff642b"/>
      <g id="Grupo_107417" data-name="Grupo 107417" transform="translate(4.333 6.955)">
        <path id="Trazado_156607" data-name="Trazado 156607" d="M36.668,17.894a31.082,31.082,0,0,1,14.986-3.366,1.792,1.792,0,1,1-.105,3.582A27.5,27.5,0,0,0,38.29,21.089a1.792,1.792,0,1,1-1.622-3.2Z" transform="translate(20.494 -0.969)" fill="#12263f"/>
        <path id="Trazado_156608" data-name="Trazado 156608" d="M35.975,25.076A36.572,36.572,0,0,1,55.1,20.334a1.792,1.792,0,1,1-.116,3.582A32.992,32.992,0,0,0,37.729,28.2a1.792,1.792,0,1,1-1.753-3.125Z" transform="translate(19.997 3.626)" fill="#12263f"/>
        <path id="Trazado_156609" data-name="Trazado 156609" d="M35.975,30.014A36.571,36.571,0,0,1,55.1,25.272a1.792,1.792,0,1,1-.116,3.582,33.006,33.006,0,0,0-17.253,4.285,1.792,1.792,0,1,1-1.753-3.125Z" transform="translate(19.997 7.535)" fill="#12263f"/>
        <path id="Trazado_156610" data-name="Trazado 156610" d="M35.975,35.268A36.561,36.561,0,0,1,55.1,30.526a1.792,1.792,0,1,1-.116,3.582,33,33,0,0,0-17.253,4.285,1.792,1.792,0,1,1-1.753-3.125Z" transform="translate(19.997 11.696)" fill="#12263f"/>
        <path id="Trazado_156611" data-name="Trazado 156611" d="M33.535,21.089A27.5,27.5,0,0,0,20.276,18.11a1.792,1.792,0,1,1-.105-3.582,31.083,31.083,0,0,1,14.986,3.366,1.792,1.792,0,1,1-1.622,3.2Z" transform="translate(6.83 -0.969)" fill="#12263f"/>
        <path id="Trazado_156612" data-name="Trazado 156612" d="M35.893,28.2a32.988,32.988,0,0,0-17.253-4.285,1.792,1.792,0,1,1-.116-3.582,36.563,36.563,0,0,1,19.122,4.742A1.792,1.792,0,1,1,35.893,28.2Z" transform="translate(5.53 3.626)" fill="#12263f"/>
        <path id="Trazado_156613" data-name="Trazado 156613" d="M35.893,33.139a32.993,32.993,0,0,0-17.253-4.285,1.792,1.792,0,1,1-.116-3.582,36.568,36.568,0,0,1,19.122,4.742,1.792,1.792,0,1,1-1.753,3.125Z" transform="translate(5.53 7.535)" fill="#12263f"/>
        <path id="Trazado_156614" data-name="Trazado 156614" d="M35.893,38.394a32.993,32.993,0,0,0-17.253-4.285,1.792,1.792,0,1,1-.116-3.582,36.565,36.565,0,0,1,19.122,4.742,1.792,1.792,0,1,1-1.753,3.125Z" transform="translate(5.53 11.696)" fill="#12263f"/>
        <path id="Trazado_156615" data-name="Trazado 156615" d="M37.984,56.105H36.175V45.653a2.515,2.515,0,0,0-2.512-2.512H31.5a1.792,1.792,0,1,0,0,3.584h1.089v9.381H30.782a1.792,1.792,0,0,0,0,3.584h7.2a1.792,1.792,0,1,0,0-3.584Z" transform="translate(15.191 21.697)" fill="#12263f"/>
        <circle id="Elipse_5038" data-name="Elipse 5038" cx="2.243" cy="2.243" r="2.243" transform="translate(46.611 58.295)" fill="#12263f"/>
        <path id="Trazado_156616" data-name="Trazado 156616" d="M101.108,16.081c-1.124-.151-2.261-.254-3.395-.366v-.14a2.738,2.738,0,0,0-2.374-2.712c-1.873-.243-3.767-.383-5.656-.469,0,0,0-.069,0-1.808a3.353,3.353,0,0,0-2.934-3.345A40.238,40.238,0,0,0,53.908,18.351,40.237,40.237,0,0,0,21.069,7.241a3.354,3.354,0,0,0-2.935,3.347l0,1.806c-1.889.086-3.783.226-5.656.469A2.738,2.738,0,0,0,10.1,15.574v.14c-1.134.112-2.271.216-3.4.367a2.77,2.77,0,0,0-2.372,2.751V80.048A2.733,2.733,0,0,0,7.7,82.739a110.808,110.808,0,0,1,26.636-3.027,19.772,19.772,0,0,0,39.149,0,110.814,110.814,0,0,1,26.635,3.027,2.733,2.733,0,0,0,3.364-2.69V18.833a2.771,2.771,0,0,0-2.374-2.752ZM88.543,64.158a3.382,3.382,0,0,0,1.141-2.528c.041-17.866.029-29.675.005-45.656,1.482.071,2.966.175,4.44.349V70.929a61.94,61.94,0,0,0-21.574-.614,19.7,19.7,0,0,0-1.8-3.758,34.147,34.147,0,0,1,15.188-1.589,3.323,3.323,0,0,0,2.6-.809ZM86.1,10.774c.015,9.431.048,31.894.073,50.612A37.2,37.2,0,0,0,68.493,63.56,19.736,19.736,0,0,0,55.7,57.193V21.646A36.587,36.587,0,0,1,86.1,10.774Zm-64.38,0a36.583,36.583,0,0,1,30.4,10.872V57.193A19.736,19.736,0,0,0,39.322,63.56a37.244,37.244,0,0,0-17.608-2.182c-.043-18.744-.027-31.034,0-50.6Zm-8.032,5.55c1.474-.174,2.958-.278,4.44-.349-.024,15.981-.036,27.789.005,45.655a3.382,3.382,0,0,0,1.141,2.529,3.313,3.313,0,0,0,2.6.809,34.124,34.124,0,0,1,15.189,1.589,19.7,19.7,0,0,0-1.8,3.758,61.814,61.814,0,0,0-21.574.614ZM7.917,79.005V19.538c.726-.092,1.455-.153,2.185-.228V71.985a2.726,2.726,0,0,0,3.335,2.662,58.468,58.468,0,0,1,20.939-.84,19.793,19.793,0,0,0-.228,2.323A114.352,114.352,0,0,0,7.917,79.005Zm45.99,14.109A16.214,16.214,0,1,1,70.122,76.9,16.214,16.214,0,0,1,53.908,93.114ZM99.9,79.005A114.312,114.312,0,0,0,73.666,76.13a19.789,19.789,0,0,0-.228-2.323,58.455,58.455,0,0,1,20.942.841,2.73,2.73,0,0,0,3.333-2.662V19.31c.73.075,1.459.136,2.185.228Z" transform="translate(-4.333 -6.955)" fill="#12263f"/>
      </g>
    </g>
  </g>
</svg>
