<svg xmlns="http://www.w3.org/2000/svg" width="147" height="147" viewBox="0 0 147 147">
  <g id="Grupo_112767" data-name="Grupo 112767" transform="translate(-249 -3790.93)">
    <g id="Elipse_5104" data-name="Elipse 5104" transform="translate(249 3790.93)" fill="#fff" stroke="#3d46c2" stroke-width="4">
      <circle cx="73.5" cy="73.5" r="73.5" stroke="none"/>
      <circle cx="73.5" cy="73.5" r="71.5" fill="none"/>
    </g>
    <g id="_007-binoculares" data-name="007-binoculares" transform="translate(276 3826.93)">
      <g id="Grupo_112465" data-name="Grupo 112465" transform="translate(38.462 1.385)">
        <path id="Trazado_160689" data-name="Trazado 160689" d="M211.023,137.027h16.394v26.6H211.023Zm0,0" transform="translate(-211.023 -113.437)" fill="#3d46c2"/>
        <path id="Trazado_160690" data-name="Trazado 160690" d="M298.3,19.412v-3.68a8.13,8.13,0,0,1,15.647-3.1l1.314,3.185" transform="translate(-282.393 -7.601)" fill="#3d46c2"/>
        <path id="Trazado_160691" data-name="Trazado 160691" d="M279.289,59.436v31.32l23.468-4.295,16.236-2.972L306.821,53.981A14.3,14.3,0,0,0,293.6,45.129c-.244,0-.486.006-.726.019a14.306,14.306,0,0,0-13.58,14.288Zm0,0" transform="translate(-266.847 -38.289)" fill="#3d46c2"/>
      </g>
      <path id="Trazado_160693" data-name="Trazado 160693" d="M320.314,203.413A20.515,20.515,0,1,1,299.8,182.9,20.515,20.515,0,0,1,320.314,203.413Zm0,0" transform="translate(-228.381 -149.563)" fill="#e4e4ef"/>
      <path id="Trazado_160694" data-name="Trazado 160694" d="M341.264,230.374a14.507,14.507,0,1,1-14.507-14.506A14.507,14.507,0,0,1,341.264,230.374Zm0,0" transform="translate(-255.339 -176.523)" fill="#3d46c2"/>
      <path id="Trazado_160695" data-name="Trazado 160695" d="M314.191,227.174a14.508,14.508,0,0,0,28.3,0,14.509,14.509,0,0,0-28.3,0Zm0,0" transform="translate(-256.926 -176.519)" fill="#d2e1f1"/>
      <path id="Trazado_160696" data-name="Trazado 160696" d="M120.645,15.816l1.313-3.185a8.131,8.131,0,0,1,15.648,3.1v3.68" transform="translate(-98.656 -6.216)" fill="#3d46c2"/>
      <path id="Trazado_160697" data-name="Trazado 160697" d="M54.575,59.436v31.32L31.107,86.461,14.871,83.489,27.043,53.981a14.3,14.3,0,0,1,13.225-8.851c.244,0,.486.006.726.019a14.306,14.306,0,0,1,13.58,14.288Zm0,0" transform="translate(-12.161 -36.904)" fill="#3d46c2"/>
      <path id="Trazado_160699" data-name="Trazado 160699" d="M48.631,203.413A20.515,20.515,0,1,1,28.116,182.9,20.515,20.515,0,0,1,48.631,203.413Zm0,0" transform="translate(-6.216 -149.563)" fill="#e4e4ef"/>
      <path id="Trazado_160700" data-name="Trazado 160700" d="M69.58,230.374a14.507,14.507,0,1,1-14.506-14.506A14.507,14.507,0,0,1,69.58,230.374Zm0,0" transform="translate(-33.173 -176.523)" fill="#3d46c2"/>
      <path id="Trazado_160701" data-name="Trazado 160701" d="M70.823,227.174a14.508,14.508,0,0,1-28.3,0,14.509,14.509,0,0,1,28.3,0Zm0,0" transform="translate(-34.77 -176.519)" fill="#d2e1f1"/>
      <path id="Trazado_160702" data-name="Trazado 160702" d="M51.023,230.371a14.41,14.41,0,0,0,2.217,7.708,14.533,14.533,0,0,1-10.729-10.905A14.517,14.517,0,0,1,61.1,216.555a14.512,14.512,0,0,0-10.073,13.816Zm0,0" transform="translate(-34.763 -176.52)" fill="#b0c0d2"/>
      <path id="Trazado_160703" data-name="Trazado 160703" d="M322.7,230.371a14.41,14.41,0,0,0,2.217,7.708,14.533,14.533,0,0,1-10.729-10.905,14.516,14.516,0,0,1,18.584-10.619A14.512,14.512,0,0,0,322.7,230.371Zm0,0" transform="translate(-256.926 -176.52)" fill="#b0c0d2"/>
      <path id="Trazado_160704" data-name="Trazado 160704" d="M48.86,208.266a15.892,15.892,0,1,0,15.891,15.892A15.91,15.91,0,0,0,48.86,208.266Zm0,2.771a13.143,13.143,0,0,1,12.725,9.923,13.12,13.12,0,0,1-25.451,0A13.143,13.143,0,0,1,48.86,211.037Zm0,26.242a13.142,13.142,0,0,1-12.751-10.034,15.878,15.878,0,0,0,25.5,0A13.143,13.143,0,0,1,48.86,237.279Zm0,0" transform="translate(-26.96 -170.307)"/>
      <path id="Trazado_160705" data-name="Trazado 160705" d="M91.9,46.086c0-.009-.267-.673-.374-.922l-11.8-28.615a15.65,15.65,0,0,0-7.31-7.97L71.3,5.887a9.516,9.516,0,0,0-18.313,3.63v3.195a15.616,15.616,0,0,0-3.467,9.822V23.59H43.8V22.533a15.616,15.616,0,0,0-3.467-9.822V9.517a9.516,9.516,0,0,0-18.313-3.63l-1.11,2.692a15.649,15.649,0,0,0-7.309,7.97l-3.03,7.345a1.385,1.385,0,1,0,2.561,1.057l3.03-7.345A12.922,12.922,0,0,1,41.03,22.533V43.2A21.876,21.876,0,0,0,8.282,36.713l2.99-7.249a1.385,1.385,0,1,0-2.562-1.057L1.8,45.163c-.108.249-.4.987-.417,1.034A21.9,21.9,0,1,0,43.8,53.851V52.96h5.717v.891a21.9,21.9,0,1,0,42.377-7.765ZM28.109,6.84a15.828,15.828,0,0,0-3.66.43l.135-.327A6.746,6.746,0,0,1,37.564,9.517v.5A15.612,15.612,0,0,0,28.109,6.84ZM62.5,2.771a6.743,6.743,0,0,1,6.235,4.173l.135.327a15.791,15.791,0,0,0-3.661-.43,15.612,15.612,0,0,0-9.455,3.178v-.5A6.754,6.754,0,0,1,62.5,2.771ZM52.289,22.533a12.921,12.921,0,0,1,24.866-4.928l7.882,19.108A21.876,21.876,0,0,0,52.289,43.2Zm-2.771,3.828v13.3H43.8v-13.3ZM21.9,72.981A19.13,19.13,0,1,1,41.03,53.851,19.151,19.151,0,0,1,21.9,72.981ZM43.8,50.189V42.431h5.717v7.758ZM71.418,72.981a19.13,19.13,0,1,1,19.13-19.13A19.151,19.151,0,0,1,71.418,72.981Zm0,0" transform="translate(0 0)"/>
      <path id="Trazado_160706" data-name="Trazado 160706" d="M331.3,214.332a1.385,1.385,0,0,0-.273,1.94,13.012,13.012,0,0,1,2.24,4.677,13.12,13.12,0,0,1-25.453.013,13.123,13.123,0,0,1,20.06-7.685,1.386,1.386,0,0,0,1.551-2.3,15.9,15.9,0,1,0,3.815,3.625A1.384,1.384,0,0,0,331.3,214.332ZM320.54,237.278a13.141,13.141,0,0,1-12.75-10.032,15.877,15.877,0,0,0,25.5,0,13.142,13.142,0,0,1-12.751,10.034Zm0,0" transform="translate(-249.123 -170.307)"/>
    </g>
  </g>
</svg>
