<svg xmlns="http://www.w3.org/2000/svg" width="147" height="147" viewBox="0 0 147 147">
  <g id="Grupo_112768" data-name="Grupo 112768" transform="translate(-249 -3989.93)">
    <g id="Elipse_5105" data-name="Elipse 5105" transform="translate(249 3989.93)" fill="#fff" stroke="#3d46c2" stroke-width="4">
      <circle cx="73.5" cy="73.5" r="73.5" stroke="none"/>
      <circle cx="73.5" cy="73.5" r="71.5" fill="none"/>
    </g>
    <g id="_010-planta-manufacturera-1" data-name="010-planta-manufacturera-1" transform="translate(276 4016.93)">
      <path id="Trazado_160744" data-name="Trazado 160744" d="M96.438,160.157h-66.8V83.537l66.8,13.752Z" transform="translate(-24.239 -68.311)" fill="#bfbfbf"/>
      <path id="Trazado_160745" data-name="Trazado 160745" d="M369.683,153.545v62.867h-5.894V152.332Z" transform="translate(-297.484 -124.567)" fill="#999"/>
      <path id="Trazado_160746" data-name="Trazado 160746" d="M144.391,26.517v2.43a1.786,1.786,0,0,1-1.436,1.751l-4.453.891a14.2,14.2,0,0,1-1.3,3.143l2.519,3.779a1.786,1.786,0,0,1-.223,2.254l-1.718,1.718a1.786,1.786,0,0,1-2.254.223l-3.779-2.519a14.194,14.194,0,0,1-3.143,1.3l-.891,4.453a1.786,1.786,0,0,1-1.751,1.436h-2.43a1.786,1.786,0,0,1-1.751-1.436l-.891-4.453a14.2,14.2,0,0,1-3.143-1.3l-3.779,2.519a1.786,1.786,0,0,1-2.254-.223L110,40.764a1.786,1.786,0,0,1-.223-2.254l2.519-3.779a14.194,14.194,0,0,1-1.3-3.143l-4.453-.891a1.786,1.786,0,0,1-1.436-1.751v-2.43a1.786,1.786,0,0,1,1.436-1.751l4.453-.891a14.2,14.2,0,0,1,1.3-3.143l-2.519-3.779A1.786,1.786,0,0,1,110,14.7l1.718-1.718a1.786,1.786,0,0,1,2.254-.223l3.779,2.519a14.194,14.194,0,0,1,3.143-1.3l.891-4.453a1.786,1.786,0,0,1,1.751-1.436h2.43a1.786,1.786,0,0,1,1.751,1.436l.891,4.453a14.2,14.2,0,0,1,3.143,1.3l3.779-2.519a1.786,1.786,0,0,1,2.254.223L139.5,14.7a1.786,1.786,0,0,1,.223,2.254L137.2,20.732a14.193,14.193,0,0,1,1.3,3.143l4.453.891A1.786,1.786,0,0,1,144.391,26.517Z" transform="translate(-85.944 -6.612)" fill="#3d46c2"/>
      <path id="Trazado_160747" data-name="Trazado 160747" d="M178.635,71.8a9.823,9.823,0,1,1-9.823-9.823A9.823,9.823,0,0,1,178.635,71.8Z" transform="translate(-130.011 -50.682)" fill="#abc5ff"/>
      <path id="Trazado_160748" data-name="Trazado 160748" d="M192.335,89.431a5.894,5.894,0,1,1-5.894-5.894A5.894,5.894,0,0,1,192.335,89.431Z" transform="translate(-147.64 -68.311)" fill="#3d46c2"/>
      <path id="Trazado_160749" data-name="Trazado 160749" d="M188.405,90.942a5.9,5.9,0,0,1-3.929,5.557,5.894,5.894,0,0,1,0-11.114A5.9,5.9,0,0,1,188.405,90.942Z" transform="translate(-147.64 -69.822)" fill="#809ded"/>
      <path id="Trazado_160750" data-name="Trazado 160750" d="M158.989,299.116h58.938v37.327H158.989Z" transform="translate(-130.011 -244.598)" fill="#e2e2e2"/>
      <path id="Trazado_160751" data-name="Trazado 160751" d="M450.021,299.116h5.894v37.327h-5.894Z" transform="translate(-367.999 -244.598)" fill="#bfbfbf"/>
      <path id="Trazado_160752" data-name="Trazado 160752" d="M297.257,353.01v13.752H256V353.01h41.257Z" transform="translate(-209.341 -288.669)" fill="#3d46c2"/>
      <path id="Trazado_160753" data-name="Trazado 160753" d="M256,353.01h7.858v13.752H256Zm13.752,13.752h7.858V353.01h-7.858ZM283.5,353.01v13.752h7.858V353.01Z" transform="translate(-209.341 -288.669)" fill="#809ded"/>
      <path id="Trazado_160754" data-name="Trazado 160754" d="M136,388.574l2.5,13.752a3.929,3.929,0,0,1-3.866,4.632h-6.3a3.929,3.929,0,0,1-3.866-4.632l2.5-13.752a3.929,3.929,0,0,1,3.866-3.226h1.3A3.929,3.929,0,0,1,136,388.574Z" transform="translate(-101.732 -315.113)" fill="#75b62f"/>
      <path id="Trazado_160755" data-name="Trazado 160755" d="M161.543,406.958h-4.235a4.644,4.644,0,0,0,4.569-5.474l-2.934-16.136h.1a3.929,3.929,0,0,1,3.866,3.226l2.5,13.752A3.929,3.929,0,0,1,161.543,406.958Z" transform="translate(-128.637 -315.112)" fill="#dce736"/>
      <path id="Trazado_160756" data-name="Trazado 160756" d="M38.8,28.487a7.367,7.367,0,1,0-7.367-7.367A7.375,7.375,0,0,0,38.8,28.487Zm0-11.788a4.42,4.42,0,1,1-4.42,4.42A4.425,4.425,0,0,1,38.8,16.7ZM60.63,26.6a1.473,1.473,0,0,1,1.74-1.146L72.5,27.535a1.473,1.473,0,0,1,1.176,1.443V48.624a1.473,1.473,0,1,1-2.947,0V30.179l-8.949-1.843A1.474,1.474,0,0,1,60.63,26.6ZM20.3,25.531l3.6.719a15.76,15.76,0,0,0,.737,1.78L22.6,31.082a3.268,3.268,0,0,0,.407,4.113l1.718,1.718a3.268,3.268,0,0,0,4.113.407l3.052-2.035a15.678,15.678,0,0,0,1.78.737l.719,3.6a3.268,3.268,0,0,0,3.2,2.62h2.43a3.268,3.268,0,0,0,3.2-2.62l.719-3.6a15.76,15.76,0,0,0,1.78-.737l3.052,2.035a3.269,3.269,0,0,0,4.113-.407l1.718-1.718A3.268,3.268,0,0,0,55,31.082L52.966,28.03a15.66,15.66,0,0,0,.737-1.78l3.6-.719a3.268,3.268,0,0,0,2.62-3.2V19.9a3.268,3.268,0,0,0-2.62-3.2h0l-3.6-.719a15.759,15.759,0,0,0-.737-1.78L55,11.158a3.268,3.268,0,0,0-.407-4.113L52.876,5.327a3.268,3.268,0,0,0-4.113-.407L45.711,6.954a15.68,15.68,0,0,0-1.78-.737l-.719-3.6A3.268,3.268,0,0,0,40.016,0h-2.43a3.268,3.268,0,0,0-3.2,2.62l-.719,3.6a15.759,15.759,0,0,0-1.78.737L28.839,4.919a3.268,3.268,0,0,0-4.113.407L23.008,7.044a3.268,3.268,0,0,0-.407,4.113l2.035,3.052a15.679,15.679,0,0,0-.737,1.78l-3.6.719a3.268,3.268,0,0,0-2.62,3.2v2.43A3.269,3.269,0,0,0,20.3,25.531Zm.327-5.626a.313.313,0,0,1,.251-.307l4.453-.891a1.474,1.474,0,0,0,1.13-1.048,12.74,12.74,0,0,1,1.167-2.817,1.474,1.474,0,0,0-.058-1.54L25.053,9.523a.313.313,0,0,1,.039-.394L26.81,7.411a.313.313,0,0,1,.394-.039l3.779,2.519a1.474,1.474,0,0,0,1.54.058,12.75,12.75,0,0,1,2.817-1.167,1.473,1.473,0,0,0,1.048-1.13L37.28,3.2a.313.313,0,0,1,.307-.251h2.43a.313.313,0,0,1,.307.251l.891,4.453a1.474,1.474,0,0,0,1.048,1.13,12.74,12.74,0,0,1,2.817,1.167,1.474,1.474,0,0,0,1.54-.058L50.4,7.371a.313.313,0,0,1,.394.039L52.51,9.128a.314.314,0,0,1,.039.394L50.03,13.3a1.473,1.473,0,0,0-.058,1.54,12.75,12.75,0,0,1,1.167,2.817,1.473,1.473,0,0,0,1.13,1.048l4.453.891a.313.313,0,0,1,.251.307v2.43a.313.313,0,0,1-.251.307l-4.453.891a1.473,1.473,0,0,0-1.13,1.048A12.743,12.743,0,0,1,49.972,27.4a1.474,1.474,0,0,0,.058,1.54l2.519,3.779a.313.313,0,0,1-.039.394l-1.718,1.718a.313.313,0,0,1-.394.039l-3.779-2.519a1.473,1.473,0,0,0-1.54-.058,12.75,12.75,0,0,1-2.817,1.167,1.473,1.473,0,0,0-1.048,1.13l-.891,4.453a.313.313,0,0,1-.307.251h-2.43a.314.314,0,0,1-.307-.251l-.891-4.453a1.474,1.474,0,0,0-1.048-1.13,12.74,12.74,0,0,1-2.817-1.167,1.474,1.474,0,0,0-1.541.058L27.2,34.867a.313.313,0,0,1-.394-.039L25.092,33.11a.313.313,0,0,1-.039-.394l2.519-3.779a1.473,1.473,0,0,0,.058-1.54,12.75,12.75,0,0,1-1.167-2.817,1.473,1.473,0,0,0-1.13-1.048L20.88,22.64a.313.313,0,0,1-.251-.307V19.9Zm33.889,33.14a1.473,1.473,0,1,1,0,2.947H30.451v8.35a1.473,1.473,0,1,1-2.947,0V54.518a1.473,1.473,0,0,1,1.473-1.473h25.54ZM91.845,90.372H89.389V54.518a1.473,1.473,0,0,0-1.473-1.473h-27.5a1.473,1.473,0,1,0,0,2.947H86.443v6.876H46.659a1.473,1.473,0,0,0-1.473,1.473V78.093a1.473,1.473,0,0,0,1.473,1.473H86.443V90.372H74.164a1.473,1.473,0,0,0,0,2.947H91.845a1.473,1.473,0,1,0,0-2.947Zm-5.4-13.752H75.637V70.235a1.473,1.473,0,1,0-2.947,0V76.62H61.885V70.235a1.473,1.473,0,1,0-2.947,0V76.62H48.133V65.814h38.31V76.62ZM68.27,90.372H37.719a5.388,5.388,0,0,0,.5-3.422L35.721,73.2a5.4,5.4,0,0,0-5.316-4.436h-1.3A5.4,5.4,0,0,0,23.79,73.2L21.29,86.95a5.387,5.387,0,0,0,.5,3.422H6.876V17.034l7.056,1.453a1.473,1.473,0,0,0,.594-2.886L5.7,13.783a1.473,1.473,0,0,0-1.771,1.443V90.372H1.473a1.473,1.473,0,1,0,0,2.947h66.8a1.473,1.473,0,0,0,0-2.947ZM34.791,89.49a2.45,2.45,0,0,1-1.886.882H31.229v-8.35a1.473,1.473,0,1,0-2.947,0v8.35H26.6a2.456,2.456,0,0,1-2.416-2.9l2.5-13.752a2.455,2.455,0,0,1,2.416-2.017h1.3a2.454,2.454,0,0,1,2.416,2.017l2.5,13.752A2.447,2.447,0,0,1,34.791,89.49Z"/>
    </g>
  </g>
</svg>
