<svg xmlns="http://www.w3.org/2000/svg" width="147" height="147" viewBox="0 0 147 147">
  <g id="Grupo_112769" data-name="Grupo 112769" transform="translate(-249 -4186.931)">
    <g id="Elipse_5106" data-name="Elipse 5106" transform="translate(249 4186.931)" fill="#fff" stroke="#3d46c2" stroke-width="4">
      <circle cx="73.5" cy="73.5" r="73.5" stroke="none"/>
      <circle cx="73.5" cy="73.5" r="71.5" fill="none"/>
    </g>
    <g id="_023-unido" data-name="023-unido" transform="translate(276 4214.931)">
      <path id="Trazado_160980" data-name="Trazado 160980" d="M205.481,202.563,184.9,181.982a3.3,3.3,0,1,1,4.661-4.66l-5.3-5.3a3.288,3.288,0,0,1-.968-2.332,3.386,3.386,0,0,1,.042-.528,3.291,3.291,0,0,1,5.273-2.073l-2.017-2.017a3.3,3.3,0,0,1-.968-2.335,3.15,3.15,0,0,1,.044-.536,3.3,3.3,0,0,1,5.586-1.791l2.31,2.31a3.3,3.3,0,1,1,4.661-4.661L211.6,171.436l.038-.053a6.026,6.026,0,0,1,8.531.006l6.237,6.237a6.4,6.4,0,0,1,1.874,4.516l0,3.9a6.887,6.887,0,0,0,2.018,4.864l1.391,1.39L215.782,208.2l-1.777-1.777a6.889,6.889,0,0,0-4.421-2A6.392,6.392,0,0,1,205.481,202.563Zm0,0" transform="translate(-149.885 -128.46)" fill="#fecbaa"/>
      <path id="Trazado_160981" data-name="Trazado 160981" d="M353.876,360.184l18.055-18.055a1.523,1.523,0,0,1,2.154,0l6.43,6.43a1.524,1.524,0,0,1,0,2.154L362.46,368.769a1.524,1.524,0,0,1-2.154,0l-6.43-6.43a1.523,1.523,0,0,1,0-2.154Zm0,0" transform="translate(-289.013 -279.407)" fill="#f3ff3c"/>
      <path id="Trazado_160982" data-name="Trazado 160982" d="M89.365,202.574l20.581-20.582a3.3,3.3,0,1,0-4.661-4.661l5.3-5.3a3.293,3.293,0,0,0-4.347-4.932l2.017-2.017a3.3,3.3,0,0,0,.968-2.334,3.143,3.143,0,0,0-.044-.536,3.283,3.283,0,0,0-2.727-2.717,3.3,3.3,0,0,0-2.859.925l-2.31,2.31a3.3,3.3,0,0,0,.926-2.859,3.262,3.262,0,0,0-.921-1.806,3.3,3.3,0,0,0-4.664,0L83.248,171.445l-.038-.053a6.026,6.026,0,0,0-8.531.006l-6.236,6.237a6.4,6.4,0,0,0-1.874,4.516l0,3.9a6.882,6.882,0,0,1-2.018,4.864l-1.391,1.39,15.907,15.907,1.778-1.777a6.889,6.889,0,0,1,4.421-2,6.4,6.4,0,0,0,4.1-1.861Zm0,0" transform="translate(-51.645 -128.468)" fill="#fecbaa"/>
      <path id="Trazado_160983" data-name="Trazado 160983" d="M34.581,360.193,16.525,342.138a1.523,1.523,0,0,0-2.154,0l-6.43,6.43a1.524,1.524,0,0,0,0,2.154L26,368.777a1.523,1.523,0,0,0,2.154,0l6.43-6.43a1.524,1.524,0,0,0,0-2.154Zm0,0" transform="translate(-6.129 -279.414)" fill="#f85316"/>
      <path id="Trazado_160984" data-name="Trazado 160984" d="M182.725,85.379v29.107a3.3,3.3,0,1,1-6.591,0v7.495a3.293,3.293,0,0,1-6.561.414v2.853a3.3,3.3,0,0,1-.966,2.335,3.089,3.089,0,0,1-.41.348,3.3,3.3,0,0,1-5.217-2.683V121.98a3.3,3.3,0,1,1-6.591,0V103.064l-.064.011a6.028,6.028,0,0,1-6.027-6.037v-8.82a6.4,6.4,0,0,1,1.868-4.519l2.756-2.761a6.887,6.887,0,0,0,2.012-4.867V74.105h22.5v2.513a6.894,6.894,0,0,0,1.709,4.542,6.394,6.394,0,0,1,1.586,4.218Zm0,0" transform="translate(-122.903 -60.599)" fill="#fedfc5"/>
      <path id="Trazado_160985" data-name="Trazado 160985" d="M175.437,177.328a3.3,3.3,0,0,0-4.664,0l5.3-5.3a3.293,3.293,0,0,0-4.347-4.932l2.017-2.017a3.294,3.294,0,0,0,.968-2.334,3.072,3.072,0,0,0-.044-.536,3.3,3.3,0,0,0-5.585-1.792l-2.31,2.31a3.3,3.3,0,1,0-4.661-4.661l-13.376,13.376-.038-.053a6,6,0,0,0-5.458-1.64,8.844,8.844,0,0,0,4.643,3.512v16.585a6.036,6.036,0,0,0,7.207,5.92,6.041,6.041,0,0,0,3.5,3.069l16.846-16.847a3.3,3.3,0,0,0,0-4.663Zm0,0" transform="translate(-117.132 -128.468)" fill="#ffae85"/>
      <path id="Trazado_160986" data-name="Trazado 160986" d="M212.429,182.348v-11.64a6.035,6.035,0,0,0-.805.676l-.037.053-13.376-13.376a3.3,3.3,0,0,0-4.664,0,3.3,3.3,0,0,0,0,4.664l-2.31-2.31a3.294,3.294,0,0,0-5.586,1.792,3.141,3.141,0,0,0-.043.536,3.292,3.292,0,0,0,.968,2.334l2.017,2.017a3.294,3.294,0,0,0-4.348,4.932l5.3,5.3a3.3,3.3,0,1,0-4.66,4.661l13.788,13.788a6.053,6.053,0,0,0,1.133.106,5.976,5.976,0,0,0,3.527-1.141,6.028,6.028,0,0,0,2.5-4.893v-1.486q.279.026.562.026a6.04,6.04,0,0,0,6.029-6.035Zm0,0" transform="translate(-149.876 -128.462)" fill="#ffae85"/>
      <path id="Trazado_160987" data-name="Trazado 160987" d="M182.725,85.379v29.107a3.3,3.3,0,0,1-3.3,3.3c-.049,0-.1,0-.155,0a3.26,3.26,0,0,1-1.769-.619s0,0,0,0a3.294,3.294,0,0,1-1.367-2.676v7.495a3.293,3.293,0,0,1-6.561.414v2.853a3.3,3.3,0,0,1-.966,2.335,3.091,3.091,0,0,1-.41.348,3.3,3.3,0,0,1-5.217-2.683V121.98a3.3,3.3,0,1,1-6.591,0V103.064l-.064.011a6.028,6.028,0,0,1-6.027-6.037v-8.82a6.4,6.4,0,0,1,1.868-4.519l2.756-2.761a6.9,6.9,0,0,0,2.012-4.867V74.105h22.5v2.513a6.209,6.209,0,0,0,.217,1.7,6.846,6.846,0,0,0,1.492,2.841,6.446,6.446,0,0,1,1.586,4.218Zm0,0" transform="translate(-122.903 -60.599)" fill="#fedfc5"/>
      <path id="Trazado_160988" data-name="Trazado 160988" d="M211.119,85.378v29.107a3.3,3.3,0,0,1-3.3,3.3c-.049,0-.1,0-.155,0a3.26,3.26,0,0,1-1.769-.619l.056-28.048a4.3,4.3,0,0,0-.11-.778,12.678,12.678,0,0,0-12.682-10.231H185.02a6.864,6.864,0,0,0,.308-2.034V74.1h22.5v2.513a6.208,6.208,0,0,0,.217,1.7,6.846,6.846,0,0,0,1.492,2.841,6.445,6.445,0,0,1,1.586,4.218Zm0,0" transform="translate(-151.297 -60.598)" fill="#fecbaa"/>
      <path id="Trazado_160989" data-name="Trazado 160989" d="M196.756,19.64H171.221a1.523,1.523,0,0,1-1.523-1.524V9.024A1.523,1.523,0,0,1,171.221,7.5h25.535a1.523,1.523,0,0,1,1.523,1.524v9.093A1.523,1.523,0,0,1,196.756,19.64Zm0,0" transform="translate(-138.769 -6.133)" fill="#4752e3"/>
      <path id="Trazado_160990" data-name="Trazado 160990" d="M202.994,447.764l-.274,1.339.264-1.341a1.367,1.367,0,1,0-.528,2.682l.025,0a1.4,1.4,0,0,0,.258.025,1.367,1.367,0,0,0,.255-2.71Zm0,0" transform="translate(-164.654 -366.13)"/>
      <path id="Trazado_160991" data-name="Trazado 160991" d="M262.179,450.263l.136,1.36-.14-1.359a1.367,1.367,0,0,0,.138,2.727c.047,0,.095,0,.142-.007l.038,0a1.367,1.367,0,0,0-.313-2.716Zm0,0" transform="translate(-213.387 -368.19)"/>
      <path id="Trazado_160992" data-name="Trazado 160992" d="M232.54,451.232h-.02a1.359,1.359,0,0,0-1.417,1.305,1.375,1.375,0,0,0,1.313,1.427h.063a1.367,1.367,0,0,0,.061-2.733Zm0,0" transform="translate(-188.98 -368.988)"/>
      <path id="Trazado_160993" data-name="Trazado 160993" d="M174.413,439.877l-.017-.006a1.359,1.359,0,0,0-1.74.827,1.371,1.371,0,1,0,1.757-.821Zm0,0" transform="translate(-141.122 -359.632)"/>
      <path id="Trazado_160994" data-name="Trazado 160994" d="M291.383,444.847l.337,1.325-.341-1.324a1.367,1.367,0,0,0,.34,2.691,1.353,1.353,0,0,0,.342-.044l.036-.009a1.367,1.367,0,0,0-.714-2.639Zm0,0" transform="translate(-237.431 -363.732)"/>
      <path id="Trazado_160995" data-name="Trazado 160995" d="M319.416,435.069l.542,1.254-.546-1.253a1.367,1.367,0,1,0,1.091,2.507l.033-.015a1.367,1.367,0,0,0-1.121-2.493Zm0,0" transform="translate(-260.523 -355.677)"/>
      <path id="Trazado_160996" data-name="Trazado 160996" d="M147.85,81.425a1.367,1.367,0,1,0-.639-2.574l-.016.009a1.365,1.365,0,0,0,.655,2.566Zm0,0" transform="translate(-119.78 -64.347)"/>
      <path id="Trazado_160997" data-name="Trazado 160997" d="M63.969,165.828a1.367,1.367,0,0,0,1.846-.576l.024-.048a1.367,1.367,0,1,0-1.87.624Zm0,0" transform="translate(-51.711 -133.482)"/>
      <path id="Trazado_160998" data-name="Trazado 160998" d="M52.526,193.662a1.365,1.365,0,0,0,1.733-.856l.018-.054a1.367,1.367,0,1,0-1.751.911Zm0,0" transform="translate(-42.192 -156.173)"/>
      <path id="Trazado_160999" data-name="Trazado 160999" d="M79.526,140.082a1.366,1.366,0,0,0,1.909-.3l.018-.024a1.367,1.367,0,0,0-2.224-1.59l1.1.81-1.106-.8a1.367,1.367,0,0,0,.3,1.909Zm0,0" transform="translate(-64.571 -112.518)"/>
      <path id="Trazado_161000" data-name="Trazado 161000" d="M122.412,97.568a1.373,1.373,0,1,0-.792-2.484l-.034.025a1.368,1.368,0,0,0,.826,2.459Zm0,0" transform="translate(-98.983 -77.538)"/>
      <path id="Trazado_161001" data-name="Trazado 161001" d="M49.7,311.408a1.367,1.367,0,1,0-.018-.06Zm0,0" transform="translate(-40.589 -253.188)"/>
      <path id="Trazado_161002" data-name="Trazado 161002" d="M99.757,117.352a1.371,1.371,0,1,0-.955-2.344l-.023.023a1.366,1.366,0,0,0,.978,2.321Zm0,0" transform="translate(-80.457 -93.719)"/>
      <path id="Trazado_161003" data-name="Trazado 161003" d="M46.072,281.384a1.367,1.367,0,0,0-2.713.338l.008.055a1.367,1.367,0,0,0,2.705-.393Zm0,0" transform="translate(-35.448 -229.125)"/>
      <path id="Trazado_161004" data-name="Trazado 161004" d="M42.917,252.9h.041a1.367,1.367,0,0,0,1.366-1.327v-.058a1.367,1.367,0,1,0-1.408,1.385Zm0,0" transform="translate(-34.011 -204.556)"/>
      <path id="Trazado_161005" data-name="Trazado 161005" d="M45.458,222.915a1.411,1.411,0,0,0,.243.021,1.368,1.368,0,0,0,1.344-1.126c0-.02.006-.04.009-.06a1.367,1.367,0,1,0-1.6,1.165Zm0,0" transform="translate(-36.252 -180.053)"/>
      <path id="Trazado_161006" data-name="Trazado 161006" d="M403.167,143.913a1.367,1.367,0,0,0,2.251-1.552l-1.136.76,1.132-.767a1.367,1.367,0,0,0-2.263,1.534Zm0,0" transform="translate(-329.478 -115.918)"/>
      <path id="Trazado_161007" data-name="Trazado 161007" d="M437.155,229.031a1.366,1.366,0,0,0-1.205,1.512l.007.059a1.368,1.368,0,0,0,1.352,1.173,1.393,1.393,0,0,0,.2-.014,1.377,1.377,0,0,0-.349-2.73Zm0,0" transform="translate(-356.485 -187.28)"/>
      <path id="Trazado_161008" data-name="Trazado 161008" d="M429.694,200.039l.006.018a1.367,1.367,0,0,0,1.311.982,1.346,1.346,0,0,0,.386-.056,1.367,1.367,0,0,0,.926-1.7l-.006-.018a1.367,1.367,0,1,0-2.623.772Zm0,0" transform="translate(-351.331 -162.145)"/>
      <path id="Trazado_161009" data-name="Trazado 161009" d="M418.682,170.944a1.374,1.374,0,0,0,1.233.768,1.366,1.366,0,0,0,1.224-1.966l-1.239.577,1.237-.58a1.367,1.367,0,0,0-2.475,1.16Zm0,0" transform="translate(-342.249 -138.162)"/>
      <path id="Trazado_161010" data-name="Trazado 161010" d="M383.6,119.688a1.377,1.377,0,1,0-.041-.043Zm0,0" transform="translate(-313.352 -95.962)"/>
      <path id="Trazado_161011" data-name="Trazado 161011" d="M438.724,260.385a1.376,1.376,0,0,0-.117,2.748l.078,0a1.367,1.367,0,0,0,1.363-1.292l0-.056A1.365,1.365,0,0,0,438.724,260.385Zm0,0" transform="translate(-357.61 -212.926)"/>
      <path id="Trazado_161012" data-name="Trazado 161012" d="M334.263,81.836l.033.018a1.362,1.362,0,0,0,1.841-.562,1.371,1.371,0,0,0-.555-1.85l-.661,1.2.657-1.2a1.367,1.367,0,1,0-1.314,2.4Zm0,0" transform="translate(-272.759 -64.822)"/>
      <path id="Trazado_161013" data-name="Trazado 161013" d="M360.417,98.8l.021.016a1.367,1.367,0,0,0,1.652-2.179l-.009-.006a1.367,1.367,0,1,0-1.665,2.169Zm0,0" transform="translate(-294.289 -78.786)"/>
      <path id="Trazado_161014" data-name="Trazado 161014" d="M92.475,68.154l-6.417-6.428a2.887,2.887,0,0,0-4.087,0l-.149.149-.421-.421a5.517,5.517,0,0,1-1.2-1.791,1.333,1.333,0,0,0-.1-.253,5.528,5.528,0,0,1-.318-1.857V55.734a1.377,1.377,0,1,0-.009-2.43,7.707,7.707,0,0,0-2.259-5.14l-6.225-6.236a7.386,7.386,0,0,0-9.445-.848l-.661-.664V24.78a7.762,7.762,0,0,0-1.926-5.119,5.516,5.516,0,0,1-1.37-3.641V14.875h.094a2.893,2.893,0,0,0,2.89-2.891V2.891A2.893,2.893,0,0,0,57.987,0H32.452a2.893,2.893,0,0,0-2.89,2.891v9.093a2.893,2.893,0,0,0,2.89,2.891h.211v.6a5.485,5.485,0,0,1-1.613,3.9l-2.756,2.761a7.712,7.712,0,0,0-2.268,5.484v8.819a7.371,7.371,0,0,0,.794,3.332,7.34,7.34,0,0,0-4.8,2.156L15.8,48.163a7.713,7.713,0,0,0-2.268,5.484v3.9a5.484,5.484,0,0,1-1.613,3.9l-.417.417,0,0-.148-.149a2.887,2.887,0,0,0-4.087,0L.843,68.154a2.9,2.9,0,0,0,0,4.088l2.2,2.2a1.367,1.367,0,1,0,1.934-1.932l-2.2-2.2a.159.159,0,0,1,0-.224L9.2,63.657a.153.153,0,0,1,.217,0l1.116,1.118h0l15.234,15.26,1.707,1.71a.159.159,0,0,1,0,.224L21.053,88.4a.153.153,0,0,1-.218,0L8.846,76.388a1.367,1.367,0,1,0-1.935,1.932L18.9,90.33a2.887,2.887,0,0,0,4.087,0L29.405,83.9a2.9,2.9,0,0,0,0-4.087l-.07-.07.81-.811a5.493,5.493,0,0,1,3.536-1.6,7.735,7.735,0,0,0,4.977-2.257l5.9-5.908A4.68,4.68,0,0,0,47.937,65.6a4.661,4.661,0,0,0,6.66-4.218V58.136a4.659,4.659,0,0,0,6.591-4.249v-9.6l4.2,4.226a1.367,1.367,0,1,0,1.938-1.929l-3.506-3.523a4.656,4.656,0,0,1,5.534.795l6.225,6.235a5,5,0,0,1,1.469,3.553v3.9a8.2,8.2,0,0,0,2.411,5.832l.424.425L77.906,65.8,65.914,77.809l-.669-.67-.021-.02L65.107,77a8.231,8.231,0,0,0-5.293-2.4,5.013,5.013,0,0,1-3.224-1.463L52.1,68.671a1.367,1.367,0,1,0-1.928,1.938l4.489,4.464a7.735,7.735,0,0,0,4.978,2.257,5.5,5.5,0,0,1,3.536,1.6l.066.066a1.315,1.315,0,0,0,.113.114l.63.631-.07.07a2.9,2.9,0,0,0,0,4.087L70.33,90.33a2.888,2.888,0,0,0,4.088,0L92.475,72.241a2.9,2.9,0,0,0,0-4.087ZM80.7,54.561l-.026,0-.249-.051Zm-43.98,18.58A5,5,0,0,1,33.5,74.6,8.231,8.231,0,0,0,28.211,77l-.807.808-.726-.728-.028-.028L13.429,63.81l.424-.425a8.2,8.2,0,0,0,2.411-5.832v-3.9a4.994,4.994,0,0,1,1.469-3.553l6.225-6.235a4.655,4.655,0,0,1,5.541-.79l-3.511,3.517a1.367,1.367,0,0,0,1.935,1.932l4.194-4.2V61.382A4.661,4.661,0,0,0,38.8,65.587a4.685,4.685,0,0,0,2.317,3.148ZM58.455,53.888a1.929,1.929,0,1,1-3.857,0V38.639a1.367,1.367,0,1,0-2.734,0V61.382a1.927,1.927,0,0,1-3.829.32V38.624a1.381,1.381,0,0,0-2.762.016V61.382a4.687,4.687,0,0,0,.028.513v2.755a1.928,1.928,0,1,1-3.857,0V38.607a1.367,1.367,0,0,0-2.735,0V61.382a1.928,1.928,0,1,1-3.857,0V35.954a1.367,1.367,0,1,0-2.734,0v4.7a1.342,1.342,0,0,0-.329.157,4.678,4.678,0,0,1-3.029-4.375V27.62a5,5,0,0,1,1.469-3.553l2.756-2.761A8.2,8.2,0,0,0,35.4,15.474v-.6h2.748a1.367,1.367,0,0,0,0-2.734H32.452a.156.156,0,0,1-.156-.157V2.891a.156.156,0,0,1,.156-.157H57.986a.157.157,0,0,1,.157.157v9.093a.156.156,0,0,1-.157.157H44.563a1.367,1.367,0,0,0,0,2.734h10.6V16.02a8.254,8.254,0,0,0,2.048,5.444,5.026,5.026,0,0,1,1.248,3.316ZM90.539,70.31,72.483,88.4a.146.146,0,0,1-.109.046.149.149,0,0,1-.109-.046L65.848,81.97a.159.159,0,0,1,0-.224l1.033-1.035h0l10.482-10.5L83.9,63.657a.153.153,0,0,1,.217,0l6.418,6.428a.159.159,0,0,1,0,.224Zm0,0" transform="translate(0 0)"/>
      <path id="Trazado_161015" data-name="Trazado 161015" d="M195.272,32.8a1.458,1.458,0,1,0,1.456,1.458A1.458,1.458,0,0,0,195.272,32.8Zm0,0" transform="translate(-158.491 -26.826)"/>
      <path id="Trazado_161016" data-name="Trazado 161016" d="M456.87,374.688a1.458,1.458,0,1,0,1.455,1.458A1.459,1.459,0,0,0,456.87,374.688Zm0,0" transform="translate(-372.409 -306.396)"/>
      <path id="Trazado_161017" data-name="Trazado 161017" d="M111.923,444.661a1.456,1.456,0,1,0-1.455,1.458A1.458,1.458,0,0,0,111.923,444.661Zm0,0" transform="translate(-89.143 -362.423)"/>
    </g>
  </g>
</svg>
