<svg xmlns="http://www.w3.org/2000/svg" width="147" height="147" viewBox="0 0 147 147">
  <g id="Grupo_112770" data-name="Grupo 112770" transform="translate(-249 -4385.931)">
    <g id="Elipse_5108" data-name="Elipse 5108" transform="translate(249 4385.931)" fill="#fff" stroke="#3d46c2" stroke-width="4">
      <circle cx="73.5" cy="73.5" r="73.5" stroke="none"/>
      <circle cx="73.5" cy="73.5" r="71.5" fill="none"/>
    </g>
    <g id="_009-brazo-mecanico" data-name="009-brazo-mecanico" transform="translate(279 4412.931)">
      <path id="Trazado_160718" data-name="Trazado 160718" d="M105.9,366.644v3.687H64.626v-3.687a3.435,3.435,0,0,1,3.435-3.435h34.4A3.435,3.435,0,0,1,105.9,366.644Z" transform="translate(-56.5 -297.009)" fill="#3d46c2"/>
      <path id="Trazado_160719" data-name="Trazado 160719" d="M83.858,363.209h-15.8a3.435,3.435,0,0,0-3.435,3.435v3.687h15.8v-3.687A3.435,3.435,0,0,1,83.858,363.209Z" transform="translate(-56.5 -297.009)" fill="#f85316"/>
      <path id="Trazado_160720" data-name="Trazado 160720" d="M314.183,16.476v7.3L298.8,25.113l-.23-9.989Z" transform="translate(-247.801 -12.367)" fill="#e1e5e9"/>
      <path id="Trazado_160721" data-name="Trazado 160721" d="M298.566,15.124l.1,4.338,15.517,1.344v-4.33Z" transform="translate(-247.801 -12.367)" fill="#d0d3d6"/>
      <path id="Trazado_160722" data-name="Trazado 160722" d="M158.871,41.851l4.19,6-15.015,11.86-9.1-7.85Z" transform="translate(-117.278 -34.223)" fill="#e1e5e9"/>
      <path id="Trazado_160723" data-name="Trazado 160723" d="M161.773,45.764l-2.811-4.173-20.01,10.057.073.063-.007,0,4.015,3.465.007,0,5.007,4.321,3.593-2.838a10.016,10.016,0,0,0-.49-2.017,3.584,3.584,0,0,1,1.75-4.42Z" transform="translate(-117.278 -34.01)" fill="#d0d3d6"/>
      <path id="Trazado_160724" data-name="Trazado 160724" d="M117.939,154.435l4.026,21.327H103.7l4.051-21.457Z" transform="translate(-88.454 -126.18)" fill="#e1e5e9"/>
      <path id="Trazado_160725" data-name="Trazado 160725" d="M112.677,163.073l1.64-8.685-6.561-.084L103.7,175.761h18.262l-.362-1.918h0A9.085,9.085,0,0,1,112.677,163.073Z" transform="translate(-88.455 -126.18)" fill="#d0d3d6"/>
      <path id="Trazado_160726" data-name="Trazado 160726" d="M89.98,402.715v11.357h-50.4V402.715a3.435,3.435,0,0,1,3.435-3.435H86.545A3.435,3.435,0,0,1,89.98,402.715Z" transform="translate(-36.016 -326.506)" fill="#e1e5e9"/>
      <path id="Trazado_160727" data-name="Trazado 160727" d="M60.448,399.28H43.012a3.435,3.435,0,0,0-3.435,3.435v11.357H57.013V402.715A3.435,3.435,0,0,1,60.448,399.28Z" transform="translate(-36.016 -326.506)" fill="#d0d3d6"/>
      <path id="Trazado_160728" data-name="Trazado 160728" d="M105.459,244.978a10.774,10.774,0,1,1-10.774,10.774A10.776,10.776,0,0,1,105.459,244.978Z" transform="translate(-81.08 -200.328)" fill="#3d46c2"/>
      <path id="Trazado_160729" data-name="Trazado 160729" d="M104.933,255.753a10.773,10.773,0,0,1,5.651-9.48,10.774,10.774,0,1,0,0,18.96A10.772,10.772,0,0,1,104.933,255.753Z" transform="translate(-81.081 -200.328)" fill="#f85316"/>
      <ellipse id="Elipse_5403" data-name="Elipse 5403" cx="4.018" cy="4.018" rx="4.018" ry="4.018" transform="translate(20.362 51.408)" fill="#c3c1c9"/>
      <ellipse id="Elipse_5404" data-name="Elipse 5404" cx="6.392" cy="6.392" rx="6.392" ry="6.392" transform="translate(40.998 1.37)" fill="#3d46c2"/>
      <path id="Trazado_160730" data-name="Trazado 160730" d="M251.864,13.906a6.385,6.385,0,0,1,2.949-5.384,6.392,6.392,0,1,0,0,10.768A6.384,6.384,0,0,1,251.864,13.906Z" transform="translate(-203.981 -6.144)" fill="#f85316"/>
      <ellipse id="Elipse_5405" data-name="Elipse 5405" cx="2.191" cy="2.191" rx="2.191" ry="2.191" transform="translate(45.198 5.57)" fill="#fff"/>
      <path id="Trazado_160731" data-name="Trazado 160731" d="M390.651,12.494V23.455a1.955,1.955,0,0,1-1.956,1.956h-6.5a1.955,1.955,0,0,1-1.956-1.956V8.5a.984.984,0,0,1,.984-.984h4.445A4.98,4.98,0,0,1,390.651,12.494Z" transform="translate(-314.591 -6.144)" fill="#c3c1c9"/>
      <path id="Trazado_160732" data-name="Trazado 160732" d="M384.738,108.464v1.424a2.758,2.758,0,0,1-2.758,2.758h-8a2.758,2.758,0,0,1-2.758-2.758v-1.424a2.758,2.758,0,0,1,2.758-2.758h8A2.758,2.758,0,0,1,384.738,108.464Z" transform="translate(-307.216 -86.44)" fill="#3d46c2"/>
      <path id="Trazado_160733" data-name="Trazado 160733" d="M377.982,109.888v-1.424a2.758,2.758,0,0,1,2.758-2.758h-6.757a2.758,2.758,0,0,0-2.758,2.758v1.424a2.758,2.758,0,0,0,2.758,2.758h6.757A2.758,2.758,0,0,1,377.982,109.888Z" transform="translate(-307.217 -86.44)" fill="#f85316"/>
      <path id="Trazado_160734" data-name="Trazado 160734" d="M361.545,150.47v8.264a1.665,1.665,0,0,1-1.666,1.666h-3.426a1.665,1.665,0,0,1-1.666-1.666v-5.256a2.941,2.941,0,0,0-2.94-2.94h-8a2.941,2.941,0,0,0-2.94,2.94v5.256a1.665,1.665,0,0,1-1.666,1.666h-3.426a1.665,1.665,0,0,1-1.666-1.666V150.47a6.689,6.689,0,0,1,6.689-6.689h14.014A6.689,6.689,0,0,1,361.545,150.47Z" transform="translate(-276.901 -117.575)" fill="#e1e5e9"/>
      <path id="SVGCleanerId_0" d="M78.87,474.427a2.739,2.739,0,0,1,0,5.479H30.293a2.739,2.739,0,0,1,0-5.479Z" transform="translate(-26.184 -387.956)" fill="#3d46c2"/>
      <g id="Grupo_112480" data-name="Grupo 112480" transform="translate(1.37 86.471)">
        <path id="SVGCleanerId_0_1_" d="M78.87,474.427a2.739,2.739,0,0,1,0,5.479H30.293a2.739,2.739,0,0,1,0-5.479Z" transform="translate(-27.554 -474.427)" fill="#3d46c2"/>
      </g>
      <path id="Trazado_160735" data-name="Trazado 160735" d="M43.35,477.165a2.744,2.744,0,0,1,2.739-2.739h-15.8a2.739,2.739,0,0,0,0,5.479h15.8A2.74,2.74,0,0,1,43.35,477.165Z" transform="translate(-26.184 -387.956)" fill="#f85316"/>
      <path id="Trazado_160736" data-name="Trazado 160736" d="M122.665,93.683a6.939,6.939,0,1,1-6.939,6.939A6.939,6.939,0,0,1,122.665,93.683Z" transform="translate(-98.286 -76.608)" fill="#3d46c2"/>
      <path id="Trazado_160737" data-name="Trazado 160737" d="M122.665,100.622a6.934,6.934,0,0,1,3.47-6.009,6.939,6.939,0,1,0,0,12.018A6.934,6.934,0,0,1,122.665,100.622Z" transform="translate(-98.286 -76.608)" fill="#f85316"/>
      <ellipse id="Elipse_5406" data-name="Elipse 5406" cx="2.191" cy="2.191" rx="2.191" ry="2.191" transform="translate(22.188 21.823)" fill="#fff"/>
      <path id="Trazado_160738" data-name="Trazado 160738" d="M371.073,168.128a3.646,3.646,0,0,0-3.646-3.646H353.509a3.646,3.646,0,0,0-3.646,3.646v9.336h2.091a1.665,1.665,0,0,0,1.666-1.665v-5.256a2.941,2.941,0,0,1,2.94-2.94h8a2.941,2.941,0,0,1,2.94,2.94V175.8a1.665,1.665,0,0,0,1.665,1.665h1.908v-9.336Z" transform="translate(-289.748 -134.503)" fill="#d0d3d6"/>
      <g id="Grupo_112481" data-name="Grupo 112481" transform="translate(0)">
        <path id="Trazado_160739" data-name="Trazado 160739" d="M98.68,24.867a4.1,4.1,0,0,0,.252-1.419V22.024a4.124,4.124,0,0,0-1.748-3.369,3.3,3.3,0,0,0,.287-1.344V6.35A6.357,6.357,0,0,0,91.121,0H86.676a2.357,2.357,0,0,0-2.354,2.355v.28L72.329,1.747A7.757,7.757,0,0,0,59.708,6.969L41.255,16.333a8.3,8.3,0,0,0-3.473,12.674L34.413,48.554A12.12,12.12,0,0,0,36.747,64.83H31.6a4.81,4.81,0,0,0-4.8,4.805v1.776a4.811,4.811,0,0,0-4.566,4.8v9.368a4.108,4.108,0,0,0,1.918,7.741H72.726a4.107,4.107,0,0,0,2.648-7.248V76.209a4.811,4.811,0,0,0-4.565-4.8V69.635a4.81,4.81,0,0,0-4.8-4.8H52.093a12.117,12.117,0,0,0,2.526-15.986l-1.44-8.026a1.37,1.37,0,0,0-2.7.484l.727,4.055c-.317-.214-.645-.411-.981-.594l-.045-.024q-.485-.262-.993-.48l-.164-.068c-.106-.043-.212-.086-.319-.126l-.213-.079c-.1-.035-.2-.068-.3-.1s-.2-.066-.3-.1c-.12-.036-.241-.071-.362-.1-.084-.022-.169-.042-.254-.063l-.267-.062-.255-.053c-.108-.021-.216-.04-.324-.058-.076-.013-.153-.026-.229-.038-.157-.023-.315-.043-.474-.061l-.194-.018q-.19-.018-.381-.029l-.178-.01c-.184-.008-.369-.014-.555-.014s-.364.006-.546.014l-.2.011q-.168.01-.335.026c-.082.007-.163.014-.244.023l-.181.023q-.343.042-.681.1l-.04.007a12.074,12.074,0,0,0-4.441,1.791L40.19,31.164l.065.035q.184.107.374.2l.079.041a8.212,8.212,0,0,0,.975.413l.018.006q.248.086.5.157l.022.006a8.208,8.208,0,0,0,1.042.215l.095.012q.207.026.416.042l.127.01c.17.01.341.017.513.017s.344-.007.515-.017l.127-.01q.212-.016.42-.043l.092-.012a8.24,8.24,0,0,0,1.047-.216l.024-.007q.257-.071.506-.158l.013,0a8.244,8.244,0,0,0,.975-.414l.088-.045q.186-.1.367-.2c.023-.013.047-.025.07-.038l.852,4.75a1.37,1.37,0,1,0,2.7-.484L51.058,29a8.282,8.282,0,0,0,1.41-2.924L65.845,15.36a7.793,7.793,0,0,0,1.585.163,7.715,7.715,0,0,0,4.415-1.384l12.477-1.216V17.31a3.3,3.3,0,0,0,.245,1.248,4.127,4.127,0,0,0-1.889,3.465v1.424a4.11,4.11,0,0,0,.266,1.457A8.07,8.07,0,0,0,75.921,32.9v8.263a3.039,3.039,0,0,0,3.035,3.035h3.426a3.039,3.039,0,0,0,3.035-3.035V35.9a1.572,1.572,0,0,1,1.571-1.571h8A1.572,1.572,0,0,1,96.558,35.9v5.256a3.039,3.039,0,0,0,3.035,3.035h3.426a3.039,3.039,0,0,0,3.035-3.035V32.9A8.07,8.07,0,0,0,98.68,24.867ZM85.418,23.448V22.024a1.39,1.39,0,0,1,1.388-1.388h8a1.39,1.39,0,0,1,1.388,1.388v1.424A1.39,1.39,0,0,1,94.8,24.836h-8A1.389,1.389,0,0,1,85.418,23.448ZM87.061,2.739h4.06A3.615,3.615,0,0,1,94.731,6.35V17.311a.587.587,0,0,1-.586.586h-6.5a.587.587,0,0,1-.586-.586V2.739ZM42.415,18.819l.148-.055.1-.034.153-.049.108-.031.148-.04.122-.028.138-.03.138-.025.127-.021c.052-.008.1-.013.156-.02l.114-.013c.06-.006.12-.01.18-.014l.094-.007q.138-.007.277-.007a5.576,5.576,0,0,1,5.57,5.57c0,.09,0,.179-.007.267,0,.067-.009.134-.014.2,0,.02,0,.039,0,.059q-.012.121-.029.243c0,.005,0,.01,0,.015-.011.081-.025.162-.04.242a5.575,5.575,0,0,1-2.093,3.4l-.061.047c-.042.031-.086.062-.129.092s-.073.051-.11.076l-.1.066c-.049.031-.1.061-.147.091l-.08.046c-.06.034-.12.067-.181.1l-.057.029c-.071.036-.142.07-.214.1l-.035.016c-.08.036-.162.07-.244.1l-.015.006a5.575,5.575,0,0,1-1.4.341h-.01c-.088.009-.177.016-.265.021l-.03,0q-.147.008-.294.008t-.294-.008l-.029,0c-.089-.005-.178-.012-.266-.021h-.012a5.562,5.562,0,0,1-1.4-.341L42.4,29.2q-.124-.048-.245-.1l-.033-.015c-.073-.033-.145-.068-.217-.1l-.054-.028c-.062-.032-.124-.066-.185-.1l-.076-.044c-.051-.03-.1-.062-.152-.094-.033-.021-.066-.041-.1-.063s-.078-.054-.117-.081-.082-.057-.122-.087l-.072-.055a5.565,5.565,0,0,1,1.383-9.612ZM72.726,90.58H24.149A1.369,1.369,0,0,1,24,87.849l.012,0a1.353,1.353,0,0,1,.139-.007H72.725a1.389,1.389,0,0,1,.154.009l.05.008c.034.005.068.011.1.019l.052.013c.034.009.069.02.1.032l.04.015a1.342,1.342,0,0,1,.132.06,1.369,1.369,0,0,1-.633,2.583Zm-.091-14.37V85.1H24.971V76.209a2.068,2.068,0,0,1,2.066-2.066H70.569A2.068,2.068,0,0,1,72.634,76.209ZM66,67.569a2.068,2.068,0,0,1,2.066,2.066V71.4H29.536V69.635A2.068,2.068,0,0,1,31.6,67.569ZM44.419,64.83a9.4,9.4,0,0,1-7.546-15.012c.033-.044.068-.087.1-.131q.181-.234.376-.456c.042-.048.084-.1.127-.145.06-.065.122-.128.183-.192s.12-.123.181-.184.108-.1.163-.156q.122-.113.247-.222c.039-.034.078-.069.118-.1a9.465,9.465,0,0,1,4.377-2.059l.026,0c.159-.029.32-.052.481-.073l.087-.011c.145-.017.289-.029.435-.039l.112-.009c.177-.01.355-.016.533-.016s.361.006.541.017c.05,0,.1.008.148.011.133.01.266.021.4.037l.154.019q.2.027.4.062l.126.022q.24.046.476.1l.041.009a9.4,9.4,0,0,1,1.036.325l.115.045q.184.072.365.152l.156.071c.1.049.209.1.311.153.057.029.115.057.171.088.1.054.2.111.3.168q.187.11.369.227c.057.036.114.072.17.11.091.062.181.127.27.192l.125.093q.141.107.278.219l.084.07a9.467,9.467,0,0,1,.922.883l.006.006c.087.1.172.194.255.294l.073.088c.078.1.154.192.228.29.024.031.047.064.07.1A9.4,9.4,0,0,1,44.419,64.83Zm8.166-42.355c0-.019-.009-.036-.012-.055q-.044-.225-.1-.446l-.007-.029c-.04-.157-.086-.311-.135-.464-.014-.045-.03-.089-.045-.134q-.057-.167-.12-.331c-.018-.047-.036-.093-.055-.139q-.076-.184-.159-.364c-.012-.025-.022-.05-.034-.075q-.1-.216-.219-.424c-.019-.035-.04-.069-.059-.1q-.09-.158-.187-.312l-.078-.122q-.1-.156-.211-.307c-.021-.029-.041-.059-.062-.087q-.142-.191-.294-.375l-.057-.065q-.126-.148-.259-.291l-.1-.1Q50.27,18.12,50.14,18l-.09-.086c-.117-.108-.236-.213-.359-.314l-.029-.023q-.169-.138-.346-.266l-.113-.081q-.144-.1-.291-.2l-.117-.075c-.127-.079-.255-.155-.387-.227l-.024-.014c-.14-.076-.282-.147-.426-.215l-.124-.056q-.16-.073-.324-.139l-.078-.034L59.969,9.908c.014.048.03.1.044.144l.008.027a7.728,7.728,0,0,0,2.971,4.056ZM65.857,12.53c-.075-.025-.149-.051-.222-.079-.05-.019-.1-.038-.149-.059s-.107-.048-.161-.072c-.095-.044-.188-.089-.279-.139l-.02-.011a5.056,5.056,0,0,1-2.11-2.207L62.885,9.9c-.039-.082-.075-.166-.11-.251-.026-.066-.053-.132-.076-.2-.014-.04-.028-.081-.042-.122-.034-.1-.066-.207-.093-.313l0-.011c-.03-.118-.055-.238-.076-.36l-.006-.034a5.08,5.08,0,0,1-.071-.79s0-.006,0-.009,0-.029,0-.044a5.019,5.019,0,0,1,8.565-3.556l.009.009a5.007,5.007,0,0,1,1.47,3.547c0,.092,0,.183-.008.274,0,.035-.005.071-.008.106,0,.054-.008.108-.014.162s-.011.092-.018.137-.011.081-.017.122-.018.107-.029.16c-.006.03-.012.059-.018.088Q72.321,8.9,72.3,9l-.012.047a5.029,5.029,0,0,1-1.445,2.4l-.056.052c-.04.036-.081.071-.122.106l-.087.072a5,5,0,0,1-4.718.857Zm8.568-1.394a7.694,7.694,0,0,0,.515-1.412l.013-.05q.039-.153.071-.307c.008-.038.015-.076.023-.114.017-.088.034-.177.048-.266.009-.057.016-.114.024-.172.01-.075.021-.149.029-.225s.014-.159.02-.239c0-.057.01-.114.013-.171q.011-.209.012-.42a7.712,7.712,0,0,0-.65-3.1l9.781.723v4.79Zm28.89,30.023a.3.3,0,0,1-.3.3H99.593a.3.3,0,0,1-.3-.3V35.9a4.315,4.315,0,0,0-4.31-4.31h-8a4.315,4.315,0,0,0-4.31,4.31v5.256a.3.3,0,0,1-.3.3H78.957a.3.3,0,0,1-.3-.3V32.9a5.326,5.326,0,0,1,5.32-5.32H97.994a5.326,5.326,0,0,1,5.32,5.32Z" transform="translate(-20.04)" fill="#000100"/>
        <path id="Trazado_160740" data-name="Trazado 160740" d="M398.145,44.93a1.37,1.37,0,0,0,1.37-1.37V36.438a1.37,1.37,0,1,0-2.739,0V43.56A1.369,1.369,0,0,0,398.145,44.93Z" transform="translate(-328.11 -28.676)" fill="#000100"/>
        <path id="Trazado_160741" data-name="Trazado 160741" d="M129.629,274.536a5.387,5.387,0,1,0,5.387,5.387A5.393,5.393,0,0,0,129.629,274.536Zm0,8.035a2.648,2.648,0,1,1,2.648-2.648A2.651,2.651,0,0,1,129.629,282.571Z" transform="translate(-105.25 -224.498)" fill="#000100"/>
        <path id="Trazado_160742" data-name="Trazado 160742" d="M267.631,26.606a3.561,3.561,0,1,0-3.561,3.561A3.565,3.565,0,0,0,267.631,26.606Zm-3.561.822a.822.822,0,1,1,.822-.822A.823.823,0,0,1,264.07,27.428Z" transform="translate(-216.68 -18.845)" fill="#000100"/>
        <path id="Trazado_160743" data-name="Trazado 160743" d="M137.823,119.342a3.561,3.561,0,1,0-3.561-3.561A3.565,3.565,0,0,0,137.823,119.342Zm0-4.383a.822.822,0,1,1-.822.822A.823.823,0,0,1,137.823,114.959Z" transform="translate(-113.444 -91.766)" fill="#000100"/>
      </g>
    </g>
  </g>
</svg>
