<svg xmlns="http://www.w3.org/2000/svg" width="109" height="109" viewBox="0 0 109 109">
  <g id="Grupo_112769" data-name="Grupo 112769" transform="translate(-996 -3675)">
    <g id="Elipse_5378" data-name="Elipse 5378" transform="translate(996 3675)" fill="#fff" stroke="#3d46c2" stroke-width="4">
      <circle cx="54.5" cy="54.5" r="54.5" stroke="none"/>
      <circle cx="54.5" cy="54.5" r="52.5" fill="none"/>
    </g>
    <g id="_019-ejecucin" data-name="019-ejecucin" transform="translate(1012.97 3698.419)">
      <g id="Grupo_112559" data-name="Grupo 112559" transform="translate(0 0)">
        <g id="Grupo_112548" data-name="Grupo 112548" transform="translate(1.098 1.099)">
          <g id="Grupo_112538" data-name="Grupo 112538" transform="translate(19.457 34.259)">
            <g id="Grupo_112536" data-name="Grupo 112536" transform="translate(0.001)">
              <path id="Trazado_160922" data-name="Trazado 160922" d="M172.808,272.493l-1.732-1a14.175,14.175,0,0,0,0-4.125l1.732-1a2.706,2.706,0,0,0,.991-3.7l-2.451-4.246a2.705,2.705,0,0,0-3.7-.991l-1.736,1a14.044,14.044,0,0,0-3.569-2.064v-2a2.706,2.706,0,0,0-2.705-2.705h-4.9a2.707,2.707,0,0,0-2.705,2.705v2a14.078,14.078,0,0,0-3.569,2.064l-1.734-1a2.7,2.7,0,0,0-3.7.991l-2.453,4.246a2.707,2.707,0,0,0,.991,3.7l1.734,1a13.986,13.986,0,0,0,0,4.125l-1.734,1a2.707,2.707,0,0,0-.991,3.7l2.453,4.246a2.7,2.7,0,0,0,3.7.991l1.734-1a14.083,14.083,0,0,0,3.569,2.064v2a2.706,2.706,0,0,0,2.705,2.705h4.9a2.7,2.7,0,0,0,2.705-2.705v-2a14.042,14.042,0,0,0,3.569-2.064l1.736,1a2.705,2.705,0,0,0,3.7-.991l2.451-4.246A2.706,2.706,0,0,0,172.808,272.493Z" transform="translate(-140.215 -251.666)" fill="#75b62f"/>
            </g>
            <g id="Grupo_112537" data-name="Grupo 112537" transform="translate(0 5.405)">
              <path id="Trazado_160923" data-name="Trazado 160923" d="M144.574,307.65a2.707,2.707,0,0,1,.991-3.7l1.734-1a14.026,14.026,0,0,1,0-4.125l-1.734-1a2.707,2.707,0,0,1-.991-3.7l2.453-4.246a2.679,2.679,0,0,1,.434-.565l-.737-.426a2.7,2.7,0,0,0-3.7.991l-2.453,4.246a2.707,2.707,0,0,0,.991,3.7l1.734,1a14.026,14.026,0,0,0,0,4.125l-1.734,1a2.707,2.707,0,0,0-.991,3.7l2.453,4.246a2.7,2.7,0,0,0,3.7.991l.737-.426a2.681,2.681,0,0,1-.434-.565Z" transform="translate(-140.211 -288.532)" fill="#75b62f"/>
            </g>
          </g>
          <g id="Grupo_112545" data-name="Grupo 112545" transform="translate(0)">
            <g id="Grupo_112541" data-name="Grupo 112541">
              <g id="Grupo_112539" data-name="Grupo 112539" transform="translate(0)">
                <path id="Trazado_160924" data-name="Trazado 160924" d="M40.086,38.808l-1.732-1a14.174,14.174,0,0,0,0-4.125l1.732-1a2.706,2.706,0,0,0,.991-3.7L38.625,24.74a2.706,2.706,0,0,0-3.7-.991l-1.736,1a14.045,14.045,0,0,0-3.569-2.064v-2a2.706,2.706,0,0,0-2.705-2.705h-4.9a2.707,2.707,0,0,0-2.705,2.705v2a14.076,14.076,0,0,0-3.569,2.064L14,23.75a2.7,2.7,0,0,0-3.7.991L7.855,28.986a2.707,2.707,0,0,0,.991,3.7l1.734,1a13.986,13.986,0,0,0,0,4.125l-1.734,1a2.707,2.707,0,0,0-.991,3.7l2.453,4.246a2.7,2.7,0,0,0,3.7.991l1.734-1A14.083,14.083,0,0,0,19.308,48.8v2a2.706,2.706,0,0,0,2.705,2.705h4.9A2.7,2.7,0,0,0,29.624,50.8v-2a14.041,14.041,0,0,0,3.569-2.064l1.736,1a2.705,2.705,0,0,0,3.7-.991L41.077,42.5A2.705,2.705,0,0,0,40.086,38.808ZM24.467,42.882A7.135,7.135,0,1,1,31.6,35.745,7.136,7.136,0,0,1,24.467,42.882Z" transform="translate(-7.493 -17.981)" fill="#75b62f"/>
              </g>
              <g id="Grupo_112540" data-name="Grupo 112540" transform="translate(0 5.405)">
                <path id="Trazado_160925" data-name="Trazado 160925" d="M11.854,73.965a2.707,2.707,0,0,1,.991-3.7l1.734-1a14.025,14.025,0,0,1,0-4.125l-1.734-1a2.707,2.707,0,0,1-.991-3.7L14.307,56.2a2.681,2.681,0,0,1,.434-.565L14,55.211a2.7,2.7,0,0,0-3.7.991L7.853,60.447a2.707,2.707,0,0,0,.991,3.7l1.734,1a14.025,14.025,0,0,0,0,4.125l-1.734,1a2.707,2.707,0,0,0-.991,3.7l2.453,4.246A2.7,2.7,0,0,0,14,79.2l.737-.426a2.68,2.68,0,0,1-.434-.565Z" transform="translate(-7.491 -54.847)" fill="#75b62f"/>
              </g>
            </g>
            <g id="Grupo_112544" data-name="Grupo 112544" transform="translate(38.915)">
              <g id="Grupo_112542" data-name="Grupo 112542" transform="translate(0.001)">
                <path id="Trazado_160926" data-name="Trazado 160926" d="M305.53,38.808l-1.732-1a14.172,14.172,0,0,0,0-4.125l1.732-1a2.706,2.706,0,0,0,.991-3.7l-2.451-4.246a2.706,2.706,0,0,0-3.7-.991l-1.736,1a14.045,14.045,0,0,0-3.569-2.064v-2a2.706,2.706,0,0,0-2.705-2.705h-4.9a2.707,2.707,0,0,0-2.705,2.705v2a14.076,14.076,0,0,0-3.569,2.064l-1.734-1a2.7,2.7,0,0,0-3.7.991L273.3,28.986a2.707,2.707,0,0,0,.991,3.7l1.734,1a13.985,13.985,0,0,0,0,4.125l-1.734,1a2.707,2.707,0,0,0-.991,3.7l2.453,4.246a2.7,2.7,0,0,0,3.7.991l1.734-1a14.082,14.082,0,0,0,3.569,2.064v2a2.706,2.706,0,0,0,2.705,2.705h4.9a2.7,2.7,0,0,0,2.705-2.705v-2a14.041,14.041,0,0,0,3.569-2.064l1.736,1a2.705,2.705,0,0,0,3.7-.991l2.451-4.246a2.706,2.706,0,0,0-.991-3.7Zm-15.619,4.073a7.135,7.135,0,1,1,7.134-7.136A7.136,7.136,0,0,1,289.911,42.882Z" transform="translate(-272.937 -17.981)" fill="#75b62f"/>
              </g>
              <g id="Grupo_112543" data-name="Grupo 112543" transform="translate(0 5.405)">
                <path id="Trazado_160927" data-name="Trazado 160927" d="M277.3,73.965a2.707,2.707,0,0,1,.991-3.7l1.734-1a14.025,14.025,0,0,1,0-4.125l-1.734-1a2.707,2.707,0,0,1-.991-3.7l2.453-4.246a2.681,2.681,0,0,1,.434-.565l-.737-.426a2.7,2.7,0,0,0-3.7.991L273.3,60.447a2.707,2.707,0,0,0,.991,3.7l1.734,1a14.025,14.025,0,0,0,0,4.125l-1.734,1a2.707,2.707,0,0,0-.991,3.7l2.453,4.246a2.7,2.7,0,0,0,3.7.991l.737-.426a2.68,2.68,0,0,1-.434-.565Z" transform="translate(-272.933 -54.847)" fill="#75b62f"/>
              </g>
            </g>
          </g>
          <g id="Grupo_112546" data-name="Grupo 112546" transform="translate(57.017 36.139)">
            <path id="Trazado_160928" data-name="Trazado 160928" d="M408.093,278.6a17.352,17.352,0,0,0,4.163-11.328,2.784,2.784,0,0,0-5.569,0,11.86,11.86,0,0,1-1.388,5.594l-.267-.549a2.069,2.069,0,0,0-3.576-.251l-4.688,6.945a2.069,2.069,0,0,0,1.57,3.222l8.359.589a2.069,2.069,0,0,0,2.006-2.971Z" transform="translate(-396.411 -264.489)" fill="#f85316"/>
          </g>
          <g id="Grupo_112547" data-name="Grupo 112547" transform="translate(0 36.139)">
            <path id="Trazado_160929" data-name="Trazado 160929" d="M11.654,278.6a17.352,17.352,0,0,1-4.163-11.328,2.784,2.784,0,0,1,5.569,0,11.86,11.86,0,0,0,1.388,5.594l.267-.549a2.069,2.069,0,0,1,3.575-.251l4.688,6.945a2.069,2.069,0,0,1-1.57,3.222l-8.359.589a2.069,2.069,0,0,1-2.006-2.971Z" transform="translate(-7.491 -264.489)" fill="#f85316"/>
          </g>
          <path id="Trazado_160930" data-name="Trazado 160930" d="M206.2,336.024a2.8,2.8,0,0,1-2.242-1.124l-5.74-7.692a2.8,2.8,0,0,1,4.485-3.347l3.116,4.175,4.336-8.047a2.8,2.8,0,0,1,4.926,2.654l-6.418,11.909a2.8,2.8,0,0,1-2.258,1.463C206.336,336.022,206.267,336.024,206.2,336.024Z" transform="translate(-169.782 -274.459)" fill="#f3ff3c"/>
        </g>
        <g id="Grupo_112558" data-name="Grupo 112558">
          <g id="Grupo_112550" data-name="Grupo 112550" transform="translate(19.458 34.258)">
            <g id="Grupo_112549" data-name="Grupo 112549">
              <path id="Trazado_160931" data-name="Trazado 160931" d="M153.25,281.89h-4.9a3.809,3.809,0,0,1-3.8-3.8v-1.274a15.16,15.16,0,0,1-2.55-1.474l-1.1.638a3.8,3.8,0,0,1-5.2-1.394l-2.452-4.244a3.813,3.813,0,0,1,1.393-5.2l1.1-.636c-.048-.488-.072-.982-.072-1.475s.024-.986.072-1.474l-1.1-.637a3.812,3.812,0,0,1-1.394-5.2l2.454-4.247a3.8,3.8,0,0,1,5.2-1.393l1.1.638a15.169,15.169,0,0,1,2.55-1.474v-1.274a3.809,3.809,0,0,1,3.8-3.8h4.9a3.809,3.809,0,0,1,3.8,3.8v1.274a15.126,15.126,0,0,1,2.551,1.474l1.106-.638a3.809,3.809,0,0,1,5.2,1.393l2.451,4.245a3.81,3.81,0,0,1-1.393,5.2l-1.1.638c.047.489.071.982.071,1.473s-.024.984-.071,1.475l1.1.636h0a3.81,3.81,0,0,1,1.393,5.2l-2.451,4.245a3.81,3.81,0,0,1-5.2,1.393l-1.105-.638a15.114,15.114,0,0,1-2.551,1.474v1.274A3.809,3.809,0,0,1,153.25,281.89Zm-11.179-8.969a1.1,1.1,0,0,1,.684.238,12.97,12.97,0,0,0,3.29,1.9,1.1,1.1,0,0,1,.695,1.022v2a1.608,1.608,0,0,0,1.606,1.606h4.9a1.608,1.608,0,0,0,1.606-1.606v-2a1.1,1.1,0,0,1,.695-1.022,12.928,12.928,0,0,0,3.29-1.9,1.1,1.1,0,0,1,1.234-.092l1.736,1a1.608,1.608,0,0,0,2.195-.588l2.451-4.245a1.608,1.608,0,0,0-.588-2.194l-1.732-1a1.1,1.1,0,0,1-.538-1.112,13.073,13.073,0,0,0,0-3.8,1.1,1.1,0,0,1,.537-1.112l1.732-1a1.608,1.608,0,0,0,.589-2.195l-2.451-4.245a1.609,1.609,0,0,0-2.194-.589l-1.736,1a1.1,1.1,0,0,1-1.234-.092,12.932,12.932,0,0,0-3.29-1.9,1.1,1.1,0,0,1-.695-1.022v-2a1.608,1.608,0,0,0-1.606-1.606h-4.9a1.608,1.608,0,0,0-1.606,1.606v2a1.1,1.1,0,0,1-.695,1.022,12.977,12.977,0,0,0-3.29,1.9,1.1,1.1,0,0,1-1.233.091l-1.734-1a1.605,1.605,0,0,0-2.193.587l-2.454,4.247a1.61,1.61,0,0,0,.589,2.194l1.734,1a1.1,1.1,0,0,1,.537,1.116,12.888,12.888,0,0,0,0,3.8,1.1,1.1,0,0,1-.538,1.116l-1.734,1a1.61,1.61,0,0,0-.587,2.2l2.452,4.244a1.606,1.606,0,0,0,2.194.589l1.734-1a1.094,1.094,0,0,1,.549-.148Z" transform="translate(-132.728 -244.163)"/>
            </g>
          </g>
          <g id="Grupo_112555" data-name="Grupo 112555" transform="translate(0.002)">
            <g id="Grupo_112552" data-name="Grupo 112552" transform="translate(0 0)">
              <g id="Grupo_112551" data-name="Grupo 112551">
                <path id="Trazado_160932" data-name="Trazado 160932" d="M20.533,48.215h-4.9a3.809,3.809,0,0,1-3.8-3.8V43.135a15.159,15.159,0,0,1-2.55-1.474l-1.1.638a3.8,3.8,0,0,1-5.2-1.394L.519,36.661a3.813,3.813,0,0,1,1.393-5.2l1.1-.636c-.048-.488-.072-.982-.072-1.475s.024-.986.072-1.474l-1.1-.637a3.812,3.812,0,0,1-1.394-5.2L2.972,17.8A3.8,3.8,0,0,1,8.17,16.4l1.1.638a15.171,15.171,0,0,1,2.55-1.474V14.293a3.809,3.809,0,0,1,3.8-3.8h4.9a3.809,3.809,0,0,1,3.8,3.8v1.274a15.128,15.128,0,0,1,2.551,1.474l1.106-.638a3.8,3.8,0,0,1,5.2,1.393l2.451,4.245a3.8,3.8,0,0,1-1.393,5.2l-1.1.638c.047.489.071.982.071,1.473s-.024.984-.071,1.474l1.1.636h0a3.8,3.8,0,0,1,1.393,5.2l-2.451,4.245a3.8,3.8,0,0,1-5.2,1.393l-1.105-.638a15.117,15.117,0,0,1-2.551,1.474V44.41A3.809,3.809,0,0,1,20.533,48.215ZM9.354,39.246a1.1,1.1,0,0,1,.684.238,12.971,12.971,0,0,0,3.29,1.9,1.1,1.1,0,0,1,.695,1.022v2a1.608,1.608,0,0,0,1.606,1.606h4.9a1.608,1.608,0,0,0,1.606-1.606v-2a1.1,1.1,0,0,1,.695-1.022,12.931,12.931,0,0,0,3.29-1.9,1.1,1.1,0,0,1,1.234-.092l1.736,1a1.606,1.606,0,0,0,2.195-.588l2.451-4.245a1.608,1.608,0,0,0-.588-2.194l-1.732-1a1.1,1.1,0,0,1-.538-1.112,13.082,13.082,0,0,0,0-3.8,1.1,1.1,0,0,1,.537-1.112l1.732-1a1.606,1.606,0,0,0,.589-2.195L31.288,18.9a1.606,1.606,0,0,0-2.194-.588l-1.737,1a1.1,1.1,0,0,1-1.234-.092,12.925,12.925,0,0,0-3.29-1.9,1.1,1.1,0,0,1-.695-1.022v-2a1.608,1.608,0,0,0-1.606-1.606h-4.9a1.608,1.608,0,0,0-1.606,1.606v2a1.1,1.1,0,0,1-.695,1.022,12.973,12.973,0,0,0-3.29,1.9,1.1,1.1,0,0,1-1.234.091l-1.734-1a1.605,1.605,0,0,0-2.193.587L2.423,23.142a1.61,1.61,0,0,0,.589,2.194l1.734,1a1.1,1.1,0,0,1,.537,1.116,12.888,12.888,0,0,0,0,3.8,1.1,1.1,0,0,1-.538,1.116l-1.734,1a1.61,1.61,0,0,0-.587,2.2l2.453,4.244a1.605,1.605,0,0,0,2.194.589l1.734-1a1.1,1.1,0,0,1,.55-.147Zm8.728-1.659a8.234,8.234,0,1,1,8.233-8.236A8.245,8.245,0,0,1,18.082,37.587Zm0-14.27a6.036,6.036,0,1,0,6.034,6.034A6.042,6.042,0,0,0,18.082,23.317Z" transform="translate(-0.011 -10.488)"/>
              </g>
            </g>
            <g id="Grupo_112554" data-name="Grupo 112554" transform="translate(38.914)">
              <g id="Grupo_112553" data-name="Grupo 112553">
                <path id="Trazado_160933" data-name="Trazado 160933" d="M285.969,48.214h-4.9a3.809,3.809,0,0,1-3.8-3.8V43.135a15.165,15.165,0,0,1-2.55-1.474l-1.1.638a3.8,3.8,0,0,1-5.2-1.394l-2.453-4.244a3.813,3.813,0,0,1,1.393-5.2l1.1-.636c-.048-.488-.072-.982-.072-1.475s.024-.986.072-1.474l-1.1-.637a3.812,3.812,0,0,1-1.394-5.2l2.454-4.247a3.8,3.8,0,0,1,5.2-1.393l1.1.638a15.165,15.165,0,0,1,2.55-1.474V14.292a3.809,3.809,0,0,1,3.8-3.8h4.9a3.809,3.809,0,0,1,3.8,3.8v1.274a15.112,15.112,0,0,1,2.551,1.474l1.106-.638a3.81,3.81,0,0,1,5.2,1.393l2.451,4.245a3.8,3.8,0,0,1-1.393,5.2l-1.1.638c.047.489.071.982.071,1.473s-.024.984-.071,1.474l1.1.636h0a3.8,3.8,0,0,1,1.393,5.2L298.628,40.9a3.81,3.81,0,0,1-5.2,1.393l-1.105-.638a15.113,15.113,0,0,1-2.551,1.474v1.274A3.809,3.809,0,0,1,285.969,48.214ZM274.79,39.245a1.1,1.1,0,0,1,.684.238,12.974,12.974,0,0,0,3.29,1.9,1.1,1.1,0,0,1,.695,1.022v2a1.608,1.608,0,0,0,1.606,1.606h4.9a1.608,1.608,0,0,0,1.606-1.606v-2a1.1,1.1,0,0,1,.695-1.022,12.928,12.928,0,0,0,3.29-1.9,1.1,1.1,0,0,1,1.234-.092l1.736,1a1.608,1.608,0,0,0,2.195-.588l2.451-4.245a1.608,1.608,0,0,0-.588-2.194l-1.732-1a1.1,1.1,0,0,1-.538-1.112,13.083,13.083,0,0,0,0-3.8,1.1,1.1,0,0,1,.537-1.112l1.732-1a1.606,1.606,0,0,0,.589-2.195L296.724,18.9a1.608,1.608,0,0,0-2.194-.588l-1.736,1a1.1,1.1,0,0,1-1.234-.092,12.928,12.928,0,0,0-3.29-1.9,1.1,1.1,0,0,1-.695-1.022v-2a1.608,1.608,0,0,0-1.606-1.606h-4.9a1.608,1.608,0,0,0-1.606,1.606v2a1.1,1.1,0,0,1-.695,1.022,12.977,12.977,0,0,0-3.29,1.9,1.1,1.1,0,0,1-1.233.091l-1.734-1a1.606,1.606,0,0,0-2.193.587l-2.454,4.247a1.61,1.61,0,0,0,.589,2.194l1.734,1a1.1,1.1,0,0,1,.537,1.116,12.89,12.89,0,0,0,0,3.8,1.1,1.1,0,0,1-.538,1.116l-1.734,1a1.61,1.61,0,0,0-.587,2.2l2.452,4.244a1.605,1.605,0,0,0,2.194.589l1.734-1A1.1,1.1,0,0,1,274.79,39.245Zm8.729-1.658a8.235,8.235,0,1,1,3.793-15.546,1.1,1.1,0,1,1-1.015,1.951,5.962,5.962,0,0,0-2.778-.676,6.031,6.031,0,1,0,5.628,3.855,1.1,1.1,0,1,1,2.05-.8,8.239,8.239,0,0,1-7.678,11.213Z" transform="translate(-265.446 -10.487)"/>
              </g>
            </g>
          </g>
          <g id="Grupo_112556" data-name="Grupo 112556" transform="translate(57.012 36.138)">
            <path id="Trazado_160934" data-name="Trazado 160934" d="M400.431,277.526q-.115,0-.231-.008l-8.359-.589a3.169,3.169,0,0,1-2.4-4.934l4.688-6.945a3.18,3.18,0,0,1,4.5-.787,10.9,10.9,0,0,0,.541-3.391,3.884,3.884,0,1,1,7.768,0,18.574,18.574,0,0,1-3.966,11.479l.3.617a3.169,3.169,0,0,1-2.84,4.557Zm-3.679-11.673a.946.946,0,0,0-.8.427l-4.688,6.945a.97.97,0,0,0,.736,1.51l8.359.589a.97.97,0,0,0,.94-1.392l-.609-1.251a1.1,1.1,0,0,1,.152-1.2,16.145,16.145,0,0,0,3.9-10.614,1.685,1.685,0,1,0-3.37,0,13.039,13.039,0,0,1-1.517,6.111,1.1,1.1,0,0,1-1.959-.035l-.267-.549a.953.953,0,0,0-.8-.543Z" transform="translate(-388.891 -256.988)"/>
          </g>
          <g id="Grupo_112557" data-name="Grupo 112557" transform="translate(0 36.138)">
            <path id="Trazado_160935" data-name="Trazado 160935" d="M6.505,277.524a3.169,3.169,0,0,1-2.841-4.557l.3-.617a18.283,18.283,0,0,1-1.275-1.837,1.1,1.1,0,1,1,1.881-1.14A16.156,16.156,0,0,0,6.1,271.485a1.1,1.1,0,0,1,.152,1.2l-.61,1.251a.97.97,0,0,0,.94,1.391l8.359-.589a.969.969,0,0,0,.736-1.509l-4.688-6.946a.97.97,0,0,0-1.676.119l-.269.55a1.1,1.1,0,0,1-1.958.034,13.034,13.034,0,0,1-1.516-6.11,1.685,1.685,0,1,0-3.37,0,16.45,16.45,0,0,0,.511,4.087,1.1,1.1,0,1,1-2.13.546A18.651,18.651,0,0,1,0,260.871a3.884,3.884,0,1,1,7.768,0,10.912,10.912,0,0,0,.54,3.39,3.181,3.181,0,0,1,4.5.786l4.688,6.946a3.168,3.168,0,0,1-2.4,4.933l-8.359.589q-.116.008-.23.008Z" transform="translate(0 -256.986)"/>
          </g>
          <path id="Trazado_160936" data-name="Trazado 160936" d="M199.8,330.729a3.915,3.915,0,0,1-3.123-1.566l-5.74-7.691a3.9,3.9,0,0,1,6.247-4.662l2.085,2.793,3.518-6.529a3.9,3.9,0,0,1,6.862,3.7l-6.417,11.909a3.88,3.88,0,0,1-3.145,2.038C199.987,330.726,199.89,330.729,199.8,330.729Zm-5.743-13.287a1.7,1.7,0,0,0-1.358,2.714l5.74,7.691a1.7,1.7,0,0,0,2.856-.21l6.417-11.909a1.7,1.7,0,1,0-2.99-1.611l-4.336,8.047a1.1,1.1,0,0,1-1.849.136l-3.116-4.175a1.688,1.688,0,0,0-1.117-.665A1.74,1.74,0,0,0,194.052,317.442Z" transform="translate(-162.28 -266.966)"/>
        </g>
      </g>
    </g>
  </g>
</svg>
