<svg xmlns="http://www.w3.org/2000/svg" width="109" height="109" viewBox="0 0 109 109">
  <g id="Grupo_112769" data-name="Grupo 112769" transform="translate(-491 -3830)">
    <g id="Elipse_5379" data-name="Elipse 5379" transform="translate(491 3830)" fill="#fff" stroke="#3d46c2" stroke-width="4">
      <circle cx="54.5" cy="54.5" r="54.5" stroke="none"/>
      <circle cx="54.5" cy="54.5" r="52.5" fill="none"/>
    </g>
    <g id="_020-estrategia" data-name="020-estrategia" transform="translate(514.24 3847.571)">
      <g id="Grupo_112572" data-name="Grupo 112572" transform="translate(0 0)">
        <g id="Grupo_112569" data-name="Grupo 112569" transform="translate(1.085 1.079)">
          <g id="Grupo_112568" data-name="Grupo 112568">
            <g id="Grupo_112567" data-name="Grupo 112567">
              <g id="Grupo_112564" data-name="Grupo 112564">
                <g id="Grupo_112563" data-name="Grupo 112563" transform="translate(8.678)">
                  <g id="Grupo_112562" data-name="Grupo 112562">
                    <path id="Trazado_160937" data-name="Trazado 160937" d="M123.981,108.138v-4.991H104.959v4.991a39.381,39.381,0,0,1-4.607,18.483,39.381,39.381,0,0,0-4.607,18.484V159.37H133.2V145.105a39.381,39.381,0,0,0-4.607-18.483A39.38,39.38,0,0,1,123.981,108.138Z" transform="translate(-95.745 -89.347)" fill="#4752e3"/>
                    <path id="Trazado_160938" data-name="Trazado 160938" d="M240.139,126.622a39.379,39.379,0,0,1-4.607-18.483v-4.991H226.1v4.991a39.38,39.38,0,0,0,4.607,18.483,39.381,39.381,0,0,1,4.607,18.483v14.265h9.431V145.106A39.379,39.379,0,0,0,240.139,126.622Z" transform="translate(-207.297 -89.347)" fill="#838cfc"/>
                    <g id="Grupo_112560" data-name="Grupo 112560" transform="translate(2.393)">
                      <path id="Trazado_160939" data-name="Trazado 160939" d="M138.466,8.371v4.886a1.212,1.212,0,0,1-1.212,1.212h-4.109a1.212,1.212,0,0,1-1.212-1.212V8.371a.892.892,0,0,0-.892-.892h-4.749a.892.892,0,0,0-.892.892v4.886a1.212,1.212,0,0,1-1.212,1.212h-4.109a1.212,1.212,0,0,1-1.212-1.212V8.371a.892.892,0,0,0-.892-.892h-4.749a.892.892,0,0,0-.892.892V24.334H145V8.371a.892.892,0,0,0-.892-.892h-4.749a.892.892,0,0,0-.891.892Z" transform="translate(-112.336 -7.479)" fill="#4752e3"/>
                    </g>
                    <g id="Grupo_112561" data-name="Grupo 112561" transform="translate(25.713 0)">
                      <path id="Trazado_160940" data-name="Trazado 160940" d="M282.443,7.48h-4.749a.892.892,0,0,0-.892.892v4.886a1.212,1.212,0,0,1-1.212,1.212h-1.6v9.865h9.344V8.372A.892.892,0,0,0,282.443,7.48Z" transform="translate(-273.991 -7.48)" fill="#838cfc"/>
                    </g>
                  </g>
                </g>
                <path id="Trazado_160941" data-name="Trazado 160941" d="M110.957,392.568H71.636a2.971,2.971,0,1,0,0,5.941h39.321a2.971,2.971,0,1,0,0-5.941Z" transform="translate(-63.893 -337.018)" fill="#838cfc"/>
                <path id="Trazado_160942" data-name="Trazado 160942" d="M81.912,433.754H44.066a8.48,8.48,0,0,0-8.48,8.48,1.722,1.722,0,0,0,1.723,1.723H88.67a1.722,1.722,0,0,0,1.723-1.723A8.48,8.48,0,0,0,81.912,433.754Z" transform="translate(-35.586 -372.262)" fill="#838cfc"/>
                <path id="Trazado_160943" data-name="Trazado 160943" d="M300.472,433.754h-9.484a8.48,8.48,0,0,1,8.48,8.48,1.722,1.722,0,0,1-1.723,1.722h9.484a1.722,1.722,0,0,0,1.723-1.722A8.48,8.48,0,0,0,300.472,433.754Z" transform="translate(-254.145 -372.262)" fill="#838cfc"/>
              </g>
              <g id="Grupo_112566" data-name="Grupo 112566" transform="translate(27.404 35.501)">
                <g id="Grupo_112565" data-name="Grupo 112565">
                  <path id="Trazado_160944" data-name="Trazado 160944" d="M259.056,267.987h-.034a1.165,1.165,0,0,1-1.085-.827,14.88,14.88,0,0,0-.991-2.388,1.166,1.166,0,0,1,.182-1.354l.026-.026a2.691,2.691,0,0,0,0-3.806l-1.412-1.412a2.691,2.691,0,0,0-3.806,0l-.026.026a1.166,1.166,0,0,1-1.354.182,14.889,14.889,0,0,0-2.388-.991,1.165,1.165,0,0,1-.827-1.085c0-.011,0-.023,0-.034a2.691,2.691,0,0,0-2.691-2.691h-2a2.691,2.691,0,0,0-2.691,2.691c0,.011,0,.023,0,.034a1.165,1.165,0,0,1-.827,1.085,14.891,14.891,0,0,0-2.388.991,1.166,1.166,0,0,1-1.354-.182l-.026-.026a2.691,2.691,0,0,0-3.806,0l-1.412,1.412a2.691,2.691,0,0,0,0,3.806l.026.026a1.166,1.166,0,0,1,.182,1.354,14.882,14.882,0,0,0-.991,2.388,1.165,1.165,0,0,1-1.085.827h-.033a2.637,2.637,0,0,0-2.693,2.617v2.145a2.636,2.636,0,0,0,2.693,2.617h.033a1.165,1.165,0,0,1,1.085.827,14.886,14.886,0,0,0,.991,2.388,1.166,1.166,0,0,1-.182,1.354l-.026.026a2.691,2.691,0,0,0,0,3.806l1.412,1.412a2.691,2.691,0,0,0,3.806,0l.026-.026a1.166,1.166,0,0,1,1.354-.182,14.886,14.886,0,0,0,2.388.991,1.165,1.165,0,0,1,.827,1.085c0,.011,0,.023,0,.034a2.691,2.691,0,0,0,2.691,2.691h2a2.691,2.691,0,0,0,2.691-2.691c0-.011,0-.023,0-.034a1.165,1.165,0,0,1,.827-1.085,14.884,14.884,0,0,0,2.388-.991,1.166,1.166,0,0,1,1.354.182l.026.026a2.691,2.691,0,0,0,3.806,0l1.412-1.412a2.691,2.691,0,0,0,0-3.806l-.026-.026a1.166,1.166,0,0,1-.182-1.354,14.882,14.882,0,0,0,.991-2.388,1.165,1.165,0,0,1,1.085-.827h.034a2.691,2.691,0,0,0,2.691-2.691v-2A2.691,2.691,0,0,0,259.056,267.987Z" transform="translate(-225.555 -253.58)" fill="#f85316"/>
                </g>
                <ellipse id="Elipse_5411" data-name="Elipse 5411" cx="8.803" cy="8.803" rx="8.803" ry="8.803" transform="translate(9.293 9.294)" fill="#4752e3"/>
              </g>
            </g>
            <path id="Trazado_160945" data-name="Trazado 160945" d="M93.59,105.553a2.4,2.4,0,0,0,2.4,2.4h33.262a2.4,2.4,0,0,0,0-4.81H95.995a2.4,2.4,0,0,0-2.4,2.4Z" transform="translate(-85.223 -89.347)" fill="#838cfc"/>
            <path id="Trazado_160946" data-name="Trazado 160946" d="M285.413,103.148h-9.344a2.4,2.4,0,1,1,0,4.81h9.344a2.4,2.4,0,0,0,0-4.81Z" transform="translate(-241.379 -89.347)" fill="#bcd6f9"/>
          </g>
          <path id="Trazado_160947" data-name="Trazado 160947" d="M347.754,267.987h-.034a1.165,1.165,0,0,1-1.085-.827,14.88,14.88,0,0,0-.991-2.388,1.166,1.166,0,0,1,.182-1.354l.026-.026a2.691,2.691,0,0,0,0-3.806l-1.412-1.412a2.691,2.691,0,0,0-3.806,0l-.026.026a1.166,1.166,0,0,1-1.354.182,14.891,14.891,0,0,0-2.388-.991,1.165,1.165,0,0,1-.827-1.085c0-.011,0-.023,0-.034a2.691,2.691,0,0,0-2.691-2.691h-2a2.684,2.684,0,0,0-2.146,1.072,18.1,18.1,0,0,1,0,34.048,2.684,2.684,0,0,0,2.146,1.072h2a2.691,2.691,0,0,0,2.691-2.691c0-.011,0-.023,0-.034a1.165,1.165,0,0,1,.827-1.085,14.891,14.891,0,0,0,2.388-.991,1.166,1.166,0,0,1,1.354.182l.026.026a2.691,2.691,0,0,0,3.806,0l1.412-1.412a2.691,2.691,0,0,0,0-3.806l-.026-.026a1.166,1.166,0,0,1-.182-1.354,14.883,14.883,0,0,0,.991-2.388,1.165,1.165,0,0,1,1.085-.827h.034a2.691,2.691,0,0,0,2.691-2.691v-2A2.691,2.691,0,0,0,347.754,267.987Z" transform="translate(-286.849 -218.079)" fill="#ff642b"/>
        </g>
        <g id="Grupo_112571" data-name="Grupo 112571">
          <g id="Grupo_112570" data-name="Grupo 112570">
            <path id="Trazado_160948" data-name="Trazado 160948" d="M90.054,49.908h-.021a.1.1,0,0,1-.067-.071A16.025,16.025,0,0,0,88.9,47.275c-.045-.087.006-.1.013-.115a3.771,3.771,0,0,0,0-5.336L87.5,40.412a3.771,3.771,0,0,0-5.339,0l-.013.013a.1.1,0,0,1-.1,0,16.006,16.006,0,0,0-2.561-1.064c-.042-.013-.071-.045-.071-.067v-.02A3.777,3.777,0,0,0,75.647,35.5h-2a3.762,3.762,0,0,0-2.659,1.1,38.467,38.467,0,0,1-3.835-15.826h6.027a3.486,3.486,0,0,0,.782-6.884V10.767a1.082,1.082,0,1,0-2.164,0V13.8H41.3V2.164h4.369v4.7a2.3,2.3,0,0,0,2.294,2.294h4.109A2.3,2.3,0,0,0,54.368,6.86v-4.7h4.369v4.7A2.3,2.3,0,0,0,61.03,9.153h4.109A2.3,2.3,0,0,0,67.433,6.86v-4.7H71.8V5.709a1.082,1.082,0,0,0,2.164,0V1.974A1.976,1.976,0,0,0,71.991,0H67.243a1.976,1.976,0,0,0-1.974,1.974V6.86a.13.13,0,0,1-.13.13H61.03a.13.13,0,0,1-.13-.13V1.974A1.976,1.976,0,0,0,58.926,0H54.178A1.976,1.976,0,0,0,52.2,1.974V6.86a.13.13,0,0,1-.13.13H47.965a.13.13,0,0,1-.13-.13V1.974A1.976,1.976,0,0,0,45.861,0H41.113a1.976,1.976,0,0,0-1.974,1.974V13.89a3.486,3.486,0,0,0,.782,6.884h6.027a38.447,38.447,0,0,1-4.469,17.075,40.635,40.635,0,0,0-4.711,17.7,4.048,4.048,0,0,0-2.921,6.72,9.575,9.575,0,0,0-5.78,8.78,2.807,2.807,0,0,0,2.8,2.8H82.233a2.807,2.807,0,0,0,2.8-2.8,9.549,9.549,0,0,0-.053-1.005,3.746,3.746,0,0,0,2.52-1.1l1.412-1.412a3.748,3.748,0,0,0,1.105-2.668A3.942,3.942,0,0,0,88.9,62.182a.1.1,0,0,1,0-.1c.948-1.819,1-2.631,1.131-2.633h.021a3.777,3.777,0,0,0,3.773-3.773v-2a3.777,3.777,0,0,0-3.773-3.773ZM39.921,18.61a1.323,1.323,0,1,1,0-2.646H73.183a1.323,1.323,0,1,1,0,2.646Zm-3.03,39.1h4.717a1.082,1.082,0,0,0,0-2.164H38.932a38.458,38.458,0,0,1,4.457-16.686,40.619,40.619,0,0,0,4.723-18.091h16.88a40.617,40.617,0,0,0,4.722,18.091c.056.105.11.211.165.317,0,.1.014.152-.074.18a16.012,16.012,0,0,0-2.561,1.063.1.1,0,0,1-.1,0,3.864,3.864,0,0,0-2.685-1.122,3.749,3.749,0,0,0-2.668,1.105l-1.412,1.412a3.779,3.779,0,0,0,0,5.339l.013.013a.1.1,0,0,1,0,.1,15.993,15.993,0,0,0-1.063,2.561.1.1,0,0,1-.067.071h-.02a3.7,3.7,0,0,0-3.774,3.7V55.55H46.691a1.082,1.082,0,1,0,0,2.164h9.338a3.758,3.758,0,0,0,3.215,1.737h.02a.1.1,0,0,1,.066.071,15.977,15.977,0,0,0,.771,1.97H36.891a1.889,1.889,0,1,1,0-3.778Zm-6.02,13.98a.641.641,0,0,1-.641-.641,7.406,7.406,0,0,1,7.4-7.4H59.477a3.777,3.777,0,0,0,.9,3.879l1.412,1.412a3.771,3.771,0,0,0,5.333,0c.014-.007.032-.061.118-.016A16,16,0,0,0,69.806,70c.085.027.066.073.071.088a3.751,3.751,0,0,0,.361,1.61Zm51.362,0H79.059a3.86,3.86,0,0,0,.361-1.631A.1.1,0,0,1,79.492,70c3.583-1.133,2.039-1.427,3.187-.623a7.4,7.4,0,0,1,.195,1.68A.641.641,0,0,1,82.233,71.694Zm9.431-16.016a1.611,1.611,0,0,1-1.609,1.61h-.047a2.241,2.241,0,0,0-2.1,1.582,13.851,13.851,0,0,1-.919,2.214,2.244,2.244,0,0,0,.37,2.612l.032.032a1.608,1.608,0,0,1,0,2.276l-1.412,1.412a1.609,1.609,0,0,1-2.273,0l-.039-.039a2.242,2.242,0,0,0-2.609-.366,13.845,13.845,0,0,1-2.214.919,2.241,2.241,0,0,0-1.582,2.1v.047a1.611,1.611,0,0,1-1.608,1.61h-2a1.611,1.611,0,0,1-1.608-1.61v-.047a2.241,2.241,0,0,0-1.582-2.1,13.822,13.822,0,0,1-2.214-.919,2.255,2.255,0,0,0-2.645.4,1.609,1.609,0,0,1-2.276,0L61.911,66a1.611,1.611,0,0,1,0-2.276l.035-.036a2.242,2.242,0,0,0,.367-2.609,13.833,13.833,0,0,1-.919-2.214,2.241,2.241,0,0,0-2.1-1.582h-.047a1.558,1.558,0,0,1-1.611-1.535V53.607a1.559,1.559,0,0,1,1.611-1.535h.046a2.242,2.242,0,0,0,2.1-1.582,13.829,13.829,0,0,1,.919-2.214,2.241,2.241,0,0,0-.364-2.606l-.038-.039a1.611,1.611,0,0,1,0-2.276l1.412-1.412a1.61,1.61,0,0,1,2.279,0l.033.032a2.242,2.242,0,0,0,2.609.367,13.832,13.832,0,0,1,2.214-.919,2.241,2.241,0,0,0,1.582-2.1v-.048a1.613,1.613,0,0,1,1.61-1.61h2a1.611,1.611,0,0,1,1.609,1.61v.047a2.241,2.241,0,0,0,1.582,2.1,13.824,13.824,0,0,1,2.214.919,2.255,2.255,0,0,0,2.644-.4,1.609,1.609,0,0,1,2.276,0l1.412,1.412a1.608,1.608,0,0,1,0,2.279l-.032.033a2.242,2.242,0,0,0-.366,2.608,13.857,13.857,0,0,1,.919,2.214,2.241,2.241,0,0,0,2.1,1.582h.047a1.611,1.611,0,0,1,1.609,1.61v2Z" transform="translate(-28.067 0)"/>
            <path id="Trazado_160949" data-name="Trazado 160949" d="M292.346,310.528a9.885,9.885,0,1,0,9.885,9.885A9.9,9.9,0,0,0,292.346,310.528Zm0,17.605a7.721,7.721,0,1,1,7.721-7.721A7.73,7.73,0,0,1,292.346,328.133Z" transform="translate(-245.764 -265.733)"/>
          </g>
        </g>
      </g>
    </g>
  </g>
</svg>
