<svg xmlns="http://www.w3.org/2000/svg" width="109" height="109" viewBox="0 0 109 109">
  <g id="Grupo_112769" data-name="Grupo 112769" transform="translate(-491 -3519)">
    <g id="Elipse_5377" data-name="Elipse 5377" transform="translate(491 3519)" fill="#fff" stroke="#3d46c2" stroke-width="4">
      <circle cx="54.5" cy="54.5" r="54.5" stroke="none"/>
      <circle cx="54.5" cy="54.5" r="52.5" fill="none"/>
    </g>
    <g id="_017-lder" data-name="017-lder" transform="translate(504.143 3539.484)">
      <g id="Grupo_112532" data-name="Grupo 112532" transform="translate(0 0)">
        <path id="Trazado_160858" data-name="Trazado 160858" d="M36.733,247.79l-8.863-3.032v-7.275h-8.73v7.275l-8.863,3.032A4.106,4.106,0,0,0,7.5,251.675v6.559H39.51v-6.559A4.106,4.106,0,0,0,36.733,247.79Z" transform="translate(-6.289 -206.466)" fill="#ff642b"/>
        <path id="Trazado_160859" data-name="Trazado 160859" d="M23.985,237.48v7.275l-8.863,3.032a4.106,4.106,0,0,0-2.777,3.885v6.558H7.5v-6.558a4.106,4.106,0,0,1,2.777-3.885l8.863-3.032V237.48Z" transform="translate(-6.289 -206.462)" fill="#f85316"/>
        <path id="Trazado_160860" data-name="Trazado 160860" d="M79.561,244.758l4.365,5.949,4.365-5.949v-7.275h-8.73Z" transform="translate(-66.71 -206.465)" fill="#ffb09e"/>
        <path id="Trazado_160861" data-name="Trazado 160861" d="M34.17,177.772H31.233a2.08,2.08,0,0,0-2.08,2.08v1.559a2.08,2.08,0,0,0,2.08,2.08H34.17Z" transform="translate(-24.444 -156.399)" fill="#ffb09e"/>
        <path id="Trazado_160862" data-name="Trazado 160862" d="M335.644,247.79l-8.863-3.032v-7.275h-8.73v7.275l-8.863,3.032a4.106,4.106,0,0,0-2.777,3.885v6.559h32.009v-6.559A4.106,4.106,0,0,0,335.644,247.79Z" transform="translate(-256.919 -206.466)" fill="#b1e874"/>
        <path id="Trazado_160863" data-name="Trazado 160863" d="M322.9,237.48v7.275l-8.863,3.032a4.106,4.106,0,0,0-2.777,3.885v6.558H306.41v-6.558a4.106,4.106,0,0,1,2.777-3.885l8.863-3.032V237.48Z" transform="translate(-256.917 -206.462)" fill="#75b62f"/>
        <path id="Trazado_160864" data-name="Trazado 160864" d="M378.472,250.855l4.365,5.948,4.365-5.948v-6.1h-8.73Z" transform="translate(-317.339 -212.562)" fill="#ffb09e"/>
        <path id="Trazado_160865" data-name="Trazado 160865" d="M451.863,177.772H454.8a2.08,2.08,0,0,1,2.08,2.08v1.559a2.08,2.08,0,0,1-2.08,2.08h-2.937Z" transform="translate(-378.876 -156.399)" fill="#ffb09e"/>
        <path id="Trazado_160866" data-name="Trazado 160866" d="M60.215,155.3v9.089a6.918,6.918,0,0,0,6.918,6.918h1.143a6.918,6.918,0,0,0,6.918-6.918V155.3a2.119,2.119,0,0,0-2.119-2.119H62.334a2.119,2.119,0,0,0-2.119,2.119Z" transform="translate(-50.489 -135.777)" fill="#ffcebf"/>
        <path id="Trazado_160867" data-name="Trazado 160867" d="M69.315,171.227a7.15,7.15,0,0,1-1.043.078H67.128a6.919,6.919,0,0,1-6.918-6.918V155.3a2.119,2.119,0,0,1,2.119-2.118H65.56a2.119,2.119,0,0,0-2.119,2.118v9.089A6.922,6.922,0,0,0,69.315,171.227Z" transform="translate(-50.485 -135.779)" fill="#ffb09e"/>
        <path id="Trazado_160868" data-name="Trazado 160868" d="M68.8,125.683h-2a4.977,4.977,0,0,1-4.753-3.5l-.459-1.476-1.632,2.626a4.977,4.977,0,0,1-4.227,2.351H50.77v-4.062a5.972,5.972,0,0,1,5.972-5.972h6.087a5.972,5.972,0,0,1,5.972,5.972v4.062Z" transform="translate(-42.569 -104.31)" fill="#68748f"/>
        <path id="Trazado_160869" data-name="Trazado 160869" d="M56.742,115.65h3.23A5.971,5.971,0,0,0,54,121.622v4.062H50.77v-4.062A5.971,5.971,0,0,1,56.742,115.65Z" transform="translate(-42.569 -104.311)" fill="#5d6980"/>
        <path id="Trazado_160870" data-name="Trazado 160870" d="M142.744,267.388l-14.383-4.92V250.663H114.195v11.806l-14.383,4.92a6.663,6.663,0,0,0-4.506,6.3v10.643H147.25V273.692A6.662,6.662,0,0,0,142.744,267.388Z" transform="translate(-79.912 -217.516)" fill="#838cfc"/>
        <path id="Trazado_160871" data-name="Trazado 160871" d="M119.044,250.66v11.806l-14.384,4.92a6.663,6.663,0,0,0-4.5,6.3v10.643H95.31V273.69a6.663,6.663,0,0,1,4.5-6.3l14.384-4.92V250.66Z" transform="translate(-79.915 -217.514)" fill="#4752e3"/>
        <path id="Trazado_160872" data-name="Trazado 160872" d="M226.4,284.61v6.332l-7.088,5.337-7.088-5.337V284.61Z" transform="translate(-177.941 -245.98)" fill="#ffb09e"/>
        <path id="Trazado_160873" data-name="Trazado 160873" d="M220.923,295.062l-1.615,1.216-7.088-5.337V284.61h3.23v6.332Z" transform="translate(-177.941 -245.98)" fill="#f89580"/>
        <path id="Trazado_160874" data-name="Trazado 160874" d="M359.126,155.3v9.089a6.918,6.918,0,0,0,6.918,6.918h1.143a6.918,6.918,0,0,0,6.918-6.918V155.3a2.118,2.118,0,0,0-2.119-2.119H361.245a2.119,2.119,0,0,0-2.119,2.119Z" transform="translate(-301.118 -135.777)" fill="#ffcebf"/>
        <path id="Trazado_160875" data-name="Trazado 160875" d="M368.234,171.227a7.149,7.149,0,0,1-1.043.078h-1.144a6.918,6.918,0,0,1-6.917-6.918V155.3a2.118,2.118,0,0,1,2.118-2.118h3.23a2.118,2.118,0,0,0-2.118,2.118v9.089A6.921,6.921,0,0,0,368.234,171.227Z" transform="translate(-301.121 -135.779)" fill="#ffb09e"/>
        <path id="Trazado_160876" data-name="Trazado 160876" d="M367.711,125.683h-2a4.977,4.977,0,0,1-4.753-3.5l-.459-1.476-1.632,2.626a4.977,4.977,0,0,1-4.227,2.351H349.68v-4.062a5.972,5.972,0,0,1,5.972-5.972h6.087a5.972,5.972,0,0,1,5.972,5.972v4.062Z" transform="translate(-293.198 -104.31)" fill="#68748f"/>
        <path id="Trazado_160877" data-name="Trazado 160877" d="M355.652,115.65H360.5a5.971,5.971,0,0,0-5.972,5.972v4.062H349.68v-4.062A5.971,5.971,0,0,1,355.652,115.65Z" transform="translate(-293.198 -104.311)" fill="#5d6980"/>
        <path id="Trazado_160878" data-name="Trazado 160878" d="M226.4,284.61v3.681a14.341,14.341,0,0,1-6.161,1.381h-1.854a14.341,14.341,0,0,1-6.161-1.381V284.61Z" transform="translate(-177.941 -245.98)" fill="#f89580"/>
        <path id="Trazado_160879" data-name="Trazado 160879" d="M180.852,117.288v14.749a11.227,11.227,0,0,0,11.227,11.227h1.856a11.227,11.227,0,0,0,11.227-11.227V117.288a3.438,3.438,0,0,0-3.438-3.438H184.29a3.438,3.438,0,0,0-3.438,3.438Z" transform="translate(-151.64 -102.802)" fill="#ffcebf"/>
        <path id="Trazado_160880" data-name="Trazado 160880" d="M194.62,143.243c-.228.015-.457.021-.688.021h-1.854a11.227,11.227,0,0,1-11.228-11.226v-14.75a3.438,3.438,0,0,1,3.439-3.437h3.231a3.438,3.438,0,0,0-3.439,3.437v14.75A11.227,11.227,0,0,0,194.62,143.243Z" transform="translate(-151.638 -102.802)" fill="#ffb09e"/>
        <path id="Trazado_160881" data-name="Trazado 160881" d="M331.348,153.762h2.433a3.375,3.375,0,0,1,3.375,3.375v2.529a3.375,3.375,0,0,1-3.375,3.375h-2.433Z" transform="translate(-277.827 -136.267)" fill="#ffb09e"/>
        <path id="Trazado_160882" data-name="Trazado 160882" d="M230.055,356.851l-5.017,3.065,2.509,4.461h5.017l2.509-4.461Z" transform="translate(-188.689 -306.552)" fill="#68748f"/>
        <path id="Trazado_160883" data-name="Trazado 160883" d="M228.271,359.914l2.509,4.461h-3.231l-2.508-4.461,5.017-3.064,1.615.987Z" transform="translate(-188.69 -306.551)" fill="#5d6980"/>
        <path id="Trazado_160884" data-name="Trazado 160884" d="M227.547,403.445l-2.509,8.994h10.035l-2.509-8.994Z" transform="translate(-188.689 -345.62)" fill="#68748f"/>
        <path id="Trazado_160885" data-name="Trazado 160885" d="M230.779,403.44l-2.509,9h-3.23l2.508-9Z" transform="translate(-188.69 -345.616)" fill="#5d6980"/>
        <path id="Trazado_160886" data-name="Trazado 160886" d="M150.7,153.762h-2.433a3.375,3.375,0,0,0-3.375,3.375v2.529a3.375,3.375,0,0,0,3.375,3.375H150.7Z" transform="translate(-121.49 -136.267)" fill="#ffb09e"/>
        <path id="Trazado_160887" data-name="Trazado 160887" d="M196.923,323.807l7.088,5.337-10.035,6.131V324.807Z" transform="translate(-162.644 -278.845)" fill="#838cfc"/>
        <path id="Trazado_160888" data-name="Trazado 160888" d="M263.188,323.807l-7.088,5.337,10.035,6.131V324.807Z" transform="translate(-214.733 -278.845)" fill="#838cfc"/>
        <path id="Trazado_160889" data-name="Trazado 160889" d="M194.785,69.232h-3.243a8.076,8.076,0,0,1-7.713-5.681l-.744-2.4-2.648,4.262a8.076,8.076,0,0,1-6.86,3.814h-8.053V62.64a9.692,9.692,0,0,1,9.692-9.692h9.878a9.692,9.692,0,0,1,9.692,9.692Z" transform="translate(-138.788 -51.737)" fill="#68748f"/>
        <path id="Trazado_160890" data-name="Trazado 160890" d="M175.212,52.95h4.846a9.692,9.692,0,0,0-9.692,9.692v6.592H165.52V62.642A9.692,9.692,0,0,1,175.212,52.95Z" transform="translate(-138.784 -51.739)" fill="#5d6980"/>
        <g id="Grupo_112529" data-name="Grupo 112529" transform="translate(13.678 26.602)">
          <path id="Trazado_160891" data-name="Trazado 160891" d="M88.617,214.492c-1.916.122-3.936-.888-3.936-3.14a1.211,1.211,0,1,1,2.423,0c0,1.008,2.23,1.008,2.23,0a1.211,1.211,0,1,1,2.423,0A3.143,3.143,0,0,1,88.617,214.492Z" transform="translate(-84.681 -210.141)"/>
        </g>
        <g id="Grupo_112530" data-name="Grupo 112530" transform="translate(61.96 26.602)">
          <path id="Trazado_160892" data-name="Trazado 160892" d="M387.528,214.492c-1.916.122-3.936-.888-3.936-3.14a1.211,1.211,0,1,1,2.423,0c0,1.008,2.23,1.008,2.23,0a1.211,1.211,0,1,1,2.423,0A3.144,3.144,0,0,1,387.528,214.492Z" transform="translate(-383.592 -210.141)"/>
        </g>
        <g id="Grupo_112531" data-name="Grupo 112531">
          <path id="Trazado_160893" data-name="Trazado 160893" d="M79.118,85.629l-8.044-2.751V80.457a8.279,8.279,0,0,0,3.124-6.7h1.726a3.3,3.3,0,0,0,3.291-3.291V68.9c0-2.028-1.756-3.11-3.491-3.291V62.762a7.191,7.191,0,0,0-7.183-7.183H62.454a7.163,7.163,0,0,0-5.245,2.282V56.354a10.943,10.943,0,0,0-10.074-10.87,1.211,1.211,0,0,0-.182,2.416,8.509,8.509,0,0,1,7.833,8.454v5.38H52.754c-4.029,0-6.545-3.6-7.3-7.225-.291-1.4-1.664-1.277-2.186-.279-1.758,3.357-4.18,7.5-8.478,7.5H27.947v-5.38a8.49,8.49,0,0,1,8.48-8.48h5.338a1.211,1.211,0,0,0,0-2.423H36.427a10.915,10.915,0,0,0-10.9,10.9v1.528a7.166,7.166,0,0,0-5.266-2.3H14.172a7.191,7.191,0,0,0-7.183,7.183v2.851C5.254,65.794,3.5,66.876,3.5,68.9v1.559a3.3,3.3,0,0,0,3.291,3.291H8.514a8.279,8.279,0,0,0,3.126,6.7v2.419L3.6,85.629A5.318,5.318,0,0,0,0,90.66v6.558A1.211,1.211,0,0,0,1.211,98.43H14.863a10.163,10.163,0,0,0-.68,4.34,1.211,1.211,0,0,0,2.423,0c-.181-2.627,1.026-5.39,3.686-6.3l9.828-3.362v8.772a1.226,1.226,0,0,0,1.843,1.034l3.945-2.411,1.647,2.93-2.127,7.626H25.017V107.3a1.211,1.211,0,1,0-2.423,0v3.761H16.606v-3.011a1.211,1.211,0,1,0-2.423,0v4.222a1.211,1.211,0,0,0,1.211,1.211H67.338a1.211,1.211,0,0,0,1.211-1.211V101.628a7.861,7.861,0,0,0-.68-3.2h4.651a1.211,1.211,0,0,0,0-2.423H66.188a7.858,7.858,0,0,0-2.963-1.829L50.8,89.927a2.894,2.894,0,0,1,1.861-2.005l8.021-2.744,3.838,5.231a1.212,1.212,0,0,0,1.953,0l3.838-5.231,8.021,2.744a2.9,2.9,0,0,1,1.958,2.739v5.346H77.8a1.211,1.211,0,1,0,0,2.423h3.7a1.211,1.211,0,0,0,1.211-1.211V90.66a5.318,5.318,0,0,0-3.6-5.031ZM74.2,68.035h1.726a.869.869,0,0,1,.869.869v1.559a.869.869,0,0,1-.869.869H74.2Zm-65.685,3.3H6.789a.869.869,0,0,1-.869-.869V68.9a.869.869,0,0,1,.869-.869H8.514ZM62.454,58h6.088a4.765,4.765,0,0,1,4.76,4.76v2.851c-2.578.124-4.32-1.683-4.842-4.125a1.118,1.118,0,0,0-2.186-.28c-1.112,2.4-3.037,4.6-5.79,4.4A4.6,4.6,0,0,0,57.74,62.1,4.767,4.767,0,0,1,62.454,58Zm-7.721,6.156h1.221a2.166,2.166,0,0,1,2.164,2.164v2.529a2.166,2.166,0,0,1-2.164,2.164H54.733Zm-24.309,0h4.366c4.251,0,7.193-2.952,9.138-6.4a9.24,9.24,0,0,0,8.382,6.386V74.687c0,13.31-21.887,13.294-21.887,0ZM44.755,99.24l-1.589,2.825h-3.6L37.978,99.24l3.389-2.07ZM35.49,89.808V86.095a16.172,16.172,0,0,0,11.753,0v3.713l-5.876,4.425Zm8.029,5.837,5.152-3.879,1.518.515V99.72ZM26.78,64.157H28v6.857H26.78a2.166,2.166,0,0,1-2.164-2.164V66.322A2.166,2.166,0,0,1,26.78,64.157Zm-17.368-1.4A4.765,4.765,0,0,1,14.172,58h6.086a4.768,4.768,0,0,1,4.715,4.1,4.607,4.607,0,0,0-2.619,3.008c-1.139-.652-1.8-2.346-2.177-3.625s-1.667-1.551-2.186-.28c-.763,1.869-2.644,4.4-4.829,4.4H9.412Zm1.525,11.3V68.035h2.225a6.754,6.754,0,0,0,5.548-3.392,6.138,6.138,0,0,0,3.482,3.046,5.847,5.847,0,0,0,1.3,4.357v2.012c0,7.588-12.557,7.588-12.557,0Zm9.433,9.287-3.154,4.3-3.154-4.3V81.766a11.39,11.39,0,0,0,6.308,0Zm-.862,10.831a7.857,7.857,0,0,0-2.963,1.829H2.423V90.66A2.9,2.9,0,0,1,4.38,87.922L12.4,85.178l3.838,5.231a1.212,1.212,0,0,0,1.953,0l3.838-5.231,8.02,2.744a2.9,2.9,0,0,1,1.865,2.011Zm11.327-8.548-8.042-2.751v-2.42a8.364,8.364,0,0,0,3.124-7.1A9.835,9.835,0,0,0,28,73.438,12.971,12.971,0,0,0,33.067,84.7v2.413a5.292,5.292,0,0,0-2.233-1.481ZM32.543,99.72V92.281l1.518-.515,5.152,3.879Zm5.4,11.338,1.833-6.571h3.178l1.833,6.571Zm14.668-9.179V93.108l9.828,3.362a5.452,5.452,0,0,1,3.686,5.158v9.431H60.139V107.3a1.211,1.211,0,0,0-2.423,0v3.761H47.3l-2.127-7.626,1.647-2.93,3.945,2.411C51.785,103.508,52.552,103.1,52.613,101.88Zm7.308-19-8.044,2.752a5.3,5.3,0,0,0-2.211,1.458V84.7a13.137,13.137,0,0,0,5.067-11.259,9.926,9.926,0,0,0,2.064-.079,8.363,8.363,0,0,0,3.124,7.1Zm8.73.468-3.154,4.3-3.154-4.3V81.765a11.387,11.387,0,0,0,6.308,0v1.581Zm-2.583-3.581c-3.35.236-6.849-2.028-6.849-5.707V72.067a5.4,5.4,0,0,0,1.321-4.032,7.215,7.215,0,0,0,6.451-3.392,6.148,6.148,0,0,0,4.783,3.345v6.07a5.713,5.713,0,0,1-5.707,5.707Z" transform="translate(0 -45.451)"/>
          <path id="Trazado_160894" data-name="Trazado 160894" d="M217.429,178.752a1.211,1.211,0,0,0,1.211-1.211v-1.59a1.211,1.211,0,1,0-2.423,0v1.59A1.211,1.211,0,0,0,217.429,178.752Z" transform="translate(-181.293 -153.856)"/>
          <path id="Trazado_160895" data-name="Trazado 160895" d="M282.046,178.752a1.211,1.211,0,0,0,1.211-1.211v-1.59a1.211,1.211,0,1,0-2.423,0v1.59A1.211,1.211,0,0,0,282.046,178.752Z" transform="translate(-235.473 -153.856)"/>
          <path id="Trazado_160896" data-name="Trazado 160896" d="M234.041,230.827a4.254,4.254,0,0,0,4.25-4.25,1.211,1.211,0,0,0-2.423,0,1.827,1.827,0,1,1-3.653,0,1.211,1.211,0,0,0-2.423,0A4.254,4.254,0,0,0,234.041,230.827Z" transform="translate(-192.674 -196.305)"/>
        </g>
      </g>
    </g>
  </g>
</svg>
