<svg xmlns="http://www.w3.org/2000/svg" width="400" height="300" viewBox="0 0 400 300">
  <g id="Grupo_112769" data-name="Grupo 112769" transform="translate(-2101 10298)">
    <rect id="Rectángulo_40413" data-name="Rectángulo 40413" width="400" height="300" transform="translate(2101 -10298)" fill="#dce736" opacity="0.3"/>
    <g id="_015-beneficios-1" data-name="015-beneficios-1" transform="translate(2210.5 -10259.451)">
      <path id="Trazado_160830" data-name="Trazado 160830" d="M331.282,41.837,295.756,8.562,260.23,41.837h16.2V152.578h38.66V41.837Z" transform="translate(-184.499 -6.345)" fill="#f85316"/>
      <path id="Trazado_160831" data-name="Trazado 160831" d="M98.937,227.135a53.446,53.446,0,0,1-72.522,2.89q-1.609-1.371-3.127-2.89a53.492,53.492,0,0,1,75.649-75.649q1.52,1.52,2.89,3.127a53.446,53.446,0,0,1-2.89,72.522Z" transform="translate(-5.404 -96.569)" fill="#dce736"/>
      <path id="Trazado_160832" data-name="Trazado 160832" d="M155.811,213.414l-70.6,70.595a53.141,53.141,0,0,1-13.017-8.2L147.611,200.4A53.108,53.108,0,0,1,155.811,213.414Z" transform="translate(-51.188 -142.353)" fill="#f3ff3c"/>
      <path id="Trazado_160833" data-name="Trazado 160833" d="M129.671,214.869a43,43,0,1,1-15.745-33.258A43,43,0,0,1,129.671,214.869Z" transform="translate(-30.962 -122.127)" fill="#dce736"/>
      <path id="Trazado_160834" data-name="Trazado 160834" d="M113.925,181.611,53.411,242.125l-.005,0a43,43,0,0,1,60.519-60.511Z" transform="translate(-30.961 -122.127)" fill="#f3ff3c"/>
      <path id="Trazado_160835" data-name="Trazado 160835" d="M110.552,180.559l-58.2,58.192a42.589,42.589,0,0,1-3.575-9l52.766-52.766A42.583,42.583,0,0,1,110.552,180.559Z" transform="translate(-34.586 -125.752)" fill="#dce736"/>
      <path id="Trazado_160836" data-name="Trazado 160836" d="M327.4,34.817,291.87,1.542a2.218,2.218,0,0,0-3.031,0L253.313,34.817a2.217,2.217,0,0,0,1.516,3.836h13.978v5.976a2.217,2.217,0,1,0,4.434,0V36.435a2.217,2.217,0,0,0-2.217-2.217H260.439L290.355,6.2l29.915,28.019H309.684a2.217,2.217,0,0,0-2.217,2.217v75.892a2.217,2.217,0,1,0,4.435,0V38.652H325.88a2.217,2.217,0,0,0,1.516-3.836Z" transform="translate(-179.097 -0.943)"/>
      <path id="Trazado_160837" data-name="Trazado 160837" d="M349.141,406.543a2.217,2.217,0,0,0-2.217,2.217v23.763H312.7v-1.886a2.217,2.217,0,1,0-4.434,0v4.1a2.217,2.217,0,0,0,2.217,2.217h38.661a2.217,2.217,0,0,0,2.217-2.217V408.76A2.218,2.218,0,0,0,349.141,406.543Z" transform="translate(-218.554 -288.507)"/>
      <path id="Trazado_160838" data-name="Trazado 160838" d="M111.417,183.909A55.772,55.772,0,0,0,55.709,128.2a2.217,2.217,0,1,0,0,4.434,51.215,51.215,0,1,1-10.053.985,2.217,2.217,0,0,0-.865-4.349,55.713,55.713,0,1,0,66.626,54.639Z" transform="translate(0 -91.166)"/>
      <path id="Trazado_160839" data-name="Trazado 160839" d="M49.345,241.492a45.218,45.218,0,1,0,0-63.948A45.077,45.077,0,0,0,49.345,241.492Zm31.974-72.738A40.764,40.764,0,1,1,52.48,180.679,40.656,40.656,0,0,1,81.318,168.753Z" transform="translate(-25.61 -116.775)"/>
      <path id="Trazado_160840" data-name="Trazado 160840" d="M145.327,263.78a2.217,2.217,0,0,0-4.435,0c0,6.315,5.429,11.561,12.49,12.481v2.089a2.217,2.217,0,1,0,4.434,0v-2.089c7.061-.92,12.49-6.167,12.49-12.481s-5.429-11.561-12.49-12.481V234.968c4.6.811,8.055,4.087,8.055,8a2.217,2.217,0,1,0,4.435,0c0-6.315-5.429-11.561-12.49-12.481v-2.09a2.217,2.217,0,1,0-4.434,0v2.09c-7.061.92-12.49,6.167-12.49,12.481s5.429,11.561,12.49,12.482v16.331C148.78,270.965,145.327,267.689,145.327,263.78Zm20.545,0c0,3.909-3.454,7.186-8.055,8V255.783C162.418,256.594,165.871,259.87,165.871,263.78Zm-20.545-20.816c0-3.91,3.453-7.186,8.055-8V250.96C148.78,250.15,145.327,246.873,145.327,242.964Z" transform="translate(-99.89 -160.629)"/>
    </g>
  </g>
</svg>
