<svg xmlns="http://www.w3.org/2000/svg" width="400" height="329" viewBox="0 0 400 329">
  <g id="Grupo_112769" data-name="Grupo 112769" transform="translate(-2121 9833)">
    <rect id="Rectángulo_40423" data-name="Rectángulo 40423" width="400" height="329" transform="translate(2121 -9833)" fill="#dce736" opacity="0.295"/>
    <g id="_016-psicologa" data-name="016-psicologa" transform="translate(2248 -9808.395)">
      <g id="Grupo_112528" data-name="Grupo 112528" transform="translate(0)">
        <g id="Grupo_112527" data-name="Grupo 112527" transform="translate(2.621 2.62)">
          <g id="Grupo_112520" data-name="Grupo 112520" transform="translate(7.991 14.027)">
            <path id="Trazado_160841" data-name="Trazado 160841" d="M210.187,134l-8.029-20.492a51.985,51.985,0,0,1-3.194-12.67,60.608,60.608,0,1,0-95.812,56.417,10.873,10.873,0,0,1,4.443,8.795v41.225h69.813V175.278l17.658-1.6a7.555,7.555,0,0,0,6.8-8.587l-3.2-22.507,9.6-4.032A3.539,3.539,0,0,0,210.187,134Z" transform="translate(-78.202 -47.645)" fill="#3d46c2"/>
            <g id="Grupo_112519" data-name="Grupo 112519">
              <path id="Trazado_160842" data-name="Trazado 160842" d="M165.029,199.137v42.988a2.212,2.212,0,0,1-2.211,2.211H119.827a2.209,2.209,0,0,1-2.207-2.211,2.21,2.21,0,0,1-2.211,2.211h-7.816V232.324a10.876,10.876,0,0,0-4.442-8.795,60.5,60.5,0,0,1-19.516-74.012h31.774a2.21,2.21,0,0,1,2.211,2.211v10.533a2.2,2.2,0,0,0,3.328,1.905,10.6,10.6,0,1,1,.045,18.138,2.213,2.213,0,0,0-3.373,1.878v10.533a2.21,2.21,0,0,1-2.211,2.211,2.21,2.21,0,0,1,2.211,2.211,2.209,2.209,0,0,1,2.207-2.211h10.537a2.213,2.213,0,0,1,1.878,3.373,10.6,10.6,0,1,0,18.138-.045,2.2,2.2,0,0,1,1.9-3.328h10.537A2.214,2.214,0,0,1,165.029,199.137Z" transform="translate(-78.201 -113.922)" fill="#3d46c2"/>
              <g id="Grupo_112518" data-name="Grupo 112518" transform="translate(53.845)">
                <path id="Trazado_160843" data-name="Trazado 160843" d="M336.511,412.931H325.964a3.212,3.212,0,0,0-3.212,3.212v28.783h13.759Z" transform="translate(-291.151 -285.299)"/>
                <path id="Trazado_160844" data-name="Trazado 160844" d="M310.448,134l-8.03-20.495a52.782,52.782,0,0,1-3.209-12.78,60.6,60.6,0,0,0-66.9-52.7,61.118,61.118,0,0,1,24.307,8.09L236.422,76.3a2.212,2.212,0,0,0,0,3.124l7.452,7.452a2.2,2.2,0,0,0,3.7-1.007,10.6,10.6,0,1,1,12.855,12.793,2.211,2.211,0,0,0-1.058,3.71l7.452,7.452a2.206,2.206,0,0,0,3.124,0l7.452-7.452a2.215,2.215,0,0,1,3.713,1.059,10.6,10.6,0,0,0,7.453,7.669c.358,1.144.753,2.276,1.191,3.394l8.152,20.8a3.593,3.593,0,0,1-1.956,4.622l-7.457,3.132a3.211,3.211,0,0,0-1.936,3.413l2.9,20.4a7.659,7.659,0,0,1-3.7,7.683l9.571-.867a7.557,7.557,0,0,0,6.8-8.588l-3.2-22.508,9.6-4.031A3.539,3.539,0,0,0,310.448,134Z" transform="translate(-232.308 -47.644)"/>
              </g>
            </g>
          </g>
          <g id="Grupo_112521" data-name="Grupo 112521" transform="translate(65.303)">
            <path id="Trazado_160845" data-name="Trazado 160845" d="M305.7,55.993a10.569,10.569,0,0,0-5.345-3.172,2.2,2.2,0,0,1-1.007-3.7L306.8,41.67a2.21,2.21,0,0,0,0-3.125l-30.4-30.4a2.21,2.21,0,0,0-3.125,0l-30.4,30.4a2.21,2.21,0,0,0,0,3.125l7.449,7.449a2.2,2.2,0,0,0,3.7-1.007A10.6,10.6,0,1,1,266.883,60.9a2.212,2.212,0,0,0-1.058,3.713l7.45,7.45a2.21,2.21,0,0,0,3.125,0l7.45-7.45a2.212,2.212,0,0,1,3.713,1.058A10.6,10.6,0,1,0,305.7,55.993Z" transform="translate(-242.23 -7.499)" fill="#f85316"/>
            <path id="Trazado_160846" data-name="Trazado 160846" d="M353.672,70.332a10.6,10.6,0,0,1-12.023,2.513c.153-.149.305-.3.451-.458a10.6,10.6,0,0,0-5.286-17.506,2.207,2.207,0,0,1-1.007-3.7l7.448-7.448a2.21,2.21,0,0,0,0-3.127l-27.2-27.2,5.251-5.255a2.212,2.212,0,0,1,3.124,0l30.4,30.4a2.212,2.212,0,0,1,0,3.124L347.38,49.12a2.206,2.206,0,0,0,1.01,3.7,10.606,10.606,0,0,1,5.282,17.509Z" transform="translate(-290.262 -7.502)" fill="#f85316"/>
          </g>
          <g id="Grupo_112523" data-name="Grupo 112523" transform="translate(0 37.981)">
            <path id="Trazado_160847" data-name="Trazado 160847" d="M112.092,129.315a10.571,10.571,0,0,0-6.023,1.537,2.2,2.2,0,0,1-3.329-1.9V118.412a2.209,2.209,0,0,0-2.21-2.21H57.541a2.209,2.209,0,0,0-2.21,2.21V161.4a2.209,2.209,0,0,0,2.21,2.21H68.075a2.2,2.2,0,0,0,1.9-3.329,10.6,10.6,0,1,1,18.136-.044,2.212,2.212,0,0,0,1.877,3.374H100.53a2.209,2.209,0,0,0,2.21-2.21V150.865a2.212,2.212,0,0,1,3.373-1.877,10.6,10.6,0,1,0,5.979-19.673Z" transform="translate(-55.331 -116.202)" fill="#f3ff3c"/>
            <g id="Grupo_112522" data-name="Grupo 112522" transform="translate(34.273)">
              <path id="Trazado_160848" data-name="Trazado 160848" d="M166.636,129.529a10.009,10.009,0,0,0-1.655-.215,10.585,10.585,0,0,0-6.022,1.537,2.206,2.206,0,0,1-3.332-1.905V118.413a2.209,2.209,0,0,0-2.208-2.211h10.926a2.21,2.21,0,0,1,2.211,2.211v10.533A2.133,2.133,0,0,0,166.636,129.529Z" transform="translate(-153.42 -116.202)" fill="#dce736"/>
              <path id="Trazado_160849" data-name="Trazado 160849" d="M206.149,174.9a10.509,10.509,0,0,1-5.463-1.517,10.593,10.593,0,0,0-.014-18.169,10.6,10.6,0,1,1,5.477,19.686Z" transform="translate(-184.162 -140.596)" fill="#dce736"/>
              <path id="Trazado_160850" data-name="Trazado 160850" d="M167.053,210.724a2.058,2.058,0,0,0-.076.573v10.537a2.21,2.21,0,0,1-2.211,2.211H154.229a1.239,1.239,0,0,1-.163-.01,2.211,2.211,0,0,0,1.982-2.2V211.3a2.213,2.213,0,0,1,3.373-1.878,10.543,10.543,0,0,0,5.477,1.524A10.735,10.735,0,0,0,167.053,210.724Z" transform="translate(-153.84 -176.636)" fill="#dce736"/>
            </g>
          </g>
          <g id="Grupo_112525" data-name="Grupo 112525" transform="translate(0 65.935)">
            <path id="Trazado_160851" data-name="Trazado 160851" d="M68.444,206.309a10.571,10.571,0,0,0,1.537,6.023,2.2,2.2,0,0,1-1.9,3.329H57.541a2.209,2.209,0,0,0-2.21,2.21V260.86a2.209,2.209,0,0,0,2.21,2.21H100.53a2.209,2.209,0,0,0,2.21-2.21V250.325a2.2,2.2,0,0,0-3.329-1.905,10.6,10.6,0,1,1-.044-18.136,2.212,2.212,0,0,0,3.373-1.877V217.871a2.209,2.209,0,0,0-2.21-2.21H89.994a2.212,2.212,0,0,1-1.877-3.374,10.6,10.6,0,1,0-19.673-5.979Z" transform="translate(-55.331 -196.207)" fill="#75b62f"/>
            <g id="Grupo_112524" data-name="Grupo 112524" transform="translate(17.026 0.001)">
              <path id="Trazado_160852" data-name="Trazado 160852" d="M166.557,346.956v10.537a2.209,2.209,0,0,1-2.211,2.208H153.42a2.209,2.209,0,0,0,2.208-2.208V346.956a2.231,2.231,0,0,0-.077-.58,10.008,10.008,0,0,0,1.652.212,10.556,10.556,0,0,0,6.022-1.534A2.2,2.2,0,0,1,166.557,346.956Z" transform="translate(-136.174 -292.839)" fill="#75b62f"/>
              <path id="Trazado_160853" data-name="Trazado 160853" d="M120.141,309.069a10.515,10.515,0,0,1-5.977,1.51,10.6,10.6,0,0,1,.5-21.192,10.538,10.538,0,0,1,5.463,1.513,10.591,10.591,0,0,0,.01,18.169Z" transform="translate(-104.06 -256.831)" fill="#75b62f"/>
              <path id="Trazado_160854" data-name="Trazado 160854" d="M136.733,217.871v10.537a2.213,2.213,0,0,1-3.373,1.878,10.573,10.573,0,0,0-5.477-1.52,10.773,10.773,0,0,0-2.155.219,2.082,2.082,0,0,0,.077-.576V217.871a2.209,2.209,0,0,0-2.208-2.208H113.06a2.213,2.213,0,0,1-1.878-3.373,10.608,10.608,0,0,0-3.6-14.56,10.447,10.447,0,0,1,5.039-1.513,10.6,10.6,0,0,1,9.489,16.073,2.213,2.213,0,0,0,1.878,3.373h10.537A2.21,2.21,0,0,1,136.733,217.871Z" transform="translate(-106.35 -196.21)" fill="#75b62f"/>
            </g>
          </g>
          <g id="Grupo_112526" data-name="Grupo 112526" transform="translate(27.954 85.389)">
            <path id="Trazado_160855" data-name="Trazado 160855" d="M145.439,286.181a10.57,10.57,0,0,0,6.023-1.537,2.2,2.2,0,0,1,3.329,1.9v10.535a2.209,2.209,0,0,0,2.21,2.21H199.99a2.209,2.209,0,0,0,2.21-2.21V254.095a2.209,2.209,0,0,0-2.21-2.21H189.455a2.2,2.2,0,0,0-1.9,3.329,10.6,10.6,0,1,1-18.136.044,2.212,2.212,0,0,0-1.877-3.373H157a2.209,2.209,0,0,0-2.21,2.21v10.536a2.212,2.212,0,0,1-3.373,1.877,10.6,10.6,0,1,0-5.979,19.673Z" transform="translate(-135.337 -251.885)" fill="#f3ff3c"/>
            <path id="Trazado_160856" data-name="Trazado 160856" d="M302.238,254.1v42.991a2.212,2.212,0,0,1-2.211,2.208H289.1a2.209,2.209,0,0,0,2.211-2.208V254.1a2.21,2.21,0,0,0-1.985-2.2,1.294,1.294,0,0,1,.167-.011h10.537A2.212,2.212,0,0,1,302.238,254.1Z" transform="translate(-235.374 -251.887)" fill="#dce736"/>
          </g>
        </g>
        <path id="Trazado_160857" data-name="Trazado 160857" d="M192.867,102.042l-8.029-20.492a49.412,49.412,0,0,1-3.032-12.032c-.109-.888-.243-1.778-.389-2.66a13.227,13.227,0,0,0-6.189-21.265l6.949-6.949a4.835,4.835,0,0,0,0-6.831l-6.221-6.221A2.62,2.62,0,1,0,172.25,29.3l5.93,5.93-7.159,7.159a4.851,4.851,0,0,0-1.235,4.739,4.794,4.794,0,0,0,3.48,3.362,7.983,7.983,0,1,1-9.633,9.68,4.865,4.865,0,0,0-3.409-3.52,4.764,4.764,0,0,0-4.7,1.237l-7.159,7.16L141.7,58.386a13.224,13.224,0,1,0-16.5-16.5l-6.659-6.658L148.363,5.411,163.5,20.553a2.62,2.62,0,1,0,3.706-3.706L151.778,1.415a4.83,4.83,0,0,0-6.831,0L131.169,15.193a63.746,63.746,0,0,0-12.807-1.163,62.892,62.892,0,0,0-48.78,23.95H52.661a4.836,4.836,0,0,0-4.83,4.83V85.8a4.8,4.8,0,0,0,.542,2.214,4.775,4.775,0,0,0-.542,2.205v16.422a2.621,2.621,0,1,0,5.241,0V90.63H63.2a4.851,4.851,0,0,0,4.225-2.478,4.793,4.793,0,0,0-.084-4.839,7.982,7.982,0,1,1,13.657-.034,4.864,4.864,0,0,0-.079,4.9,4.764,4.764,0,0,0,4.2,2.45H95.24v9.417a13.224,13.224,0,1,0,0,23.334V132.8H53.072v-13.79a2.621,2.621,0,0,0-5.241,0v14.2a4.835,4.835,0,0,0,4.83,4.83H85.215v38.235a2.621,2.621,0,1,0,5.241,0V138.039H95.65a4.8,4.8,0,0,0,2.21-.54,4.787,4.787,0,0,0,2.21.54h20.936a2.621,2.621,0,0,0,0-5.241H100.481V122.674A4.851,4.851,0,0,0,98,118.449a4.8,4.8,0,0,0-4.839.084,7.934,7.934,0,0,1-4.536,1.155,8.017,8.017,0,0,1-7.6-7.662,7.986,7.986,0,0,1,12.1-7.15,4.866,4.866,0,0,0,4.9.078,4.763,4.763,0,0,0,2.449-4.2V90.63H109.9a13.224,13.224,0,1,0,23.334,0h9.416V132.8h-9.275a2.621,2.621,0,0,0,0,5.241h9.686a4.835,4.835,0,0,0,4.83-4.83V90.219a4.835,4.835,0,0,0-4.83-4.83H132.524a4.851,4.851,0,0,0-4.225,2.478,4.792,4.792,0,0,0,.084,4.838,7.982,7.982,0,1,1-13.657.034,4.864,4.864,0,0,0,.079-4.9,4.764,4.764,0,0,0-4.2-2.45H100.481V75.972a13.224,13.224,0,1,0,0-23.334V42.811a4.835,4.835,0,0,0-4.83-4.83H76.468a57.591,57.591,0,0,1,41.95-18.709,58.926,58.926,0,0,1,8.185.488L114.549,31.813a4.836,4.836,0,0,0,0,6.831L122,46.093a4.85,4.85,0,0,0,4.739,1.235,4.793,4.793,0,0,0,3.362-3.48,7.983,7.983,0,1,1,9.681,9.633,4.865,4.865,0,0,0-3.521,3.409,4.764,4.764,0,0,0,1.237,4.7l7.45,7.45a4.836,4.836,0,0,0,6.831,0l6.95-6.95a13.23,13.23,0,0,0,12.648,9.379l.257,0a13.2,13.2,0,0,0,5-1.079,54.623,54.623,0,0,0,3.322,13.073l8.029,20.492a.912.912,0,0,1-.5,1.181l-9.6,4.032a2.621,2.621,0,0,0-1.58,2.785l3.2,22.507a4.935,4.935,0,0,1-4.44,5.609l-17.658,1.6a2.621,2.621,0,0,0-2.384,2.61v31.994a2.621,2.621,0,0,0,5.241,0v-29.6l15.275-1.386a10.176,10.176,0,0,0,9.155-11.566l-2.914-20.505,7.733-3.248a6.123,6.123,0,0,0,3.35-7.925ZM97.717,57.571a4.8,4.8,0,0,0,4.839-.084,7.965,7.965,0,0,1,4.535-1.155h0a8.016,8.016,0,0,1,7.6,7.662,7.986,7.986,0,0,1-12.1,7.15,4.864,4.864,0,0,0-4.9-.079,4.764,4.764,0,0,0-2.45,4.2V85.39H85.823a13.224,13.224,0,1,0-23.334,0H53.072V43.222H95.24V53.346A4.851,4.851,0,0,0,97.717,57.571Z" transform="translate(-47.831 0)"/>
      </g>
    </g>
  </g>
</svg>
